<svg xmlns="http://www.w3.org/2000/svg" viewBox="0 0 469.269 92.205"><path fill="#331A2F" fill-opacity=".9" d="M294.408 29.174v10.031h-1.358v-4.564h-5.411v4.564h-1.358V29.174h1.358v4.473h5.411v-4.473h1.358zm5.908 6.839c-.574.019-1.064.065-1.47.14-.401.07-.73.163-.987.28-.252.117-.436.254-.553.413a.9.9 0 0 0-.168.532c0 .187.031.348.091.483.056.129.14.243.245.336.108.084.231.147.371.189.145.037.299.056.462.056.22 0 .42-.021.602-.063.355-.096.687-.266.973-.497.15-.117.294-.25.434-.399v-1.47zm-4.025-2.898c.392-.378.815-.66 1.267-.847a3.91 3.91 0 0 1 1.505-.28c.397 0 .749.065 1.057.196.308.13.567.313.777.546.21.233.369.516.476.847.108.331.161.695.161 1.092v4.536h-.553a.574.574 0 0 1-.28-.056c-.065-.042-.116-.121-.154-.238l-.14-.672a7.287 7.287 0 0 1-.546.462c-.177.13-.364.243-.56.336-.202.09-.413.159-.63.203a3.23 3.23 0 0 1-.735.077 2.63 2.63 0 0 1-.777-.112 1.883 1.883 0 0 1-.637-.35 1.708 1.708 0 0 1-.427-.581 2.12 2.12 0 0 1-.154-.84c0-.28.077-.548.231-.805.154-.261.404-.492.75-.693.345-.2.795-.364 1.35-.49.556-.13 1.237-.205 2.044-.224v-.553c0-.55-.119-.966-.357-1.246-.238-.285-.585-.427-1.043-.427-.308 0-.567.04-.777.119a2.77 2.77 0 0 0-.539.259c-.149.093-.28.18-.392.259a.558.558 0 0 1-.322.112.372.372 0 0 1-.217-.063.675.675 0 0 1-.154-.168l-.224-.399zm12.027 5.18v-5.201h-2.247a22.877 22.877 0 0 1-.196 1.932c-.084.56-.182 1.052-.294 1.477a6.25 6.25 0 0 1-.364 1.071 3.46 3.46 0 0 1-.413.721h3.514zm2.506-.035v3.003c0 .121-.035.215-.105.28a.336.336 0 0 1-.259.105h-.763v-2.443h-5.964v2.086a.4.4 0 0 1-.084.245c-.051.075-.137.112-.259.112h-.784v-3.353h.231c.164 0 .325-.028.483-.084a1.2 1.2 0 0 0 .469-.315c.15-.159.29-.38.42-.665.136-.285.257-.656.364-1.113.108-.457.201-1.013.28-1.666.08-.658.143-1.437.189-2.338h4.487v6.146h1.295zm5.886-3.374c0-.29-.042-.553-.126-.791a1.695 1.695 0 0 0-.357-.623 1.507 1.507 0 0 0-.567-.406 1.888 1.888 0 0 0-.763-.147c-.598 0-1.071.175-1.421.525-.346.345-.56.826-.644 1.442h3.878zm1.008 3.325a2.44 2.44 0 0 1-.553.49c-.218.137-.45.25-.693.336-.245.09-.498.155-.756.196-.262.047-.521.07-.777.07-.49 0-.943-.082-1.358-.245a3.07 3.07 0 0 1-1.071-.728 3.4 3.4 0 0 1-.7-1.19c-.168-.471-.252-1.013-.252-1.624 0-.495.074-.957.224-1.386.154-.43.373-.8.658-1.113.289-.32.645-.574 1.043-.742.41-.182.872-.273 1.386-.273.424 0 .816.072 1.176.217.364.14.676.345.938.616.266.266.473.597.623.994.149.392.224.84.224 1.344 0 .196-.021.327-.063.392s-.122.098-.238.098h-4.74c.015.448.075.838.183 1.169.112.331.266.609.462.833.196.22.429.385.7.497.27.107.574.161.91.161.312 0 .58-.035.805-.105a4.1 4.1 0 0 0 .994-.469.547.547 0 0 1 .287-.112c.102 0 .182.04.238.119l.35.455zm11.457.994h-.868c-.224 0-.396-.035-.518-.105a.699.699 0 0 1-.273-.329l-1.379-2.205a1.097 1.097 0 0 0-.987-.546h-.714v3.192h-1.211V36.02h-.707c-.21 0-.401.047-.574.14a1.115 1.115 0 0 0-.413.406l-1.379 2.205a.712.712 0 0 1-.287.329c-.116.07-.287.105-.511.105h-.861l1.862-2.933c.122-.205.259-.371.413-.497.154-.126.343-.222.567-.287a1.296 1.296 0 0 1-.455-.245 2.08 2.08 0 0 1-.343-.427l-1.848-2.702h.98c.122 0 .231.033.329.098.098.06.175.145.231.252l1.505 2.24c.103.154.227.273.371.357.145.08.315.119.511.119h.609v-3.066h1.211v3.066h.595c.397 0 .696-.159.896-.476l1.505-2.24a.635.635 0 0 1 .567-.35h.98l-1.848 2.702a1.917 1.917 0 0 1-.35.427c-.121.107-.27.189-.448.245.224.065.413.161.567.287s.292.292.413.497l1.862 2.933zm7.072-7.091v7.091h-1.253v-3.318h-3.402v3.318h-1.253v-7.091h1.253v2.828h3.402v-2.828h1.253zm4.703 6.181c.252 0 .469-.03.651-.091.187-.065.341-.154.462-.266a1.12 1.12 0 0 0 .273-.406c.061-.154.091-.322.091-.504 0-.168-.025-.324-.077-.469a.937.937 0 0 0-.259-.392c-.116-.112-.27-.2-.462-.266a2.179 2.179 0 0 0-.7-.098h-1.512v2.492h1.533zm-.021-3.402c.49 0 .901.058 1.232.175.336.117.605.273.805.469.206.196.353.422.441.679.089.257.133.523.133.798 0 .317-.056.611-.168.882a1.91 1.91 0 0 1-.497.693 2.44 2.44 0 0 1-.812.455 3.52 3.52 0 0 1-1.113.161h-2.723v-7.091h1.19v2.779h1.512zm5.418-2.779v7.091h-1.246v-7.091h1.246zm8.067 0v7.091h-1.246v-4.816c0-.093.004-.194.014-.301.009-.107.021-.215.035-.322-.042.093-.084.18-.126.259a1.92 1.92 0 0 1-.133.217l-3.423 4.655c-.056.08-.122.153-.196.217a.374.374 0 0 1-.252.098h-.756v-7.091h1.253v4.816c0 .089-.005.187-.014.294-.01.103-.021.208-.035.315.042-.089.084-.17.126-.245a2.78 2.78 0 0 1 .126-.217l3.423-4.655a1 1 0 0 1 .196-.21.382.382 0 0 1 .259-.105h.749zm-2.961-1.715c.191 0 .352-.021.483-.063a.704.704 0 0 0 .315-.217c.09-.11.152-.24.182-.378.037-.154.056-.343.056-.567h.728c.088 0 .156.04.203.119.046.08.07.166.07.259 0 .233-.047.443-.14.63-.097.19-.235.355-.406.483a1.88 1.88 0 0 1-.637.301c-.252.07-.537.105-.854.105a3.19 3.19 0 0 1-.854-.105 1.954 1.954 0 0 1-.644-.301 1.403 1.403 0 0 1-.399-.483 1.38 1.38 0 0 1-.14-.63c0-.093.023-.18.07-.259a.222.222 0 0 1 .203-.119h.728c0 .224.018.413.056.567.037.154.095.28.175.378.084.098.191.17.322.217.13.042.291.063.483.063zm13.448 2.975a.583.583 0 0 1-.112.119.254.254 0 0 1-.154.042.426.426 0 0 1-.231-.084 3.19 3.19 0 0 0-.315-.196 2.245 2.245 0 0 0-.455-.189 2.056 2.056 0 0 0-.658-.091c-.35 0-.658.063-.924.189-.266.121-.49.299-.672.532a2.49 2.49 0 0 0-.406.847 4.292 4.292 0 0 0-.133 1.113c0 .43.049.812.147 1.148.098.331.235.611.413.84.182.224.399.397.651.518.256.117.543.175.861.175.303 0 .553-.035.749-.105a2.21 2.21 0 0 0 .483-.245c.11-.074.218-.154.322-.238a.406.406 0 0 1 .259-.112c.102 0 .182.04.238.119l.35.455c-.15.188-.327.353-.525.49-.196.135-.409.25-.637.343-.224.089-.46.154-.707.196a4.52 4.52 0 0 1-.756.063c-.444 0-.857-.082-1.239-.245a2.845 2.845 0 0 1-.987-.707c-.28-.313-.5-.695-.658-1.148-.159-.453-.238-.968-.238-1.547 0-.527.072-1.015.217-1.463.149-.448.364-.833.644-1.155.287-.329.643-.59 1.043-.763.415-.182.891-.273 1.428-.273.499 0 .938.082 1.316.245.38.157.725.388 1.015.679l-.329.448zm6.373 1.512c0-.29-.042-.553-.126-.791a1.668 1.668 0 0 0-.357-.623 1.507 1.507 0 0 0-.567-.406 1.885 1.885 0 0 0-.763-.147c-.597 0-1.071.175-1.421.525-.345.345-.56.826-.644 1.442h3.878zm1.008 3.325a2.42 2.42 0 0 1-.553.49c-.218.137-.45.25-.693.336-.245.09-.498.155-.756.196-.261.047-.52.07-.777.07-.49 0-.943-.082-1.358-.245a3.07 3.07 0 0 1-1.071-.728 3.4 3.4 0 0 1-.7-1.19c-.168-.471-.252-1.013-.252-1.624 0-.495.075-.957.224-1.386.154-.43.373-.8.658-1.113.29-.32.645-.574 1.043-.742.438-.187.91-.28 1.386-.273.425 0 .817.072 1.176.217.364.14.677.345.938.616.266.266.474.597.623.994.149.392.224.84.224 1.344 0 .196-.021.327-.063.392s-.121.098-.238.098h-4.74c.015.448.076.838.183 1.169.112.331.266.609.462.833.196.22.429.385.7.497.27.107.574.161.91.161.313 0 .58-.035.805-.105.351-.11.686-.268.994-.469a.55.55 0 0 1 .287-.112c.103 0 .182.04.238.119l.35.455zm2.896-.714c.228.308.478.525.749.651.27.126.574.189.91.189.662 0 1.171-.236 1.526-.707.354-.471.532-1.143.532-2.016 0-.462-.042-.859-.126-1.19a2.258 2.258 0 0 0-.35-.812 1.366 1.366 0 0 0-.567-.469 1.888 1.888 0 0 0-.763-.147c-.406 0-.763.093-1.071.28a3.08 3.08 0 0 0-.84.791v3.43zm-.063-4.284c.287-.359.638-.66 1.036-.889a2.66 2.66 0 0 1 1.344-.336c.41 0 .781.08 1.113.238.331.154.613.385.847.693.233.303.413.681.539 1.134s.189.973.189 1.561c0 .523-.07 1.01-.21 1.463-.14.448-.343.838-.609 1.169a2.869 2.869 0 0 1-.966.777 2.85 2.85 0 0 1-1.281.28c-.434 0-.808-.072-1.12-.217-.31-.15-.588-.36-.819-.616v3.136h-1.253v-9.492h.749c.177 0 .287.086.329.259l.112.84zm9.367 5.117c.466 0 .835-.107 1.106-.322.27-.22.406-.518.406-.896 0-.168-.026-.32-.077-.455a.898.898 0 0 0-.252-.364 1.2 1.2 0 0 0-.469-.238c-.23-.06-.469-.09-.707-.084h-1.533v2.359h1.526zm-1.526-5.376v2.226h1.365c.205 0 .394-.028.567-.084.177-.06.329-.142.455-.245a1.15 1.15 0 0 0 .294-.378 1.14 1.14 0 0 0 .035-.868.778.778 0 0 0-.238-.329 1.194 1.194 0 0 0-.441-.231 2.145 2.145 0 0 0-.672-.091h-1.365zm1.4-.84c.438 0 .814.044 1.127.133.312.089.569.21.77.364.2.15.347.327.441.532.093.205.14.425.14.658 0 .154-.021.315-.063.483-.102.37-.333.69-.651.903-.206.133-.433.23-.672.287.541.093.959.282 1.253.567.294.28.441.651.441 1.113 0 .345-.07.646-.21.903a1.862 1.862 0 0 1-.567.637 2.48 2.48 0 0 1-.84.385 4.096 4.096 0 0 1-1.036.126h-2.73v-7.091h2.597zm10.431 0v7.091h-1.246v-4.816c0-.093.005-.194.014-.301s.021-.215.035-.322c-.042.093-.084.18-.126.259-.042.08-.086.152-.133.217l-3.423 4.655c-.056.08-.122.153-.196.217a.374.374 0 0 1-.252.098h-.756v-7.091h1.253v4.816c0 .089-.005.187-.014.294-.01.105-.021.21-.035.315.042-.089.084-.17.126-.245a2.78 2.78 0 0 1 .126-.217l3.423-4.655c.051-.075.117-.145.196-.21a.384.384 0 0 1 .259-.105h.749zm6.905 1.26a.583.583 0 0 1-.112.119.254.254 0 0 1-.154.042.426.426 0 0 1-.231-.084 3.19 3.19 0 0 0-.315-.196 2.245 2.245 0 0 0-.455-.189 2.056 2.056 0 0 0-.658-.091c-.35 0-.658.063-.924.189-.266.121-.49.299-.672.532a2.49 2.49 0 0 0-.406.847 4.292 4.292 0 0 0-.133 1.113c0 .43.049.812.147 1.148.098.331.235.611.413.84.182.224.399.397.651.518.256.117.543.175.861.175.303 0 .553-.035.749-.105a2.21 2.21 0 0 0 .483-.245c.11-.074.218-.154.322-.238a.406.406 0 0 1 .259-.112c.102 0 .182.04.238.119l.35.455c-.15.188-.327.353-.525.49-.196.135-.409.25-.637.343-.224.089-.46.154-.707.196a4.52 4.52 0 0 1-.756.063c-.444 0-.857-.082-1.239-.245a2.845 2.845 0 0 1-.987-.707c-.28-.313-.5-.695-.658-1.148-.159-.453-.238-.968-.238-1.547 0-.527.072-1.015.217-1.463.149-.448.364-.833.644-1.155.287-.329.643-.59 1.043-.763.415-.182.891-.273 1.428-.273.499 0 .938.082 1.316.245.38.157.725.388 1.015.679l-.329.448zM289.83 54.013c-.574.019-1.064.065-1.47.14-.401.07-.73.163-.987.28-.252.117-.436.254-.553.413a.9.9 0 0 0-.168.532c0 .187.03.348.091.483a.95.95 0 0 0 .245.336c.107.084.231.147.371.189.145.037.299.056.462.056.219 0 .42-.021.602-.063.182-.047.352-.112.511-.196a2.73 2.73 0 0 0 .462-.301 3.91 3.91 0 0 0 .434-.399v-1.47zm-4.025-2.898c.392-.378.814-.66 1.267-.847s.954-.28 1.505-.28c.397 0 .749.065 1.057.196.308.13.567.313.777.546.21.233.369.516.476.847.107.331.161.695.161 1.092v4.536h-.553a.572.572 0 0 1-.28-.056c-.065-.042-.117-.121-.154-.238l-.14-.672a7.707 7.707 0 0 1-.546.462c-.177.13-.364.243-.56.336-.202.09-.413.159-.63.203a3.23 3.23 0 0 1-.735.077 2.63 2.63 0 0 1-.777-.112 1.874 1.874 0 0 1-.637-.35 1.695 1.695 0 0 1-.427-.581 2.103 2.103 0 0 1-.154-.84c0-.28.077-.548.231-.805.154-.261.404-.492.749-.693.345-.2.796-.364 1.351-.49.555-.13 1.237-.205 2.044-.224v-.553c0-.55-.119-.966-.357-1.246-.238-.285-.586-.427-1.043-.427-.308 0-.567.04-.777.119a2.77 2.77 0 0 0-.539.259c-.149.093-.28.18-.392.259a.56.56 0 0 1-.322.112.372.372 0 0 1-.217-.063.656.656 0 0 1-.154-.168l-.224-.399zm13.049-1.001v7.091h-1.253v-3.318h-3.402v3.318h-1.253v-7.091h1.253v2.828h3.402v-2.828h1.253zm5.824 3.899c-.574.019-1.064.065-1.47.14-.402.07-.731.163-.987.28-.252.117-.437.254-.553.413a.9.9 0 0 0-.168.532c0 .187.03.348.091.483.06.135.142.247.245.336.107.084.231.147.371.189.144.037.298.056.462.056.219 0 .42-.021.602-.063.182-.047.352-.112.511-.196a2.73 2.73 0 0 0 .462-.301 3.91 3.91 0 0 0 .434-.399v-1.47zm-4.025-2.898c.392-.378.814-.66 1.267-.847.452-.187.954-.28 1.505-.28.396 0 .749.065 1.057.196.308.13.567.313.777.546.21.233.368.516.476.847.107.331.161.695.161 1.092v4.536h-.553a.57.57 0 0 1-.28-.056c-.066-.042-.117-.121-.154-.238l-.14-.672a7.707 7.707 0 0 1-.546.462c-.178.13-.364.243-.56.336-.202.09-.413.159-.63.203-.22.051-.465.077-.735.077a2.62 2.62 0 0 1-.777-.112 1.874 1.874 0 0 1-.637-.35 1.682 1.682 0 0 1-.427-.581 2.103 2.103 0 0 1-.154-.84c0-.28.077-.548.231-.805.154-.261.403-.492.75-.693.344-.2.794-.364 1.35-.49.555-.13 1.236-.205 2.044-.224v-.553c0-.55-.119-.966-.357-1.246-.238-.285-.586-.427-1.043-.427-.308 0-.567.04-.777.119-.188.066-.37.153-.539.259-.15.093-.28.18-.392.259a.563.563 0 0 1-.322.112.37.37 0 0 1-.217-.063.656.656 0 0 1-.154-.168l-.224-.399zm13.357 6.09h-1.246v-6.111h-2.24c-.056.9-.14 1.68-.252 2.338a10.951 10.951 0 0 1-.406 1.673c-.154.457-.329.83-.525 1.12-.164.254-.37.48-.609.665-.21.159-.43.266-.658.322-.22.055-.445.084-.672.084-.397 0-.595-.063-.595-.189v-.791h.364c.158 0 .319-.028.483-.084a1.23 1.23 0 0 0 .476-.322c.158-.159.31-.38.455-.665.169-.359.3-.734.392-1.12.121-.462.224-1.02.308-1.673.088-.658.156-1.437.203-2.338h4.522v7.091zm8.056-7.091v7.091h-1.246v-4.816c0-.093.005-.194.014-.301.01-.107.021-.215.035-.322-.042.093-.084.18-.126.259-.042.08-.086.152-.133.217l-3.423 4.655c-.056.08-.122.153-.196.217a.37.37 0 0 1-.252.098h-.756v-7.091h1.253v4.816c0 .089-.004.187-.014.294-.01.105-.021.21-.035.315.042-.089.084-.17.126-.245a2.78 2.78 0 0 1 .126-.217l3.423-4.655a1.04 1.04 0 0 1 .196-.21.386.386 0 0 1 .259-.105h.749zm7.864.952h-2.723v6.139h-1.246v-6.139h-2.723v-.952h6.692v.952zm7.271-.952v7.091h-1.246v-4.816c0-.093.005-.194.014-.301s.021-.215.035-.322c-.042.093-.084.18-.126.259-.042.08-.086.152-.133.217l-3.423 4.655c-.056.08-.122.153-.196.217a.374.374 0 0 1-.252.098h-.756v-7.091h1.253v4.816c0 .089-.005.187-.014.294-.01.105-.021.21-.035.315.042-.089.084-.17.126-.245a2.78 2.78 0 0 1 .126-.217l3.423-4.655c.051-.075.117-.145.196-.21a.384.384 0 0 1 .259-.105h.749zm6.275.35a.777.777 0 0 1 .259-.252.646.646 0 0 1 .343-.098h.973l-1.841 2.702c-.099.156-.216.3-.35.427a1.314 1.314 0 0 1-.448.252c.224.06.413.156.567.287.154.126.291.29.413.49l1.862 2.933h-.868c-.224 0-.397-.037-.518-.112a.978.978 0 0 1-.315-.322l-1.379-2.205c-.22-.364-.549-.546-.987-.546h-.763v3.192h-1.253v-7.098h1.253v3.066h.672c.356.01.69-.172.875-.476l1.505-2.24zm9.024-.35v7.091h-1.246v-4.816c0-.093.004-.194.014-.301.009-.107.021-.215.035-.322-.042.093-.084.18-.126.259a1.92 1.92 0 0 1-.133.217l-3.423 4.655c-.056.08-.122.153-.196.217a.374.374 0 0 1-.252.098h-.756v-7.091h1.253v4.816c0 .089-.005.187-.014.294-.01.103-.021.208-.035.315.042-.089.084-.17.126-.245a2.78 2.78 0 0 1 .126-.217l3.423-4.655a1 1 0 0 1 .196-.21.382.382 0 0 1 .259-.105h.749zm10.438 6.181v-5.201h-2.247a23.295 23.295 0 0 1-.196 1.932c-.084.56-.182 1.052-.294 1.477a6.43 6.43 0 0 1-.364 1.071 3.552 3.552 0 0 1-.413.721h3.514zm2.506-.035v3.003c0 .121-.035.215-.105.28a.34.34 0 0 1-.259.105h-.763v-2.443h-5.964v2.086a.4.4 0 0 1-.084.245c-.052.075-.138.112-.259.112h-.784v-3.353h.231c.163 0 .324-.028.483-.084.163-.056.319-.161.469-.315.149-.159.289-.38.42-.665.16-.358.281-.73.364-1.113.107-.457.2-1.013.28-1.666.079-.658.142-1.437.189-2.338h4.487v6.146h1.295zm7.478.945h-1.246v-6.111h-2.24c-.056.9-.14 1.68-.252 2.338a10.951 10.951 0 0 1-.406 1.673c-.154.457-.329.83-.525 1.12-.164.254-.37.48-.609.665-.21.159-.43.266-.658.322-.22.055-.445.084-.672.084-.397 0-.595-.063-.595-.189v-.791h.364c.158 0 .319-.028.483-.084a1.23 1.23 0 0 0 .476-.322c.158-.159.31-.38.455-.665.169-.359.3-.734.392-1.12.121-.462.224-1.02.308-1.673.088-.658.156-1.437.203-2.338h4.522v7.091zm5.704-3.78v-2.471h-1.19c-.266 0-.49.04-.672.119a1.22 1.22 0 0 0-.441.294 1.05 1.05 0 0 0-.231.399c-.046.145-.07.29-.07.434 0 .383.14.684.42.903.28.215.663.322 1.148.322h1.036zm1.19-3.311v7.091h-1.19v-2.989h-.546c-.13 0-.24.012-.329.035a.807.807 0 0 0-.224.084.613.613 0 0 0-.161.147c-.052.063-.1.129-.147.196l-1.554 2.093a.812.812 0 0 1-.294.329c-.112.07-.277.105-.497.105h-.868l2.058-2.674c.168-.28.39-.467.665-.56a2.933 2.933 0 0 1-.91-.252 2.183 2.183 0 0 1-.609-.427 1.588 1.588 0 0 1-.336-.553c-.07-.2-.105-.404-.105-.609 0-.243.047-.485.14-.728.098-.243.252-.457.462-.644a2.35 2.35 0 0 1 .812-.462c.336-.121.742-.182 1.218-.182h2.415zm11.474 7.091h-1.253v-6.139h-3.402v6.139h-1.253v-7.091h5.908v7.091zm4.969-7.203c.518 0 .985.086 1.4.259.416.173.77.418 1.064.735s.518.702.672 1.155c.159.448.238.95.238 1.505a4.5 4.5 0 0 1-.238 1.512 3.19 3.19 0 0 1-.672 1.148c-.297.32-.66.57-1.064.735-.446.174-.921.26-1.4.252a3.78 3.78 0 0 1-1.414-.252 3.004 3.004 0 0 1-1.064-.735c-.294-.317-.52-.7-.679-1.148a4.634 4.634 0 0 1-.231-1.512c0-.555.077-1.057.231-1.505.159-.453.385-.838.679-1.155.297-.32.66-.57 1.064-.735a3.69 3.69 0 0 1 1.414-.259zm0 6.328c.7 0 1.223-.233 1.568-.7.346-.471.518-1.127.518-1.967 0-.845-.172-1.503-.518-1.974-.345-.471-.868-.707-1.568-.707-.354 0-.665.06-.931.182a1.76 1.76 0 0 0-.658.525 2.429 2.429 0 0 0-.392.847c-.088.369-.13.748-.126 1.127 0 .84.173 1.496.518 1.967.35.467.88.7 1.589.7zm9.89-4.956a.583.583 0 0 1-.112.119.254.254 0 0 1-.154.042.426.426 0 0 1-.231-.084 3.19 3.19 0 0 0-.315-.196 2.245 2.245 0 0 0-.455-.189 2.056 2.056 0 0 0-.658-.091c-.35 0-.658.063-.924.189-.266.121-.49.299-.672.532a2.49 2.49 0 0 0-.406.847 4.292 4.292 0 0 0-.133 1.113c0 .43.049.812.147 1.148.098.331.235.611.413.84.182.224.399.397.651.518.256.117.543.175.861.175.303 0 .553-.035.749-.105a2.21 2.21 0 0 0 .483-.245c.11-.074.218-.154.322-.238a.406.406 0 0 1 .259-.112c.102 0 .182.04.238.119l.35.455c-.15.188-.327.353-.525.49-.196.135-.409.25-.637.343-.224.089-.46.154-.707.196a4.52 4.52 0 0 1-.756.063c-.444 0-.857-.082-1.239-.245a2.845 2.845 0 0 1-.987-.707c-.28-.313-.5-.695-.658-1.148-.159-.453-.238-.968-.238-1.547 0-.527.072-1.015.217-1.463.149-.448.364-.833.644-1.155.287-.329.643-.59 1.043-.763.415-.182.891-.273 1.428-.273.499 0 .938.082 1.316.245.38.157.725.388 1.015.679l-.329.448zm7.644-.308h-2.723v6.139h-1.246v-6.139h-2.723v-.952h6.692v.952zm4.963 2.947c-.574.019-1.064.065-1.47.14-.401.07-.73.163-.987.28-.252.117-.436.254-.553.413a.9.9 0 0 0-.168.532c0 .187.03.348.091.483a.95.95 0 0 0 .245.336c.107.084.231.147.371.189.145.037.299.056.462.056.219 0 .42-.021.602-.063.182-.047.352-.112.511-.196a2.73 2.73 0 0 0 .462-.301 3.91 3.91 0 0 0 .434-.399v-1.47zm-4.025-2.898c.392-.378.814-.66 1.267-.847s.954-.28 1.505-.28c.397 0 .749.065 1.057.196.308.13.567.313.777.546.21.233.369.516.476.847.107.331.161.695.161 1.092v4.536h-.553a.572.572 0 0 1-.28-.056c-.065-.042-.117-.121-.154-.238l-.14-.672a7.707 7.707 0 0 1-.546.462c-.177.13-.364.243-.56.336-.202.09-.413.159-.63.203a3.23 3.23 0 0 1-.735.077 2.63 2.63 0 0 1-.777-.112 1.874 1.874 0 0 1-.637-.35 1.695 1.695 0 0 1-.427-.581 2.103 2.103 0 0 1-.154-.84c0-.28.077-.548.231-.805.154-.261.404-.492.75-.693.344-.2.795-.364 1.35-.49.555-.13 1.237-.205 2.044-.224v-.553c0-.55-.119-.966-.357-1.246-.238-.285-.586-.427-1.043-.427-.308 0-.567.04-.777.119a2.77 2.77 0 0 0-.539.259c-.149.093-.28.18-.392.259a.56.56 0 0 1-.322.112.372.372 0 0 1-.217-.063.656.656 0 0 1-.154-.168l-.224-.399zm9.864 5.215c.467 0 .835-.107 1.106-.322.271-.22.406-.518.406-.896 0-.168-.026-.32-.077-.455a.88.88 0 0 0-.252-.364 1.2 1.2 0 0 0-.469-.238 2.55 2.55 0 0 0-.707-.084h-1.533v2.359h1.526zm-1.526-5.376v2.226h1.365c.205 0 .394-.028.567-.084.177-.06.329-.142.455-.245a1.15 1.15 0 0 0 .294-.378 1.14 1.14 0 0 0 .035-.868.778.778 0 0 0-.238-.329 1.194 1.194 0 0 0-.441-.231 2.145 2.145 0 0 0-.672-.091h-1.365zm1.4-.84c.439 0 .814.044 1.127.133.313.089.569.21.77.364.201.15.348.327.441.532.093.205.14.425.14.658 0 .154-.021.315-.063.483-.102.37-.333.69-.651.903-.206.134-.433.23-.672.287.541.093.959.282 1.253.567.294.28.441.651.441 1.113 0 .345-.07.646-.21.903-.137.254-.33.472-.567.637a2.48 2.48 0 0 1-.84.385 4.09 4.09 0 0 1-1.036.126h-2.73v-7.091h2.597zm15.191 6.146v3.003c0 .121-.035.215-.105.28a.338.338 0 0 1-.259.105h-.77v-2.443h-9.709v-7.091h1.253v6.146h2.891v-6.146h1.253v6.146h2.891v-6.146h1.253v6.146h1.302zm7.34-6.146v7.091h-1.246v-4.816c0-.093.004-.194.014-.301.009-.107.021-.215.035-.322-.042.093-.084.18-.126.259a1.92 1.92 0 0 1-.133.217l-3.423 4.655c-.056.08-.122.153-.196.217a.374.374 0 0 1-.252.098h-.756v-7.091h1.253v4.816c0 .089-.005.187-.014.294-.01.103-.021.208-.035.315.042-.089.084-.17.126-.245a2.78 2.78 0 0 1 .126-.217l3.423-4.655a1 1 0 0 1 .196-.21.382.382 0 0 1 .259-.105H447zm6.275.35a.783.783 0 0 1 .258-.252.652.652 0 0 1 .343-.098h.974l-1.842 2.702a2.2 2.2 0 0 1-.35.427c-.121.107-.27.191-.448.252.224.06.413.156.567.287.154.126.292.29.413.49l1.863 2.933h-.869c-.224 0-.396-.037-.517-.112a.978.978 0 0 1-.315-.322l-1.379-2.205c-.22-.364-.549-.546-.987-.546h-.763v3.192h-1.254v-7.098h1.254v3.066h.672c.356.01.69-.172.875-.476l1.505-2.24zm5.656-.462c.518 0 .985.086 1.4.259s.77.418 1.064.735.518.702.672 1.155c.159.448.238.95.238 1.505a4.5 4.5 0 0 1-.238 1.512 3.19 3.19 0 0 1-.672 1.148c-.297.32-.66.57-1.064.735-.446.174-.921.26-1.4.252-.523 0-.994-.084-1.414-.252a3.004 3.004 0 0 1-1.064-.735c-.294-.317-.52-.7-.679-1.148a4.634 4.634 0 0 1-.231-1.512c0-.555.077-1.057.231-1.505.159-.453.385-.838.679-1.155.297-.32.66-.57 1.064-.735a3.68 3.68 0 0 1 1.414-.259zm0 6.328c.7 0 1.223-.233 1.568-.7.345-.471.518-1.127.518-1.967 0-.845-.173-1.503-.518-1.974s-.868-.707-1.568-.707c-.355 0-.665.06-.931.182-.259.12-.484.3-.658.525a2.41 2.41 0 0 0-.392.847c-.088.369-.13.748-.126 1.127 0 .84.173 1.496.518 1.967.35.467.88.7 1.589.7zm7.678 0c.466 0 .835-.107 1.106-.322.27-.22.406-.518.406-.896 0-.168-.026-.32-.077-.455a.898.898 0 0 0-.252-.364 1.2 1.2 0 0 0-.469-.238c-.23-.06-.469-.09-.707-.084h-1.533v2.359h1.526zm-1.526-5.376v2.226h1.365c.205 0 .394-.028.567-.084.177-.06.329-.142.455-.245a1.15 1.15 0 0 0 .294-.378 1.14 1.14 0 0 0 .035-.868.778.778 0 0 0-.238-.329 1.194 1.194 0 0 0-.441-.231 2.145 2.145 0 0 0-.672-.091h-1.365zm1.4-.84c.438 0 .814.044 1.127.133.312.089.569.21.77.364.2.15.347.327.441.532.093.205.14.425.14.658 0 .154-.021.315-.063.483-.102.37-.333.69-.651.903-.206.133-.433.23-.672.287.541.093.959.282 1.253.567.294.28.441.651.441 1.113 0 .345-.07.646-.21.903a1.862 1.862 0 0 1-.567.637 2.48 2.48 0 0 1-.84.385 4.096 4.096 0 0 1-1.036.126h-2.73v-7.091h2.597zm-174.588 18v7.091h-1.253v-3.318h-3.402v3.318h-1.253v-7.091h1.253v2.828h3.402v-2.828h1.253zm5.824 3.899c-.574.019-1.064.065-1.47.14-.402.07-.731.163-.987.28-.252.117-.437.254-.553.413a.9.9 0 0 0-.168.532c0 .187.03.348.091.483.06.135.142.247.245.336.107.084.231.147.371.189.144.037.298.056.462.056.219 0 .42-.021.602-.063.182-.047.352-.112.511-.196.164-.084.319-.185.462-.301a3.91 3.91 0 0 0 .434-.399v-1.47zm-4.025-2.898c.392-.378.814-.66 1.267-.847.452-.187.954-.28 1.505-.28.396 0 .749.065 1.057.196.308.13.567.313.777.546.21.233.368.516.476.847.107.331.161.695.161 1.092v4.536h-.553a.57.57 0 0 1-.28-.056c-.066-.042-.117-.121-.154-.238l-.14-.672a7.707 7.707 0 0 1-.546.462c-.178.13-.364.243-.56.336-.202.09-.413.159-.63.203-.22.051-.465.077-.735.077a2.62 2.62 0 0 1-.777-.112 1.874 1.874 0 0 1-.637-.35 1.682 1.682 0 0 1-.427-.581 2.103 2.103 0 0 1-.154-.84c0-.28.077-.548.231-.805.154-.261.403-.492.749-.693.345-.2.795-.364 1.351-.49.555-.13 1.236-.205 2.044-.224v-.553c0-.55-.119-.966-.357-1.246-.238-.285-.586-.427-1.043-.427-.308 0-.567.04-.777.119-.189.066-.37.153-.539.259-.15.093-.28.18-.392.259a.563.563 0 0 1-.322.112.37.37 0 0 1-.217-.063.656.656 0 0 1-.154-.168l-.224-.399zm18.626-1.022v7.112h-1.127v-4.711c0-.13.007-.275.021-.434.018-.163.042-.315.07-.455l-2.464 4.319a.481.481 0 0 1-.147.168.361.361 0 0 1-.21.063h-.14a.39.39 0 0 1-.217-.063.462.462 0 0 1-.147-.168l-2.506-4.333c.023.14.044.294.063.462.018.163.028.31.028.441v4.711h-1.127v-7.112h1.001c.088 0 .175.021.259.063.084.037.156.11.217.217l2.212 3.696c.107.215.203.441.287.679.079-.247.172-.474.28-.679l2.17-3.696a.478.478 0 0 1 .217-.224.63.63 0 0 1 .259-.056h1.001zm5.811 3.92c-.574.019-1.064.065-1.47.14-.401.07-.73.163-.987.28-.252.117-.436.254-.553.413a.9.9 0 0 0-.168.532c0 .187.03.348.091.483a.95.95 0 0 0 .245.336c.107.084.231.147.371.189.145.037.299.056.462.056.219 0 .42-.021.602-.063.182-.047.352-.112.511-.196.164-.084.319-.185.462-.301a3.91 3.91 0 0 0 .434-.399v-1.47zm-4.025-2.898c.392-.378.814-.66 1.267-.847s.954-.28 1.505-.28c.397 0 .749.065 1.057.196.308.13.567.313.777.546.21.233.369.516.476.847.107.331.161.695.161 1.092v4.536h-.553a.572.572 0 0 1-.28-.056c-.065-.042-.117-.121-.154-.238l-.14-.672a7.707 7.707 0 0 1-.546.462c-.177.13-.364.243-.56.336-.202.09-.413.159-.63.203a3.23 3.23 0 0 1-.735.077 2.63 2.63 0 0 1-.777-.112 1.874 1.874 0 0 1-.637-.35 1.695 1.695 0 0 1-.427-.581 2.103 2.103 0 0 1-.154-.84c0-.28.077-.548.231-.805.154-.261.404-.492.75-.693.344-.2.795-.364 1.35-.49.555-.13 1.237-.205 2.044-.224v-.553c0-.55-.119-.966-.357-1.246-.238-.285-.586-.427-1.043-.427-.308 0-.567.04-.777.119a2.77 2.77 0 0 0-.539.259c-.149.093-.28.18-.392.259a.56.56 0 0 1-.322.112.372.372 0 0 1-.217-.063.656.656 0 0 1-.154-.168l-.224-.399zm8.394 4.382c.229.308.478.525.749.651s.574.189.91.189c.663 0 1.171-.236 1.526-.707s.532-1.143.532-2.016c0-.462-.042-.859-.126-1.19a2.241 2.241 0 0 0-.35-.812 1.366 1.366 0 0 0-.567-.469 1.885 1.885 0 0 0-.763-.147c-.406 0-.763.093-1.071.28a3.11 3.11 0 0 0-.84.791v3.43zm-.063-4.284c.287-.358.638-.66 1.036-.889a2.66 2.66 0 0 1 1.344-.336c.411 0 .782.08 1.113.238.331.154.614.385.847.693.233.303.413.681.539 1.134s.189.973.189 1.561c0 .523-.07 1.01-.21 1.463-.14.448-.343.838-.609 1.169a2.85 2.85 0 0 1-.966.777 2.85 2.85 0 0 1-1.281.28c-.434 0-.807-.072-1.12-.217-.31-.15-.588-.36-.819-.616v3.136h-1.253v-9.492h.749c.177 0 .287.086.329.259l.112.84zm10.949-.749a.777.777 0 0 1 .259-.252.646.646 0 0 1 .343-.098h.973l-1.841 2.702c-.099.156-.216.3-.35.427a1.314 1.314 0 0 1-.448.252c.224.06.413.156.567.287.154.126.29.29.413.49l1.862 2.933h-.868c-.224 0-.397-.037-.518-.112a.978.978 0 0 1-.315-.322l-1.379-2.205c-.22-.364-.549-.546-.987-.546h-.763v3.192h-1.253v-7.098h1.253v3.066h.672c.356.01.69-.172.875-.476l1.505-2.24zm7.413 2.422c0-.29-.042-.553-.126-.791a1.668 1.668 0 0 0-.357-.623 1.507 1.507 0 0 0-.567-.406 1.885 1.885 0 0 0-.763-.147c-.597 0-1.071.175-1.421.525-.345.345-.56.826-.644 1.442h3.878zm1.008 3.325a2.42 2.42 0 0 1-.553.49c-.218.137-.45.25-.693.336-.245.09-.498.155-.756.196-.261.047-.52.07-.777.07-.49 0-.942-.082-1.358-.245a3.088 3.088 0 0 1-1.071-.728 3.415 3.415 0 0 1-.7-1.19c-.168-.471-.252-1.013-.252-1.624 0-.495.075-.957.224-1.386.154-.43.374-.8.658-1.113.29-.32.645-.574 1.043-.742.438-.187.91-.28 1.386-.273.425 0 .817.072 1.176.217.364.14.677.345.938.616.266.266.474.597.623.994.15.392.224.84.224 1.344 0 .196-.021.327-.063.392-.042.065-.121.098-.238.098h-4.74c.015.448.076.838.183 1.169.112.331.266.609.462.833.196.22.43.385.7.497.27.107.574.161.91.161.313 0 .58-.035.805-.105.351-.11.686-.268.994-.469a.55.55 0 0 1 .287-.112c.103 0 .182.04.238.119l.35.455zm7.428-5.145h-2.723v6.139h-1.246v-6.139h-2.723v-.952h6.692v.952zm7.096 6.139h-1.253v-6.139h-3.402v6.139h-1.253v-7.091h5.908v7.091zm8.196 0h-1.246v-6.111h-2.24c-.056.9-.14 1.68-.252 2.338-.09.568-.226 1.127-.406 1.673-.154.457-.329.83-.525 1.12-.163.255-.37.48-.609.665a1.79 1.79 0 0 1-.658.322c-.22.055-.445.084-.672.084-.396 0-.595-.063-.595-.189v-.791h.364c.159 0 .32-.028.483-.084.164-.056.322-.163.476-.322.159-.159.311-.38.455-.665a5.63 5.63 0 0 0 .392-1.12c.122-.462.224-1.02.308-1.673.089-.658.157-1.437.203-2.338h4.522v7.091zm6.72-4.319c0-.29-.042-.553-.126-.791a1.695 1.695 0 0 0-.357-.623 1.507 1.507 0 0 0-.567-.406 1.888 1.888 0 0 0-.763-.147c-.598 0-1.071.175-1.421.525-.346.345-.56.826-.644 1.442h3.878zm1.008 3.325a2.44 2.44 0 0 1-.553.49c-.218.137-.45.25-.693.336-.245.09-.498.155-.756.196-.262.047-.521.07-.777.07-.49 0-.943-.082-1.358-.245a3.07 3.07 0 0 1-1.071-.728 3.4 3.4 0 0 1-.7-1.19c-.168-.471-.252-1.013-.252-1.624 0-.495.074-.957.224-1.386.154-.43.373-.8.658-1.113.289-.32.645-.574 1.043-.742.41-.182.872-.273 1.386-.273.424 0 .816.072 1.176.217.364.14.676.345.938.616.266.266.473.597.623.994.149.392.224.84.224 1.344 0 .196-.021.327-.063.392-.042.065-.122.098-.238.098h-4.74c.015.448.075.838.183 1.169.112.331.266.609.462.833.196.22.429.385.7.497.27.107.574.161.91.161.312 0 .58-.035.805-.105.35-.111.685-.269.994-.469a.547.547 0 0 1 .287-.112c.102 0 .182.04.238.119l.35.455zm7.725-6.097v7.091h-1.246v-4.816c0-.093.005-.194.014-.301.01-.107.021-.215.035-.322-.042.093-.084.18-.126.259-.042.08-.086.152-.133.217l-3.423 4.655c-.056.08-.122.153-.196.217a.37.37 0 0 1-.252.098h-.756v-7.091h1.253v4.816c0 .089-.004.187-.014.294a7.53 7.53 0 0 1-.035.315c.042-.089.084-.17.126-.245a2.78 2.78 0 0 1 .126-.217l3.423-4.655a1.04 1.04 0 0 1 .196-.21.386.386 0 0 1 .259-.105h.749zm-2.961-1.715c.192 0 .353-.021.483-.063a.693.693 0 0 0 .315-.217.89.89 0 0 0 .182-.378c.038-.154.056-.343.056-.567h.728c.089 0 .157.04.203.119.047.08.07.166.07.259 0 .233-.046.443-.14.63a1.37 1.37 0 0 1-.406.483 1.87 1.87 0 0 1-.637.301 3.19 3.19 0 0 1-.854.105c-.317 0-.602-.035-.854-.105a1.964 1.964 0 0 1-.644-.301 1.426 1.426 0 0 1-.399-.483 1.394 1.394 0 0 1-.14-.63c0-.093.024-.18.07-.259a.224.224 0 0 1 .203-.119h.728c0 .224.019.413.056.567a.96.96 0 0 0 .175.378c.084.098.192.17.322.217.131.042.292.063.483.063zm9.866 2.975a.557.557 0 0 1-.112.119.251.251 0 0 1-.154.042.426.426 0 0 1-.231-.084 3.19 3.19 0 0 0-.315-.196 2.22 2.22 0 0 0-.455-.189 2.052 2.052 0 0 0-.658-.091c-.35 0-.658.063-.924.189-.266.121-.49.299-.672.532a2.508 2.508 0 0 0-.406.847 4.292 4.292 0 0 0-.133 1.113c0 .43.049.812.147 1.148.098.331.236.611.413.84.182.224.399.397.651.518.257.117.544.175.861.175.303 0 .553-.035.749-.105a2.21 2.21 0 0 0 .483-.245c.131-.089.238-.168.322-.238a.408.408 0 0 1 .259-.112c.103 0 .182.04.238.119l.35.455c-.15.188-.327.353-.525.49-.196.135-.408.25-.637.343-.224.089-.46.154-.707.196-.25.042-.503.063-.756.063-.443 0-.856-.082-1.239-.245a2.845 2.845 0 0 1-.987-.707 3.37 3.37 0 0 1-.658-1.148c-.159-.453-.238-.968-.238-1.547 0-.527.072-1.015.217-1.463.149-.448.364-.833.644-1.155a2.947 2.947 0 0 1 1.043-.763c.415-.182.891-.273 1.428-.273.499 0 .938.082 1.316.245a3.1 3.1 0 0 1 1.015.679l-.329.448zm4.474 4.921c.252 0 .469-.03.651-.091a1.32 1.32 0 0 0 .462-.266c.121-.117.212-.252.273-.406.06-.154.091-.322.091-.504 0-.168-.026-.324-.077-.469a.956.956 0 0 0-.259-.392 1.235 1.235 0 0 0-.462-.266 2.187 2.187 0 0 0-.7-.098h-1.512v2.492h1.533zm-.021-3.402c.49 0 .9.058 1.232.175.336.117.604.273.805.469.2.188.35.42.441.679a2.445 2.445 0 0 1-.035 1.68 1.922 1.922 0 0 1-.497.693 2.45 2.45 0 0 1-.812.455 3.52 3.52 0 0 1-1.113.161h-2.723v-7.091h1.19v2.779h1.512zm5.418-2.779v7.091h-1.246v-7.091h1.246z"/><path fill="none" stroke="#331A2F" stroke-opacity=".5" d="M260.5 12.205v80"/><path fill="#54618E" d="M85.193 60.451c-.764 0-1.646-.117-2.645-.35l-3.155-.861.86-2.581c1.785.637 3.273.956 4.462.956.638 0 1.169-.15 1.594-.447.425-.297.637-.7.637-1.21s-.138-.893-.414-1.148c-.276-.255-.786-.478-1.53-.669l-1.72-.446c-2.38-.616-3.57-2.019-3.57-4.207 0-1.317.5-2.4 1.498-3.25 1.02-.85 2.348-1.275 3.983-1.275.659 0 1.434.117 2.327.35l3.155.861-.86 2.581c-1.722-.637-3.028-.956-3.92-.956-.595 0-1.095.16-1.498.478-.404.298-.606.69-.606 1.18 0 .51.138.892.415 1.147.276.255.785.478 1.53.669l1.688.446c1.275.34 2.188.86 2.74 1.561.553.68.83 1.562.83 2.646 0 1.296-.49 2.379-1.467 3.25-.977.85-2.422 1.275-4.334 1.275zm13.63 0c-1.594 0-2.72-.393-3.378-1.18-.637-.785-.956-1.986-.956-3.6v-7.617H92.13V45.25h2.358v-3.729l4.047-.796v4.525h3.505v2.804h-3.505v7.68c0 1.254.51 1.88 1.53 1.88.616 0 1.274-.19 1.975-.573l.638 2.39c-1.169.68-2.454 1.02-3.856 1.02h.001zm9.923 0c-1.445 0-2.592-.446-3.442-1.339a4.461 4.461 0 0 1-1.275-3.186c0-.914.298-1.647.893-2.2.616-.573 1.572-1.02 2.868-1.338l5.13-1.275v-1.306c0-.616-.191-1.105-.573-1.466-.361-.361-.871-.542-1.53-.542-.744 0-2.422.563-5.035 1.69l-1.115-2.582 3.632-1.338c1.105-.404 1.913-.606 2.422-.606 1.934 0 3.453.51 4.558 1.53 1.126.998 1.689 2.315 1.689 3.951v5.482c0 .403.063 1.009.191 1.816.148.786.34 1.455.573 2.008l-3.473.7c-.425-.467-.871-1.115-1.339-1.943-1.423 1.296-2.815 1.944-4.174 1.944zm1.434-2.836c.828 0 1.742-.478 2.74-1.434v-3.22l-3.186.925c-1.02.297-1.53.86-1.53 1.689 0 .637.18 1.137.542 1.498.361.361.839.542 1.434.542zm15.205 2.836c-1.593 0-2.719-.393-3.378-1.18-.637-.785-.956-1.986-.956-3.6v-7.617h-2.358V45.25h2.358v-3.729l4.047-.796v4.525h3.506v2.804h-3.506v7.68c0 1.254.51 1.88 1.53 1.88.616 0 1.275-.19 1.976-.573l.637 2.39c-1.168.68-2.454 1.02-3.856 1.02zm45.009-.287h-4.047v-8.7c0-1.275-.191-2.199-.574-2.772-.361-.595-.945-.893-1.752-.893-.808 0-1.679.478-2.614 1.434v10.932h-4.047v-8.7c0-1.275-.18-2.199-.542-2.772-.361-.595-.956-.893-1.784-.893-.786 0-1.657.478-2.613 1.434v10.931h-4.048V49.488c0-.403-.074-.998-.223-1.784-.127-.808-.308-1.488-.541-2.04l3.441-.7c.446.445.903 1.093 1.371 1.943 1.338-1.296 2.73-1.944 4.174-1.944 2.146 0 3.601.754 4.366 2.263.468-.616 1.137-1.148 2.008-1.594.871-.446 1.742-.669 2.613-.669 1.615 0 2.815.467 3.601 1.402.807.935 1.211 2.39 1.211 4.366v9.433zm7.348.287c-1.445 0-2.592-.446-3.442-1.339a4.461 4.461 0 0 1-1.275-3.186c0-.914.298-1.647.893-2.2.616-.573 1.572-1.02 2.868-1.338l5.131-1.275v-1.306c0-.616-.192-1.105-.574-1.466-.361-.361-.871-.542-1.53-.542-.743 0-2.422.563-5.035 1.69l-1.115-2.582 3.633-1.338c1.104-.404 1.912-.606 2.422-.606 1.933 0 3.452.51 4.557 1.53 1.126.998 1.689 2.315 1.689 3.951v5.482c0 .403.063 1.009.191 1.816.149.786.34 1.455.574 2.008l-3.474.7c-.425-.467-.871-1.115-1.338-1.943-1.424 1.296-2.815 1.944-4.175 1.944zm1.434-2.836c.828 0 1.742-.478 2.741-1.434v-3.22l-3.187.925c-1.02.297-1.53.86-1.53 1.689 0 .637.181 1.137.542 1.498.361.361.839.542 1.434.542zm14.465 2.549h-4.047V49.488c0-.403-.075-.998-.223-1.784-.128-.808-.308-1.488-.542-2.04l3.442-.7c.658.658 1.115 1.55 1.37 2.676.425-.85.988-1.509 1.689-1.976.69-.457 1.499-.7 2.326-.7.468 0 .893.073 1.275.222l-.701 3.474h-1.052c-.998 0-1.784.244-2.358.733-.552.467-.945 1.253-1.179 2.358v8.413zm21.045 0h-4.972l-4.939-7.712v7.712h-4.048V38.876l4.048-.796v13.257l5.035-6.087h4.557l-5.991 6.66 6.31 8.254zm7.254.287c-2.401 0-4.217-.712-5.45-2.135-1.211-1.445-1.816-3.336-1.816-5.673s.627-4.196 1.88-5.577c1.254-1.402 2.996-2.103 5.226-2.103 4.313 0 6.47 2.241 6.47 6.724 0 .468-.054.86-.16 1.18h-9.241c0 1.593.286 2.782.86 3.569.595.785 1.413 1.179 2.454 1.179 1.168 0 2.698-.425 4.589-1.275l1.115 2.581-3.378 1.243c-.574.191-1.423.287-2.549.287zm-.383-12.652c-.85 0-1.519.298-2.007.893-.468.594-.701 1.338-.701 2.23h5.194c0-2.082-.829-3.123-2.486-3.123zm14.628 12.652c-1.593 0-2.719-.393-3.378-1.18-.637-.785-.956-1.986-.956-3.6v-7.617h-2.358V45.25h2.358v-3.729l4.048-.796v4.525h3.505v2.804h-3.505v7.68c0 1.254.509 1.88 1.529 1.88.616 0 1.275-.19 1.976-.573l.637 2.39c-1.168.68-2.453 1.02-3.856 1.02z"/><path fill="#D653D2" d="M143.753 60.164h-3.856v-4.908h-8.7l-.86-2.485 9.082-13.002h4.334v12.492h2.039v2.995h-2.039v4.908zm-3.856-7.903v-8.286l-5.641 8.286h5.641z"/><linearGradient id="a" gradientUnits="userSpaceOnUse" x1="41.587" y1="110.429" x2="24.284" y2="58.944" gradientTransform="matrix(1 0 0 -1 0 91.875)"><stop offset="0" stop-color="#f0a"/><stop offset="1" stop-color="#8912de"/></linearGradient><ellipse fill="url(#a)" cx="30.208" cy="15.303" rx="30.208" ry="15.303"/><path fill="#FFF" d="M59.228 19.551H43.619V1.591a49.68 49.68 0 0 0-3.595-.76c-.055.292-.111.58-.166.861-.03.306-.045.589-.045.849V19.55H12.31L39.942.817a54.465 54.465 0 0 0-3.515-.49L7.551 19.663l.408 1.08c.09.168.256.306.498.413.242.092.589.137 1.042.137h30.314v8.517a49.815 49.815 0 0 0 3.806-.796v-7.721h14.392c.475-.564.877-1.147 1.217-1.743z"/></svg>