<svg width="470" height="93" viewBox="0 0 470 93" fill="none" xmlns="http://www.w3.org/2000/svg">
    <path d="M294.408 29.969V40h-1.358v-4.564h-5.411V40h-1.358V29.969h1.358v4.473h5.411v-4.473h1.358ZM300.316 36.808c-.574.019-1.064.065-1.47.14-.401.07-.73.163-.987.28-.252.117-.436.254-.553.413a.901.901 0 0 0-.168.532c0 .187.031.348.091.483a.962.962 0 0 0 .245.336c.108.084.231.147.371.189.145.037.299.056.462.056.22 0 .42-.021.602-.063a2.652 2.652 0 0 0 .973-.497c.15-.117.294-.25.434-.399v-1.47Zm-4.025-2.898c.392-.378.815-.66 1.267-.847.453-.187.955-.28 1.505-.28.397 0 .749.065 1.057.196.308.13.567.313.777.546.21.233.369.516.476.847.108.331.161.695.161 1.092V40h-.553a.574.574 0 0 1-.28-.056c-.065-.042-.116-.121-.154-.238l-.14-.672a7.29 7.29 0 0 1-.546.462c-.177.13-.364.243-.56.336a3.016 3.016 0 0 1-.63.203 3.23 3.23 0 0 1-.735.077 2.63 2.63 0 0 1-.777-.112 1.883 1.883 0 0 1-.637-.35 1.708 1.708 0 0 1-.427-.581 2.12 2.12 0 0 1-.154-.84c0-.28.077-.548.231-.805.154-.261.404-.492.749-.693.346-.2.796-.364 1.351-.49.556-.13 1.237-.205 2.044-.224v-.553c0-.55-.119-.966-.357-1.246-.238-.285-.585-.427-1.043-.427-.308 0-.567.04-.777.119a2.769 2.769 0 0 0-.539.259c-.149.093-.28.18-.392.259a.558.558 0 0 1-.322.112.372.372 0 0 1-.217-.063.675.675 0 0 1-.154-.168l-.224-.399ZM308.318 39.09v-5.201h-2.247a22.873 22.873 0 0 1-.196 1.932c-.084.56-.182 1.052-.294 1.477-.107.42-.228.777-.364 1.071a3.46 3.46 0 0 1-.413.721h3.514Zm2.506-.035v3.003c0 .121-.035.215-.105.28a.336.336 0 0 1-.259.105h-.763V40h-5.964v2.086a.4.4 0 0 1-.084.245c-.051.075-.137.112-.259.112h-.784V39.09h.231c.164 0 .325-.028.483-.084a1.2 1.2 0 0 0 .469-.315c.15-.159.29-.38.42-.665.136-.285.257-.656.364-1.113.108-.457.201-1.013.28-1.666.08-.658.143-1.437.189-2.338h4.487v6.146h1.295ZM316.71 35.681c0-.29-.042-.553-.126-.791a1.695 1.695 0 0 0-.357-.623 1.507 1.507 0 0 0-.567-.406 1.888 1.888 0 0 0-.763-.147c-.598 0-1.071.175-1.421.525-.346.345-.56.826-.644 1.442h3.878Zm1.008 3.325c-.154.187-.339.35-.553.49a3.548 3.548 0 0 1-.693.336 4.098 4.098 0 0 1-.756.196c-.262.047-.521.07-.777.07-.49 0-.943-.082-1.358-.245a3.07 3.07 0 0 1-1.071-.728 3.4 3.4 0 0 1-.7-1.19c-.168-.471-.252-1.013-.252-1.624 0-.495.074-.957.224-1.386.154-.43.373-.8.658-1.113a2.944 2.944 0 0 1 1.043-.742c.41-.182.872-.273 1.386-.273.424 0 .816.072 1.176.217.364.14.676.345.938.616.266.266.473.597.623.994.149.392.224.84.224 1.344 0 .196-.021.327-.063.392-.042.065-.122.098-.238.098h-4.739c.014.448.074.838.182 1.169.112.331.266.609.462.833.196.22.429.385.7.497.27.107.574.161.91.161.312 0 .581-.035.805-.105a4.099 4.099 0 0 0 .994-.469.547.547 0 0 1 .287-.112c.102 0 .182.04.238.119l.35.455ZM329.175 40h-.868c-.224 0-.396-.035-.518-.105a.699.699 0 0 1-.273-.329l-1.379-2.205a1.097 1.097 0 0 0-.987-.546h-.714v3.192h-1.211v-3.192h-.707c-.21 0-.401.047-.574.14a1.115 1.115 0 0 0-.413.406l-1.379 2.205a.712.712 0 0 1-.287.329c-.116.07-.287.105-.511.105h-.861l1.862-2.933c.122-.205.259-.371.413-.497.154-.126.343-.222.567-.287a1.296 1.296 0 0 1-.455-.245 2.08 2.08 0 0 1-.343-.427l-1.848-2.702h.98c.122 0 .231.033.329.098.098.06.175.145.231.252l1.505 2.24c.103.154.227.273.371.357.145.08.315.119.511.119h.609v-3.066h1.211v3.066h.595c.397 0 .696-.159.896-.476l1.505-2.24a.635.635 0 0 1 .567-.35h.98l-1.848 2.702a1.917 1.917 0 0 1-.35.427c-.121.107-.27.189-.448.245.224.065.413.161.567.287.154.126.292.292.413.497L329.175 40ZM336.247 32.909V40h-1.253v-3.318h-3.402V40h-1.253v-7.091h1.253v2.828h3.402v-2.828h1.253ZM340.95 39.09c.252 0 .469-.03.651-.091.187-.065.341-.154.462-.266.122-.117.213-.252.273-.406.061-.154.091-.322.091-.504 0-.168-.025-.324-.077-.469a.937.937 0 0 0-.259-.392c-.116-.112-.27-.2-.462-.266a2.179 2.179 0 0 0-.7-.098h-1.512v2.492h1.533Zm-.021-3.402c.49 0 .901.058 1.232.175.336.117.605.273.805.469.206.196.353.422.441.679.089.257.133.523.133.798 0 .317-.056.611-.168.882a1.91 1.91 0 0 1-.497.693c-.219.191-.49.343-.812.455a3.519 3.519 0 0 1-1.113.161h-2.723v-7.091h1.19v2.779h1.512Zm5.418-2.779V40h-1.246v-7.091h1.246ZM354.414 32.909V40h-1.246v-4.816c0-.093.004-.194.014-.301.009-.107.021-.215.035-.322-.042.093-.084.18-.126.259-.042.08-.087.152-.133.217l-3.423 4.655a1.232 1.232 0 0 1-.196.217.374.374 0 0 1-.252.098h-.756v-7.091h1.253v4.816c0 .089-.005.187-.014.294-.01.103-.021.208-.035.315.042-.089.084-.17.126-.245.042-.08.084-.152.126-.217l3.423-4.655a1 1 0 0 1 .196-.21.382.382 0 0 1 .259-.105h.749Zm-2.961-1.715c.191 0 .352-.021.483-.063a.704.704 0 0 0 .315-.217.902.902 0 0 0 .182-.378c.037-.154.056-.343.056-.567h.728c.088 0 .156.04.203.119.046.08.07.166.07.259 0 .233-.047.443-.14.63a1.391 1.391 0 0 1-.406.483 1.88 1.88 0 0 1-.637.301c-.252.07-.537.105-.854.105a3.19 3.19 0 0 1-.854-.105 1.954 1.954 0 0 1-.644-.301 1.403 1.403 0 0 1-.399-.483 1.38 1.38 0 0 1-.14-.63c0-.093.023-.18.07-.259a.222.222 0 0 1 .203-.119h.728c0 .224.018.413.056.567.037.154.095.28.175.378.084.098.191.17.322.217.13.042.291.063.483.063ZM364.901 34.169a.583.583 0 0 1-.112.119.254.254 0 0 1-.154.042.426.426 0 0 1-.231-.084 3.191 3.191 0 0 0-.315-.196 2.245 2.245 0 0 0-.455-.189 2.056 2.056 0 0 0-.658-.091c-.35 0-.658.063-.924.189-.266.121-.49.299-.672.532a2.49 2.49 0 0 0-.406.847 4.292 4.292 0 0 0-.133 1.113c0 .43.049.812.147 1.148.098.331.235.611.413.84.182.224.399.397.651.518.256.117.543.175.861.175.303 0 .553-.035.749-.105a2.21 2.21 0 0 0 .483-.245 4.31 4.31 0 0 0 .322-.238.406.406 0 0 1 .259-.112c.102 0 .182.04.238.119l.35.455a2.483 2.483 0 0 1-.525.49c-.196.135-.409.25-.637.343-.224.089-.46.154-.707.196a4.52 4.52 0 0 1-.756.063c-.444 0-.857-.082-1.239-.245a2.845 2.845 0 0 1-.987-.707c-.28-.313-.5-.695-.658-1.148-.159-.453-.238-.968-.238-1.547 0-.527.072-1.015.217-1.463.149-.448.364-.833.644-1.155a2.938 2.938 0 0 1 1.043-.763c.415-.182.891-.273 1.428-.273.499 0 .938.082 1.316.245a3.11 3.11 0 0 1 1.015.679l-.329.448ZM371.274 35.681c0-.29-.042-.553-.126-.791a1.668 1.668 0 0 0-.357-.623 1.507 1.507 0 0 0-.567-.406 1.885 1.885 0 0 0-.763-.147c-.597 0-1.071.175-1.421.525-.345.345-.56.826-.644 1.442h3.878Zm1.008 3.325c-.154.187-.338.35-.553.49a3.548 3.548 0 0 1-.693.336 4.098 4.098 0 0 1-.756.196c-.261.047-.52.07-.777.07-.49 0-.943-.082-1.358-.245a3.07 3.07 0 0 1-1.071-.728 3.4 3.4 0 0 1-.7-1.19c-.168-.471-.252-1.013-.252-1.624 0-.495.075-.957.224-1.386.154-.43.373-.8.658-1.113a2.953 2.953 0 0 1 1.043-.742 3.388 3.388 0 0 1 1.386-.273c.425 0 .817.072 1.176.217.364.14.677.345.938.616.266.266.474.597.623.994.149.392.224.84.224 1.344 0 .196-.021.327-.063.392-.042.065-.121.098-.238.098h-4.739c.014.448.075.838.182 1.169.112.331.266.609.462.833.196.22.429.385.7.497.271.107.574.161.91.161.313 0 .581-.035.805-.105a4.005 4.005 0 0 0 .994-.469.55.55 0 0 1 .287-.112c.103 0 .182.04.238.119l.35.455ZM375.178 38.292c.228.308.478.525.749.651.27.126.574.189.91.189.662 0 1.171-.236 1.526-.707.354-.471.532-1.143.532-2.016 0-.462-.042-.859-.126-1.19a2.258 2.258 0 0 0-.35-.812 1.366 1.366 0 0 0-.567-.469 1.888 1.888 0 0 0-.763-.147c-.406 0-.763.093-1.071.28a3.08 3.08 0 0 0-.84.791v3.43Zm-.063-4.284a3.664 3.664 0 0 1 1.036-.889 2.66 2.66 0 0 1 1.344-.336c.41 0 .781.08 1.113.238.331.154.613.385.847.693.233.303.413.681.539 1.134.126.453.189.973.189 1.561 0 .523-.07 1.01-.21 1.463-.14.448-.343.838-.609 1.169a2.869 2.869 0 0 1-.966.777c-.378.187-.805.28-1.281.28-.434 0-.808-.072-1.12-.217a2.685 2.685 0 0 1-.819-.616v3.136h-1.253v-9.492h.749c.177 0 .287.086.329.259l.112.84ZM384.482 39.125c.466 0 .835-.107 1.106-.322.27-.22.406-.518.406-.896 0-.168-.026-.32-.077-.455a.898.898 0 0 0-.252-.364 1.2 1.2 0 0 0-.469-.238 2.554 2.554 0 0 0-.707-.084h-1.533v2.359h1.526Zm-1.526-5.376v2.226h1.365c.205 0 .394-.028.567-.084.177-.06.329-.142.455-.245a1.15 1.15 0 0 0 .294-.378 1.14 1.14 0 0 0 .035-.868.778.778 0 0 0-.238-.329 1.194 1.194 0 0 0-.441-.231 2.145 2.145 0 0 0-.672-.091h-1.365Zm1.4-.84c.438 0 .814.044 1.127.133.312.089.569.21.77.364.2.15.347.327.441.532.093.205.14.425.14.658 0 .154-.021.315-.063.483a1.598 1.598 0 0 1-.651.903 2.143 2.143 0 0 1-.672.287c.541.093.959.282 1.253.567.294.28.441.651.441 1.113 0 .345-.07.646-.21.903a1.862 1.862 0 0 1-.567.637 2.48 2.48 0 0 1-.84.385 4.096 4.096 0 0 1-1.036.126h-2.73v-7.091h2.597ZM394.787 32.909V40h-1.246v-4.816c0-.093.005-.194.014-.301.009-.107.021-.215.035-.322-.042.093-.084.18-.126.259-.042.08-.086.152-.133.217l-3.423 4.655a1.194 1.194 0 0 1-.196.217.374.374 0 0 1-.252.098h-.756v-7.091h1.253v4.816c0 .089-.005.187-.014.294a7.505 7.505 0 0 1-.035.315c.042-.089.084-.17.126-.245.042-.08.084-.152.126-.217l3.423-4.655c.051-.075.117-.145.196-.21a.384.384 0 0 1 .259-.105h.749ZM401.692 34.169a.583.583 0 0 1-.112.119.254.254 0 0 1-.154.042.426.426 0 0 1-.231-.084 3.191 3.191 0 0 0-.315-.196 2.245 2.245 0 0 0-.455-.189 2.056 2.056 0 0 0-.658-.091c-.35 0-.658.063-.924.189-.266.121-.49.299-.672.532a2.49 2.49 0 0 0-.406.847 4.292 4.292 0 0 0-.133 1.113c0 .43.049.812.147 1.148.098.331.235.611.413.84.182.224.399.397.651.518.256.117.543.175.861.175.303 0 .553-.035.749-.105a2.21 2.21 0 0 0 .483-.245 4.31 4.31 0 0 0 .322-.238.406.406 0 0 1 .259-.112c.102 0 .182.04.238.119l.35.455a2.483 2.483 0 0 1-.525.49c-.196.135-.409.25-.637.343-.224.089-.46.154-.707.196a4.52 4.52 0 0 1-.756.063c-.444 0-.857-.082-1.239-.245a2.845 2.845 0 0 1-.987-.707c-.28-.313-.5-.695-.658-1.148-.159-.453-.238-.968-.238-1.547 0-.527.072-1.015.217-1.463.149-.448.364-.833.644-1.155a2.938 2.938 0 0 1 1.043-.763c.415-.182.891-.273 1.428-.273.499 0 .938.082 1.316.245a3.11 3.11 0 0 1 1.015.679l-.329.448ZM289.83 54.808c-.574.019-1.064.065-1.47.14-.401.07-.73.163-.987.28-.252.117-.436.254-.553.413a.901.901 0 0 0-.168.532c0 .187.03.348.091.483a.95.95 0 0 0 .245.336c.107.084.231.147.371.189.145.037.299.056.462.056.219 0 .42-.021.602-.063.182-.047.352-.112.511-.196a2.73 2.73 0 0 0 .462-.301c.149-.117.294-.25.434-.399v-1.47Zm-4.025-2.898c.392-.378.814-.66 1.267-.847.453-.187.954-.28 1.505-.28.397 0 .749.065 1.057.196.308.13.567.313.777.546.21.233.369.516.476.847.107.331.161.695.161 1.092V58h-.553a.572.572 0 0 1-.28-.056c-.065-.042-.117-.121-.154-.238l-.14-.672a7.714 7.714 0 0 1-.546.462c-.177.13-.364.243-.56.336a3.016 3.016 0 0 1-.63.203 3.23 3.23 0 0 1-.735.077 2.63 2.63 0 0 1-.777-.112 1.874 1.874 0 0 1-.637-.35 1.695 1.695 0 0 1-.427-.581 2.103 2.103 0 0 1-.154-.84c0-.28.077-.548.231-.805.154-.261.404-.492.749-.693.345-.2.796-.364 1.351-.49.555-.13 1.237-.205 2.044-.224v-.553c0-.55-.119-.966-.357-1.246-.238-.285-.586-.427-1.043-.427-.308 0-.567.04-.777.119a2.769 2.769 0 0 0-.539.259c-.149.093-.28.18-.392.259a.56.56 0 0 1-.322.112.372.372 0 0 1-.217-.063.656.656 0 0 1-.154-.168l-.224-.399ZM298.854 50.909V58h-1.253v-3.318h-3.402V58h-1.253v-7.091h1.253v2.828h3.402v-2.828h1.253ZM304.678 54.808c-.574.019-1.064.065-1.47.14-.402.07-.731.163-.987.28-.252.117-.437.254-.553.413a.901.901 0 0 0-.168.532c0 .187.03.348.091.483.06.135.142.247.245.336.107.084.231.147.371.189.144.037.298.056.462.056.219 0 .42-.021.602-.063.182-.047.352-.112.511-.196a2.73 2.73 0 0 0 .462-.301c.149-.117.294-.25.434-.399v-1.47Zm-4.025-2.898c.392-.378.814-.66 1.267-.847.452-.187.954-.28 1.505-.28.396 0 .749.065 1.057.196.308.13.567.313.777.546.21.233.368.516.476.847.107.331.161.695.161 1.092V58h-.553a.57.57 0 0 1-.28-.056c-.066-.042-.117-.121-.154-.238l-.14-.672a7.714 7.714 0 0 1-.546.462c-.178.13-.364.243-.56.336a3.016 3.016 0 0 1-.63.203c-.22.051-.465.077-.735.077a2.62 2.62 0 0 1-.777-.112 1.874 1.874 0 0 1-.637-.35 1.682 1.682 0 0 1-.427-.581 2.103 2.103 0 0 1-.154-.84c0-.28.077-.548.231-.805.154-.261.403-.492.749-.693.345-.2.795-.364 1.351-.49.555-.13 1.236-.205 2.044-.224v-.553c0-.55-.119-.966-.357-1.246-.238-.285-.586-.427-1.043-.427-.308 0-.567.04-.777.119a2.741 2.741 0 0 0-.539.259c-.15.093-.28.18-.392.259a.563.563 0 0 1-.322.112.37.37 0 0 1-.217-.063.656.656 0 0 1-.154-.168l-.224-.399ZM314.01 58h-1.246v-6.111h-2.24c-.056.9-.14 1.68-.252 2.338a10.952 10.952 0 0 1-.406 1.673c-.154.457-.329.83-.525 1.12a2.683 2.683 0 0 1-.609.665c-.21.159-.43.266-.658.322a2.762 2.762 0 0 1-.672.084c-.397 0-.595-.063-.595-.189v-.791h.364c.158 0 .319-.028.483-.084.163-.056.322-.163.476-.322.158-.159.31-.38.455-.665a5.76 5.76 0 0 0 .392-1.12c.121-.462.224-1.02.308-1.673.088-.658.156-1.437.203-2.338h4.522V58ZM322.066 50.909V58h-1.246v-4.816c0-.093.005-.194.014-.301.01-.107.021-.215.035-.322-.042.093-.084.18-.126.259-.042.08-.086.152-.133.217l-3.423 4.655a1.158 1.158 0 0 1-.196.217.37.37 0 0 1-.252.098h-.756v-7.091h1.253v4.816c0 .089-.004.187-.014.294a7.505 7.505 0 0 1-.035.315c.042-.089.084-.17.126-.245.042-.08.084-.152.126-.217l3.423-4.655c.052-.075.117-.145.196-.21a.386.386 0 0 1 .259-.105h.749ZM329.93 51.861h-2.723V58h-1.246v-6.139h-2.723v-.952h6.692v.952ZM337.201 50.909V58h-1.246v-4.816c0-.093.005-.194.014-.301.009-.107.021-.215.035-.322-.042.093-.084.18-.126.259-.042.08-.086.152-.133.217l-3.423 4.655a1.194 1.194 0 0 1-.196.217.374.374 0 0 1-.252.098h-.756v-7.091h1.253v4.816c0 .089-.005.187-.014.294a7.505 7.505 0 0 1-.035.315c.042-.089.084-.17.126-.245.042-.08.084-.152.126-.217l3.423-4.655c.051-.075.117-.145.196-.21a.384.384 0 0 1 .259-.105h.749ZM343.476 51.259a.777.777 0 0 1 .259-.252.646.646 0 0 1 .343-.098h.973l-1.841 2.702a2.238 2.238 0 0 1-.35.427 1.314 1.314 0 0 1-.448.252c.224.06.413.156.567.287.154.126.291.29.413.49L345.254 58h-.868c-.224 0-.397-.037-.518-.112a.978.978 0 0 1-.315-.322l-1.379-2.205c-.22-.364-.549-.546-.987-.546h-.763v3.192h-1.253v-7.098h1.253v3.066h.672a.994.994 0 0 0 .875-.476l1.505-2.24ZM352.5 50.909V58h-1.246v-4.816c0-.093.004-.194.014-.301.009-.107.021-.215.035-.322-.042.093-.084.18-.126.259-.042.08-.087.152-.133.217l-3.423 4.655a1.232 1.232 0 0 1-.196.217.374.374 0 0 1-.252.098h-.756v-7.091h1.253v4.816c0 .089-.005.187-.014.294-.01.103-.021.208-.035.315.042-.089.084-.17.126-.245.042-.08.084-.152.126-.217l3.423-4.655a1 1 0 0 1 .196-.21.382.382 0 0 1 .259-.105h.749ZM362.938 57.09v-5.201h-2.247a23.296 23.296 0 0 1-.196 1.932c-.084.56-.182 1.052-.294 1.477a6.43 6.43 0 0 1-.364 1.071 3.552 3.552 0 0 1-.413.721h3.514Zm2.506-.035v3.003c0 .121-.035.215-.105.28a.34.34 0 0 1-.259.105h-.763V58h-5.964v2.086a.4.4 0 0 1-.084.245c-.052.075-.138.112-.259.112h-.784V57.09h.231c.163 0 .324-.028.483-.084.163-.056.319-.161.469-.315.149-.159.289-.38.42-.665a5.72 5.72 0 0 0 .364-1.113c.107-.457.2-1.013.28-1.666.079-.658.142-1.437.189-2.338h4.487v6.146h1.295ZM372.922 58h-1.246v-6.111h-2.24c-.056.9-.14 1.68-.252 2.338a10.952 10.952 0 0 1-.406 1.673c-.154.457-.329.83-.525 1.12a2.683 2.683 0 0 1-.609.665c-.21.159-.43.266-.658.322a2.762 2.762 0 0 1-.672.084c-.397 0-.595-.063-.595-.189v-.791h.364c.158 0 .319-.028.483-.084.163-.056.322-.163.476-.322.158-.159.31-.38.455-.665a5.76 5.76 0 0 0 .392-1.12c.121-.462.224-1.02.308-1.673.088-.658.156-1.437.203-2.338h4.522V58ZM378.626 54.22v-2.471h-1.19c-.266 0-.49.04-.672.119a1.219 1.219 0 0 0-.441.294 1.05 1.05 0 0 0-.231.399c-.046.145-.07.29-.07.434 0 .383.14.684.42.903.28.215.663.322 1.148.322h1.036Zm1.19-3.311V58h-1.19v-2.989h-.546c-.13 0-.24.012-.329.035a.807.807 0 0 0-.224.084.613.613 0 0 0-.161.147 3.108 3.108 0 0 0-.147.196l-1.554 2.093a.812.812 0 0 1-.294.329c-.112.07-.277.105-.497.105h-.868l2.058-2.674c.168-.28.39-.467.665-.56a2.933 2.933 0 0 1-.91-.252 2.183 2.183 0 0 1-.609-.427 1.588 1.588 0 0 1-.336-.553c-.07-.2-.105-.404-.105-.609 0-.243.047-.485.14-.728.098-.243.252-.457.462-.644a2.35 2.35 0 0 1 .812-.462c.336-.121.742-.182 1.218-.182h2.415ZM391.29 58h-1.253v-6.139h-3.402V58h-1.253v-7.091h5.908V58ZM396.259 50.797c.518 0 .985.086 1.4.259.416.173.77.418 1.064.735.294.317.518.702.672 1.155.159.448.238.95.238 1.505a4.5 4.5 0 0 1-.238 1.512 3.19 3.19 0 0 1-.672 1.148 2.995 2.995 0 0 1-1.064.735 3.703 3.703 0 0 1-1.4.252 3.78 3.78 0 0 1-1.414-.252 3.004 3.004 0 0 1-1.064-.735c-.294-.317-.52-.7-.679-1.148a4.634 4.634 0 0 1-.231-1.512c0-.555.077-1.057.231-1.505.159-.453.385-.838.679-1.155a3.004 3.004 0 0 1 1.064-.735 3.69 3.69 0 0 1 1.414-.259Zm0 6.328c.7 0 1.223-.233 1.568-.7.346-.471.518-1.127.518-1.967 0-.845-.172-1.503-.518-1.974-.345-.471-.868-.707-1.568-.707-.354 0-.665.06-.931.182-.261.121-.48.296-.658.525a2.428 2.428 0 0 0-.392.847 4.598 4.598 0 0 0-.126 1.127c0 .84.173 1.496.518 1.967.35.467.88.7 1.589.7ZM406.149 52.169a.583.583 0 0 1-.112.119.254.254 0 0 1-.154.042.426.426 0 0 1-.231-.084 3.191 3.191 0 0 0-.315-.196 2.245 2.245 0 0 0-.455-.189 2.056 2.056 0 0 0-.658-.091c-.35 0-.658.063-.924.189-.266.121-.49.299-.672.532a2.49 2.49 0 0 0-.406.847 4.292 4.292 0 0 0-.133 1.113c0 .43.049.812.147 1.148.098.331.235.611.413.84.182.224.399.397.651.518.256.117.543.175.861.175.303 0 .553-.035.749-.105a2.21 2.21 0 0 0 .483-.245 4.31 4.31 0 0 0 .322-.238.406.406 0 0 1 .259-.112c.102 0 .182.04.238.119l.35.455a2.483 2.483 0 0 1-.525.49c-.196.135-.409.25-.637.343-.224.089-.46.154-.707.196a4.52 4.52 0 0 1-.756.063c-.444 0-.857-.082-1.239-.245a2.845 2.845 0 0 1-.987-.707c-.28-.313-.5-.695-.658-1.148-.159-.453-.238-.968-.238-1.547 0-.527.072-1.015.217-1.463.149-.448.364-.833.644-1.155a2.938 2.938 0 0 1 1.043-.763c.415-.182.891-.273 1.428-.273.499 0 .938.082 1.316.245a3.11 3.11 0 0 1 1.015.679l-.329.448ZM413.793 51.861h-2.723V58h-1.246v-6.139h-2.723v-.952h6.692v.952ZM418.756 54.808c-.574.019-1.064.065-1.47.14-.401.07-.73.163-.987.28-.252.117-.436.254-.553.413a.901.901 0 0 0-.168.532c0 .187.03.348.091.483a.95.95 0 0 0 .245.336c.107.084.231.147.371.189.145.037.299.056.462.056.219 0 .42-.021.602-.063.182-.047.352-.112.511-.196a2.73 2.73 0 0 0 .462-.301c.149-.117.294-.25.434-.399v-1.47Zm-4.025-2.898c.392-.378.814-.66 1.267-.847.453-.187.954-.28 1.505-.28.397 0 .749.065 1.057.196.308.13.567.313.777.546.21.233.369.516.476.847.107.331.161.695.161 1.092V58h-.553a.572.572 0 0 1-.28-.056c-.065-.042-.117-.121-.154-.238l-.14-.672a7.714 7.714 0 0 1-.546.462c-.177.13-.364.243-.56.336a3.016 3.016 0 0 1-.63.203 3.23 3.23 0 0 1-.735.077 2.63 2.63 0 0 1-.777-.112 1.874 1.874 0 0 1-.637-.35 1.695 1.695 0 0 1-.427-.581 2.103 2.103 0 0 1-.154-.84c0-.28.077-.548.231-.805.154-.261.404-.492.749-.693.345-.2.796-.364 1.351-.49.555-.13 1.237-.205 2.044-.224v-.553c0-.55-.119-.966-.357-1.246-.238-.285-.586-.427-1.043-.427-.308 0-.567.04-.777.119a2.769 2.769 0 0 0-.539.259c-.149.093-.28.18-.392.259a.56.56 0 0 1-.322.112.372.372 0 0 1-.217-.063.656.656 0 0 1-.154-.168l-.224-.399ZM424.595 57.125c.467 0 .835-.107 1.106-.322.271-.22.406-.518.406-.896 0-.168-.026-.32-.077-.455a.88.88 0 0 0-.252-.364 1.2 1.2 0 0 0-.469-.238 2.55 2.55 0 0 0-.707-.084h-1.533v2.359h1.526Zm-1.526-5.376v2.226h1.365c.205 0 .394-.028.567-.084.177-.06.329-.142.455-.245a1.15 1.15 0 0 0 .294-.378 1.14 1.14 0 0 0 .035-.868.778.778 0 0 0-.238-.329 1.194 1.194 0 0 0-.441-.231 2.145 2.145 0 0 0-.672-.091h-1.365Zm1.4-.84c.439 0 .814.044 1.127.133.313.089.569.21.77.364.201.15.348.327.441.532.093.205.14.425.14.658 0 .154-.021.315-.063.483a1.598 1.598 0 0 1-.651.903 2.123 2.123 0 0 1-.672.287c.541.093.959.282 1.253.567.294.28.441.651.441 1.113 0 .345-.07.646-.21.903a1.842 1.842 0 0 1-.567.637 2.48 2.48 0 0 1-.84.385 4.09 4.09 0 0 1-1.036.126h-2.73v-7.091h2.597ZM439.66 57.055v3.003c0 .121-.035.215-.105.28a.338.338 0 0 1-.259.105h-.77V58h-9.709v-7.091h1.253v6.146h2.891v-6.146h1.253v6.146h2.891v-6.146h1.253v6.146h1.302ZM447 50.909V58h-1.246v-4.816c0-.093.004-.194.014-.301.009-.107.021-.215.035-.322-.042.093-.084.18-.126.259-.042.08-.087.152-.133.217l-3.423 4.655a1.232 1.232 0 0 1-.196.217.374.374 0 0 1-.252.098h-.756v-7.091h1.253v4.816c0 .089-.005.187-.014.294-.01.103-.021.208-.035.315.042-.089.084-.17.126-.245.042-.08.084-.152.126-.217l3.423-4.655a1 1 0 0 1 .196-.21.382.382 0 0 1 .259-.105H447ZM453.275 51.259a.783.783 0 0 1 .258-.252.652.652 0 0 1 .343-.098h.974l-1.842 2.702a2.2 2.2 0 0 1-.35.427c-.121.107-.27.191-.448.252.224.06.413.156.567.287.154.126.292.29.413.49L455.053 58h-.869c-.224 0-.396-.037-.517-.112a.978.978 0 0 1-.315-.322l-1.379-2.205c-.22-.364-.549-.546-.987-.546h-.763v3.192h-1.254v-7.098h1.254v3.066h.672a.994.994 0 0 0 .875-.476l1.505-2.24ZM458.931 50.797c.518 0 .985.086 1.4.259.415.173.77.418 1.064.735.294.317.518.702.672 1.155.159.448.238.95.238 1.505a4.5 4.5 0 0 1-.238 1.512 3.19 3.19 0 0 1-.672 1.148 3.004 3.004 0 0 1-1.064.735 3.703 3.703 0 0 1-1.4.252c-.523 0-.994-.084-1.414-.252a3.004 3.004 0 0 1-1.064-.735c-.294-.317-.52-.7-.679-1.148a4.634 4.634 0 0 1-.231-1.512c0-.555.077-1.057.231-1.505.159-.453.385-.838.679-1.155a3.004 3.004 0 0 1 1.064-.735c.42-.173.891-.259 1.414-.259Zm0 6.328c.7 0 1.223-.233 1.568-.7.345-.471.518-1.127.518-1.967 0-.845-.173-1.503-.518-1.974-.345-.471-.868-.707-1.568-.707-.355 0-.665.06-.931.182a1.758 1.758 0 0 0-.658.525 2.41 2.41 0 0 0-.392.847 4.598 4.598 0 0 0-.126 1.127c0 .84.173 1.496.518 1.967.35.467.88.7 1.589.7ZM466.609 57.125c.466 0 .835-.107 1.106-.322.27-.22.406-.518.406-.896 0-.168-.026-.32-.077-.455a.898.898 0 0 0-.252-.364 1.2 1.2 0 0 0-.469-.238 2.554 2.554 0 0 0-.707-.084h-1.533v2.359h1.526Zm-1.526-5.376v2.226h1.365c.205 0 .394-.028.567-.084.177-.06.329-.142.455-.245a1.15 1.15 0 0 0 .294-.378 1.14 1.14 0 0 0 .035-.868.778.778 0 0 0-.238-.329 1.194 1.194 0 0 0-.441-.231 2.145 2.145 0 0 0-.672-.091h-1.365Zm1.4-.84c.438 0 .814.044 1.127.133.312.089.569.21.77.364.2.15.347.327.441.532.093.205.14.425.14.658 0 .154-.021.315-.063.483a1.598 1.598 0 0 1-.651.903 2.143 2.143 0 0 1-.672.287c.541.093.959.282 1.253.567.294.28.441.651.441 1.113 0 .345-.07.646-.21.903a1.862 1.862 0 0 1-.567.637 2.48 2.48 0 0 1-.84.385 4.096 4.096 0 0 1-1.036.126h-2.73v-7.091h2.597ZM291.895 68.909V76h-1.253v-3.318h-3.402V76h-1.253v-7.091h1.253v2.828h3.402v-2.828h1.253ZM297.719 72.808c-.574.019-1.064.065-1.47.14-.402.07-.731.163-.987.28-.252.117-.437.254-.553.413a.901.901 0 0 0-.168.532c0 .187.03.348.091.483.06.135.142.247.245.336.107.084.231.147.371.189.144.037.298.056.462.056.219 0 .42-.021.602-.063.182-.047.352-.112.511-.196a2.73 2.73 0 0 0 .462-.301c.149-.117.294-.25.434-.399v-1.47Zm-4.025-2.898c.392-.378.814-.66 1.267-.847.452-.187.954-.28 1.505-.28.396 0 .749.065 1.057.196.308.13.567.313.777.546.21.233.368.516.476.847.107.331.161.695.161 1.092V76h-.553a.57.57 0 0 1-.28-.056c-.066-.042-.117-.121-.154-.238l-.14-.672a7.714 7.714 0 0 1-.546.462c-.178.13-.364.243-.56.336a3.016 3.016 0 0 1-.63.203c-.22.051-.465.077-.735.077a2.62 2.62 0 0 1-.777-.112 1.874 1.874 0 0 1-.637-.35 1.682 1.682 0 0 1-.427-.581 2.103 2.103 0 0 1-.154-.84c0-.28.077-.548.231-.805.154-.261.403-.492.749-.693.345-.2.795-.364 1.351-.49.555-.13 1.236-.205 2.044-.224v-.553c0-.55-.119-.966-.357-1.246-.238-.285-.586-.427-1.043-.427-.308 0-.567.04-.777.119a2.741 2.741 0 0 0-.539.259c-.15.093-.28.18-.392.259a.563.563 0 0 1-.322.112.37.37 0 0 1-.217-.063.656.656 0 0 1-.154-.168l-.224-.399ZM312.32 68.888V76h-1.127v-4.711c0-.13.007-.275.021-.434.018-.163.042-.315.07-.455l-2.464 4.319a.481.481 0 0 1-.147.168.361.361 0 0 1-.21.063h-.14a.39.39 0 0 1-.217-.063.462.462 0 0 1-.147-.168l-2.506-4.333c.023.14.044.294.063.462.018.163.028.31.028.441V76h-1.127v-7.112h1.001c.088 0 .175.021.259.063.084.037.156.11.217.217l2.212 3.696c.107.215.203.441.287.679.079-.247.172-.474.28-.679l2.17-3.696a.478.478 0 0 1 .217-.224.63.63 0 0 1 .259-.056h1.001ZM318.131 72.808c-.574.019-1.064.065-1.47.14-.401.07-.73.163-.987.28-.252.117-.436.254-.553.413a.901.901 0 0 0-.168.532c0 .187.03.348.091.483a.95.95 0 0 0 .245.336c.107.084.231.147.371.189.145.037.299.056.462.056.219 0 .42-.021.602-.063.182-.047.352-.112.511-.196a2.73 2.73 0 0 0 .462-.301c.149-.117.294-.25.434-.399v-1.47Zm-4.025-2.898c.392-.378.814-.66 1.267-.847.453-.187.954-.28 1.505-.28.397 0 .749.065 1.057.196.308.13.567.313.777.546.21.233.369.516.476.847.107.331.161.695.161 1.092V76h-.553a.572.572 0 0 1-.28-.056c-.065-.042-.117-.121-.154-.238l-.14-.672a7.714 7.714 0 0 1-.546.462c-.177.13-.364.243-.56.336a3.016 3.016 0 0 1-.63.203 3.23 3.23 0 0 1-.735.077 2.63 2.63 0 0 1-.777-.112 1.874 1.874 0 0 1-.637-.35 1.695 1.695 0 0 1-.427-.581 2.103 2.103 0 0 1-.154-.84c0-.28.077-.548.231-.805.154-.261.404-.492.749-.693.345-.2.796-.364 1.351-.49.555-.13 1.237-.205 2.044-.224v-.553c0-.55-.119-.966-.357-1.246-.238-.285-.586-.427-1.043-.427-.308 0-.567.04-.777.119a2.769 2.769 0 0 0-.539.259c-.149.093-.28.18-.392.259a.56.56 0 0 1-.322.112.372.372 0 0 1-.217-.063.656.656 0 0 1-.154-.168l-.224-.399ZM322.5 74.292c.229.308.478.525.749.651s.574.189.91.189c.663 0 1.171-.236 1.526-.707s.532-1.143.532-2.016c0-.462-.042-.859-.126-1.19a2.241 2.241 0 0 0-.35-.812 1.366 1.366 0 0 0-.567-.469 1.885 1.885 0 0 0-.763-.147c-.406 0-.763.093-1.071.28a3.11 3.11 0 0 0-.84.791v3.43Zm-.063-4.284a3.677 3.677 0 0 1 1.036-.889 2.66 2.66 0 0 1 1.344-.336c.411 0 .782.08 1.113.238.331.154.614.385.847.693.233.303.413.681.539 1.134.126.453.189.973.189 1.561 0 .523-.07 1.01-.21 1.463-.14.448-.343.838-.609 1.169a2.85 2.85 0 0 1-.966.777c-.378.187-.805.28-1.281.28-.434 0-.807-.072-1.12-.217a2.685 2.685 0 0 1-.819-.616v3.136h-1.253v-9.492h.749c.177 0 .287.086.329.259l.112.84ZM333.386 69.259a.777.777 0 0 1 .259-.252.646.646 0 0 1 .343-.098h.973l-1.841 2.702a2.238 2.238 0 0 1-.35.427 1.314 1.314 0 0 1-.448.252c.224.06.413.156.567.287.154.126.291.29.413.49L335.164 76h-.868c-.224 0-.397-.037-.518-.112a.978.978 0 0 1-.315-.322l-1.379-2.205c-.22-.364-.549-.546-.987-.546h-.763v3.192h-1.253v-7.098h1.253v3.066h.672a.994.994 0 0 0 .875-.476l1.505-2.24ZM340.799 71.681c0-.29-.042-.553-.126-.791a1.668 1.668 0 0 0-.357-.623 1.507 1.507 0 0 0-.567-.406 1.885 1.885 0 0 0-.763-.147c-.597 0-1.071.175-1.421.525-.345.345-.56.826-.644 1.442h3.878Zm1.008 3.325c-.154.187-.338.35-.553.49a3.493 3.493 0 0 1-.693.336 4.057 4.057 0 0 1-.756.196c-.261.047-.52.07-.777.07-.49 0-.942-.082-1.358-.245a3.088 3.088 0 0 1-1.071-.728 3.415 3.415 0 0 1-.7-1.19c-.168-.471-.252-1.013-.252-1.624 0-.495.075-.957.224-1.386.154-.43.374-.8.658-1.113a2.962 2.962 0 0 1 1.043-.742 3.388 3.388 0 0 1 1.386-.273c.425 0 .817.072 1.176.217.364.14.677.345.938.616.266.266.474.597.623.994.15.392.224.84.224 1.344 0 .196-.021.327-.063.392-.042.065-.121.098-.238.098h-4.739c.014.448.075.838.182 1.169.112.331.266.609.462.833.196.22.43.385.7.497.271.107.574.161.91.161.313 0 .581-.035.805-.105a4.005 4.005 0 0 0 .994-.469.55.55 0 0 1 .287-.112c.103 0 .182.04.238.119l.35.455ZM349.235 69.861h-2.723V76h-1.246v-6.139h-2.723v-.952h6.692v.952ZM356.331 76h-1.253v-6.139h-3.402V76h-1.253v-7.091h5.908V76ZM364.527 76h-1.246v-6.111h-2.24c-.056.9-.14 1.68-.252 2.338a10.836 10.836 0 0 1-.406 1.673c-.154.457-.329.83-.525 1.12a2.645 2.645 0 0 1-.609.665c-.21.159-.429.266-.658.322a2.762 2.762 0 0 1-.672.084c-.396 0-.595-.063-.595-.189v-.791h.364c.159 0 .32-.028.483-.084.164-.056.322-.163.476-.322.159-.159.311-.38.455-.665a5.63 5.63 0 0 0 .392-1.12c.122-.462.224-1.02.308-1.673.089-.658.157-1.437.203-2.338h4.522V76ZM371.247 71.681c0-.29-.042-.553-.126-.791a1.695 1.695 0 0 0-.357-.623 1.507 1.507 0 0 0-.567-.406 1.888 1.888 0 0 0-.763-.147c-.598 0-1.071.175-1.421.525-.346.345-.56.826-.644 1.442h3.878Zm1.008 3.325c-.154.187-.339.35-.553.49a3.548 3.548 0 0 1-.693.336 4.098 4.098 0 0 1-.756.196c-.262.047-.521.07-.777.07-.49 0-.943-.082-1.358-.245a3.07 3.07 0 0 1-1.071-.728 3.4 3.4 0 0 1-.7-1.19c-.168-.471-.252-1.013-.252-1.624 0-.495.074-.957.224-1.386.154-.43.373-.8.658-1.113a2.944 2.944 0 0 1 1.043-.742c.41-.182.872-.273 1.386-.273.424 0 .816.072 1.176.217.364.14.676.345.938.616.266.266.473.597.623.994.149.392.224.84.224 1.344 0 .196-.021.327-.063.392-.042.065-.122.098-.238.098h-4.739c.014.448.074.838.182 1.169.112.331.266.609.462.833.196.22.429.385.7.497.27.107.574.161.91.161.312 0 .581-.035.805-.105a4.099 4.099 0 0 0 .994-.469.547.547 0 0 1 .287-.112c.102 0 .182.04.238.119l.35.455ZM379.98 68.909V76h-1.246v-4.816c0-.093.005-.194.014-.301.01-.107.021-.215.035-.322-.042.093-.084.18-.126.259-.042.08-.086.152-.133.217l-3.423 4.655a1.158 1.158 0 0 1-.196.217.37.37 0 0 1-.252.098h-.756v-7.091h1.253v4.816c0 .089-.004.187-.014.294a7.505 7.505 0 0 1-.035.315c.042-.089.084-.17.126-.245.042-.08.084-.152.126-.217l3.423-4.655c.052-.075.117-.145.196-.21a.386.386 0 0 1 .259-.105h.749Zm-2.961-1.715c.192 0 .353-.021.483-.063a.693.693 0 0 0 .315-.217.89.89 0 0 0 .182-.378c.038-.154.056-.343.056-.567h.728c.089 0 .157.04.203.119.047.08.07.166.07.259 0 .233-.046.443-.14.63a1.37 1.37 0 0 1-.406.483 1.87 1.87 0 0 1-.637.301 3.19 3.19 0 0 1-.854.105c-.317 0-.602-.035-.854-.105a1.964 1.964 0 0 1-.644-.301 1.426 1.426 0 0 1-.399-.483 1.394 1.394 0 0 1-.14-.63c0-.093.024-.18.07-.259a.224.224 0 0 1 .203-.119h.728c0 .224.019.413.056.567a.96.96 0 0 0 .175.378c.084.098.192.17.322.217.131.042.292.063.483.063ZM386.885 70.169a.557.557 0 0 1-.112.119.251.251 0 0 1-.154.042.426.426 0 0 1-.231-.084 3.191 3.191 0 0 0-.315-.196 2.22 2.22 0 0 0-.455-.189 2.052 2.052 0 0 0-.658-.091c-.35 0-.658.063-.924.189-.266.121-.49.299-.672.532a2.508 2.508 0 0 0-.406.847 4.292 4.292 0 0 0-.133 1.113c0 .43.049.812.147 1.148.098.331.236.611.413.84.182.224.399.397.651.518.257.117.544.175.861.175.303 0 .553-.035.749-.105a2.21 2.21 0 0 0 .483-.245c.131-.089.238-.168.322-.238a.408.408 0 0 1 .259-.112c.103 0 .182.04.238.119l.35.455a2.483 2.483 0 0 1-.525.49c-.196.135-.408.25-.637.343-.224.089-.46.154-.707.196a4.502 4.502 0 0 1-.756.063c-.443 0-.856-.082-1.239-.245a2.845 2.845 0 0 1-.987-.707 3.371 3.371 0 0 1-.658-1.148c-.159-.453-.238-.968-.238-1.547 0-.527.072-1.015.217-1.463.149-.448.364-.833.644-1.155a2.947 2.947 0 0 1 1.043-.763c.415-.182.891-.273 1.428-.273.499 0 .938.082 1.316.245a3.1 3.1 0 0 1 1.015.679l-.329.448ZM391.359 75.09c.252 0 .469-.03.651-.091a1.32 1.32 0 0 0 .462-.266c.121-.117.212-.252.273-.406.06-.154.091-.322.091-.504 0-.168-.026-.324-.077-.469a.956.956 0 0 0-.259-.392 1.235 1.235 0 0 0-.462-.266 2.187 2.187 0 0 0-.7-.098h-1.512v2.492h1.533Zm-.021-3.402c.49 0 .9.058 1.232.175.336.117.604.273.805.469a1.7 1.7 0 0 1 .441.679 2.445 2.445 0 0 1-.035 1.68 1.922 1.922 0 0 1-.497.693c-.22.191-.49.343-.812.455a3.519 3.519 0 0 1-1.113.161h-2.723v-7.091h1.19v2.779h1.512Zm5.418-2.779V76h-1.246v-7.091h1.246Z" fill="#331A2F" fill-opacity=".9"/>
    <path stroke="#331A2F" stroke-opacity=".5" d="M260.5 13v80"/>
    <path d="M85.193 61.246c-.764 0-1.646-.117-2.645-.35l-3.155-.861.86-2.581c1.785.637 3.273.956 4.462.956.638 0 1.169-.15 1.594-.447.425-.297.637-.7.637-1.21s-.138-.893-.414-1.148c-.276-.255-.786-.478-1.53-.669l-1.72-.446c-2.38-.616-3.57-2.019-3.57-4.207 0-1.317.5-2.4 1.498-3.25 1.02-.85 2.348-1.275 3.983-1.275.659 0 1.434.117 2.327.35l3.155.861-.86 2.581c-1.722-.637-3.028-.956-3.92-.956-.595 0-1.095.16-1.498.478-.404.298-.606.69-.606 1.18 0 .51.138.892.415 1.147.276.255.785.478 1.53.669l1.688.446c1.275.34 2.188.86 2.74 1.561.553.68.83 1.562.83 2.646 0 1.296-.49 2.379-1.467 3.25-.977.85-2.422 1.275-4.334 1.275Zm13.63 0c-1.594 0-2.72-.393-3.378-1.18-.637-.785-.956-1.986-.956-3.6v-7.617H92.13v-2.804h2.358v-3.729l4.047-.796v4.525h3.505v2.804h-3.505v7.68c0 1.254.51 1.88 1.53 1.88.616 0 1.274-.19 1.975-.573l.638 2.39c-1.169.68-2.454 1.02-3.856 1.02Zm9.923 0c-1.445 0-2.592-.446-3.442-1.339a4.461 4.461 0 0 1-1.275-3.186c0-.914.298-1.647.893-2.2.616-.573 1.572-1.02 2.868-1.338l5.13-1.275v-1.306c0-.616-.191-1.105-.573-1.466-.361-.361-.871-.542-1.53-.542-.744 0-2.422.563-5.035 1.69l-1.115-2.582 3.632-1.338c1.105-.404 1.913-.606 2.422-.606 1.934 0 3.453.51 4.558 1.53 1.126.998 1.689 2.315 1.689 3.951v5.482c0 .403.063 1.009.191 1.816.148.786.34 1.455.573 2.008l-3.473.7c-.425-.467-.871-1.115-1.339-1.943-1.423 1.296-2.815 1.944-4.174 1.944Zm1.434-2.836c.828 0 1.742-.478 2.74-1.434v-3.22l-3.186.925c-1.02.297-1.53.86-1.53 1.689 0 .637.18 1.137.542 1.498.361.361.839.542 1.434.542Zm15.205 2.836c-1.593 0-2.719-.393-3.378-1.18-.637-.785-.956-1.986-.956-3.6v-7.617h-2.358v-2.804h2.358v-3.729l4.047-.796v4.525h3.506v2.804h-3.506v7.68c0 1.254.51 1.88 1.53 1.88.616 0 1.275-.19 1.976-.573l.637 2.39c-1.168.68-2.454 1.02-3.856 1.02Zm45.009-.287h-4.047v-8.7c0-1.275-.191-2.199-.574-2.772-.361-.595-.945-.893-1.752-.893-.808 0-1.679.478-2.614 1.434V60.96h-4.047v-8.7c0-1.275-.18-2.199-.542-2.772-.361-.595-.956-.893-1.784-.893-.786 0-1.657.478-2.613 1.434V60.96h-4.048V50.283c0-.403-.074-.998-.223-1.784-.127-.808-.308-1.488-.541-2.04l3.441-.7c.446.445.903 1.093 1.371 1.943 1.338-1.296 2.73-1.944 4.174-1.944 2.146 0 3.601.754 4.366 2.263.468-.616 1.137-1.148 2.008-1.594.871-.446 1.742-.669 2.613-.669 1.615 0 2.815.467 3.601 1.402.807.935 1.211 2.39 1.211 4.366v9.433Zm7.348.287c-1.445 0-2.592-.446-3.442-1.339a4.461 4.461 0 0 1-1.275-3.186c0-.914.298-1.647.893-2.2.616-.573 1.572-1.02 2.868-1.338l5.131-1.275v-1.306c0-.616-.192-1.105-.574-1.466-.361-.361-.871-.542-1.53-.542-.743 0-2.422.563-5.035 1.69l-1.115-2.582 3.633-1.338c1.104-.404 1.912-.606 2.422-.606 1.933 0 3.452.51 4.557 1.53 1.126.998 1.689 2.315 1.689 3.951v5.482c0 .403.063 1.009.191 1.816.149.786.34 1.455.574 2.008l-3.474.7c-.425-.467-.871-1.115-1.338-1.943-1.424 1.296-2.815 1.944-4.175 1.944Zm1.434-2.836c.828 0 1.742-.478 2.741-1.434v-3.22l-3.187.925c-1.02.297-1.53.86-1.53 1.689 0 .637.181 1.137.542 1.498.361.361.839.542 1.434.542Zm14.465 2.549h-4.047V50.283c0-.403-.075-.998-.223-1.784-.128-.808-.308-1.488-.542-2.04l3.442-.7c.658.658 1.115 1.55 1.37 2.676.425-.85.988-1.509 1.689-1.976a4.205 4.205 0 0 1 2.326-.7c.468 0 .893.073 1.275.222l-.701 3.474h-1.052c-.998 0-1.784.244-2.358.733-.552.467-.945 1.253-1.179 2.358v8.413Zm21.045 0h-4.972l-4.939-7.712v7.712h-4.048V39.671l4.048-.796v13.257l5.035-6.087h4.557l-5.991 6.66 6.31 8.254Zm7.254.287c-2.401 0-4.217-.712-5.45-2.135-1.211-1.445-1.816-3.336-1.816-5.673s.627-4.196 1.88-5.577c1.254-1.402 2.996-2.103 5.226-2.103 4.313 0 6.47 2.241 6.47 6.724 0 .468-.054.86-.16 1.18h-9.241c0 1.593.286 2.782.86 3.569.595.785 1.413 1.179 2.454 1.179 1.168 0 2.698-.425 4.589-1.275l1.115 2.581-3.378 1.243c-.574.191-1.423.287-2.549.287Zm-.383-12.652c-.85 0-1.519.298-2.007.893-.468.594-.701 1.338-.701 2.23h5.194c0-2.082-.829-3.123-2.486-3.123Zm14.628 12.652c-1.593 0-2.719-.393-3.378-1.18-.637-.785-.956-1.986-.956-3.6v-7.617h-2.358v-2.804h2.358v-3.729l4.048-.796v4.525h3.505v2.804h-3.505v7.68c0 1.254.509 1.88 1.529 1.88.616 0 1.275-.19 1.976-.573l.637 2.39c-1.168.68-2.453 1.02-3.856 1.02Z" fill="#54618E"/>
    <path d="M143.753 60.959h-3.856v-4.908h-8.7l-.86-2.485 9.082-13.002h4.334v12.492h2.039v2.995h-2.039v4.908Zm-3.856-7.903V44.77l-5.641 8.286h5.641Z" fill="#D653D2"/>
    <mask id="b" style="mask-type:alpha" maskUnits="userSpaceOnUse" x="0" y="0" width="61" height="32">
        <ellipse cx="30.208" cy="16.098" rx="30.208" ry="15.303" fill="url(#a)"/>
    </mask>
    <g mask="url(#b)">
        <ellipse cx="30.208" cy="16.098" rx="30.208" ry="15.303" fill="url(#c)"/>
        <path d="M39.813 20.345V3.336c0-.26.015-.543.045-.849.06-.306.121-.62.181-.941L12.31 20.345h27.504Zm25.67 0v1.194c0 .168-.106.306-.318.413-.181.092-.483.137-.906.137h-20.64v9.32h-3.806v-9.32H9.499c-.453 0-.8-.045-1.042-.137-.242-.107-.408-.245-.498-.413l-.408-1.08L39.768-1.116h3.851v21.462h21.863Z" fill="#fff"/>
    </g>
    <defs>
        <linearGradient id="a" x1="69.478" y1="-8.386" x2="52.175" y2="43.099" gradientUnits="userSpaceOnUse">
            <stop stop-color="#F0A"/>
            <stop offset="1" stop-color="#8912DE"/>
        </linearGradient>
        <linearGradient id="c" x1="69.478" y1="-8.386" x2="52.175" y2="43.099" gradientUnits="userSpaceOnUse">
            <stop stop-color="#F0A"/>
            <stop offset="1" stop-color="#8912DE"/>
        </linearGradient>
    </defs>
</svg>
