<svg width="353" height="75" viewBox="0 0 354 82" fill="none" xmlns="http://www.w3.org/2000/svg">
    <path d="M227.193 26.91v7.164h-.97v-3.26h-3.865v3.26h-.97V26.91h.97v3.195h3.865V26.91h.97ZM231.413 31.794c-.41.014-.76.047-1.05.1-.287.05-.522.117-.705.2a.995.995 0 0 0-.395.295.644.644 0 0 0-.12.38c0 .134.022.249.065.345a.677.677 0 0 0 .175.24.8.8 0 0 0 .265.135c.103.027.213.04.33.04.157 0 .3-.015.43-.045a1.909 1.909 0 0 0 .695-.355c.107-.083.21-.178.31-.285v-1.05Zm-2.875-2.07c.28-.27.582-.471.905-.605.323-.133.682-.2 1.075-.2.283 0 .535.047.755.14a1.548 1.548 0 0 1 .895.995c.077.237.115.497.115.78v3.24h-.395a.408.408 0 0 1-.2-.04c-.047-.03-.083-.086-.11-.17l-.1-.48a5.293 5.293 0 0 1-.39.33c-.127.094-.26.174-.4.24-.14.064-.29.112-.45.145a2.31 2.31 0 0 1-.525.055c-.197 0-.382-.026-.555-.08a1.345 1.345 0 0 1-.455-.25 1.21 1.21 0 0 1-.305-.415c-.073-.17-.11-.37-.11-.6 0-.2.055-.391.165-.575.11-.186.288-.351.535-.495.247-.143.568-.26.965-.35a7.218 7.218 0 0 1 1.46-.16v-.395c0-.393-.085-.69-.255-.89-.17-.203-.418-.305-.745-.305-.22 0-.405.029-.555.085a1.959 1.959 0 0 0-.385.185c-.107.067-.2.129-.28.185a.401.401 0 0 1-.23.08.265.265 0 0 1-.155-.045.477.477 0 0 1-.11-.12l-.16-.285ZM237.129 33.424V29.71h-1.605c-.034.52-.08.98-.14 1.38-.06.4-.13.752-.21 1.055-.077.3-.164.555-.26.765a2.55 2.55 0 0 1-.295.515h2.51Zm1.79-.025v2.145c0 .087-.025.154-.075.2a.243.243 0 0 1-.185.075h-.545v-1.745h-4.26v1.49c0 .064-.02.122-.06.175-.037.054-.099.08-.185.08h-.56v-2.395h.165c.116 0 .231-.02.345-.06a.869.869 0 0 0 .335-.225c.106-.113.206-.271.3-.475.096-.203.183-.468.26-.795a11.5 11.5 0 0 0 .2-1.19c.056-.47.101-1.026.135-1.67h3.205v4.39h.925ZM243.123 30.99c0-.207-.03-.396-.09-.566a1.207 1.207 0 0 0-.255-.445 1.076 1.076 0 0 0-.405-.29 1.348 1.348 0 0 0-.545-.105c-.427 0-.765.125-1.015.375-.247.247-.4.59-.46 1.03h2.77Zm.72 2.374c-.11.134-.242.25-.395.35a2.551 2.551 0 0 1-.495.24 2.95 2.95 0 0 1-.54.14c-.187.034-.372.05-.555.05-.35 0-.674-.058-.97-.175a2.184 2.184 0 0 1-.765-.52 2.422 2.422 0 0 1-.5-.85 3.446 3.446 0 0 1-.18-1.16c0-.353.053-.683.16-.99.11-.306.266-.571.47-.795a2.1 2.1 0 0 1 .745-.53c.293-.13.623-.195.99-.195.303 0 .583.052.84.155.26.1.483.247.67.44.19.19.338.427.445.71.106.28.16.6.16.96 0 .14-.015.234-.045.28-.03.047-.087.07-.17.07h-3.385c.01.32.053.599.13.835.08.237.19.435.33.595.14.157.306.275.5.355.193.077.41.115.65.115.223 0 .415-.025.575-.075a2.907 2.907 0 0 0 .71-.335.391.391 0 0 1 .205-.08c.073 0 .13.029.17.085l.25.325ZM252.027 34.074h-.62a.747.747 0 0 1-.37-.075.486.486 0 0 1-.195-.235l-.985-1.575a.786.786 0 0 0-.705-.39h-.51v2.28h-.865V31.8h-.505a.788.788 0 0 0-.705.39l-.985 1.575a.514.514 0 0 1-.205.235.72.72 0 0 1-.365.075h-.615l1.33-2.095c.086-.146.185-.265.295-.355.11-.09.245-.158.405-.205a.92.92 0 0 1-.325-.175 1.432 1.432 0 0 1-.245-.305l-1.32-1.93h.7c.086 0 .165.024.235.07.07.044.125.104.165.18l1.075 1.6c.073.11.161.195.265.255a.746.746 0 0 0 .365.085h.435v-2.19h.865v2.19h.425a.71.71 0 0 0 .64-.34l1.075-1.6a.453.453 0 0 1 .405-.25h.7l-1.32 1.93c-.077.124-.16.225-.25.305a.88.88 0 0 1-.32.175c.16.047.295.115.405.205.11.09.208.209.295.355l1.33 2.095ZM257.078 29.01v5.064h-.895v-2.37h-2.43v2.37h-.895V29.01h.895v2.02h2.43v-2.02h.895ZM260.437 33.424c.18 0 .335-.021.465-.065a.923.923 0 0 0 .33-.19.801.801 0 0 0 .195-.29.96.96 0 0 0 .065-.36.986.986 0 0 0-.055-.335.666.666 0 0 0-.185-.28.874.874 0 0 0-.33-.19 1.554 1.554 0 0 0-.5-.07h-1.08v1.78h1.095Zm-.015-2.43c.35 0 .644.042.88.125.24.084.432.195.575.335.147.14.252.302.315.485.064.184.095.374.095.57 0 .227-.04.437-.12.63-.08.19-.198.355-.355.495-.156.137-.35.245-.58.325-.23.077-.495.115-.795.115h-1.945V29.01h.85v1.985h1.08Zm3.87-1.985v5.065h-.89V29.01h.89ZM270.054 29.01v5.064h-.89v-3.44c0-.066.003-.138.01-.215.007-.076.015-.153.025-.23-.03.067-.06.129-.09.185-.03.057-.062.109-.095.155l-2.445 3.325a.855.855 0 0 1-.14.155.265.265 0 0 1-.18.07h-.54v-5.065h.895v3.44c0 .064-.003.134-.01.21a6.554 6.554 0 0 1-.025.225c.03-.063.06-.121.09-.175.03-.056.06-.108.09-.155l2.445-3.325a.737.737 0 0 1 .14-.15.274.274 0 0 1 .185-.075h.535Zm-2.115-1.226c.137 0 .252-.015.345-.045a.5.5 0 0 0 .225-.155c.06-.07.103-.16.13-.27.027-.11.04-.245.04-.405h.52c.063 0 .112.029.145.085.033.057.05.119.05.185a.988.988 0 0 1-.1.45.987.987 0 0 1-.29.345 1.338 1.338 0 0 1-.455.215 2.28 2.28 0 0 1-.61.075 2.28 2.28 0 0 1-.61-.075 1.403 1.403 0 0 1-.46-.215 1.016 1.016 0 0 1-.285-.345.988.988 0 0 1-.1-.45c0-.066.017-.128.05-.185a.159.159 0 0 1 .145-.085h.52c0 .16.013.295.04.405.027.11.068.2.125.27.06.07.137.122.23.155.093.03.208.045.345.045ZM277.545 29.91a.423.423 0 0 1-.08.084.182.182 0 0 1-.11.03.304.304 0 0 1-.165-.06 2.29 2.29 0 0 0-.225-.14 1.6 1.6 0 0 0-.325-.135 1.472 1.472 0 0 0-.47-.065c-.25 0-.47.045-.66.135-.19.087-.35.214-.48.38a1.773 1.773 0 0 0-.29.605 3.048 3.048 0 0 0-.095.795c0 .307.035.58.105.82.07.237.168.437.295.6.13.16.285.284.465.37.183.084.388.125.615.125.216 0 .395-.025.535-.075.14-.053.255-.111.345-.175.093-.063.17-.12.23-.17a.29.29 0 0 1 .185-.08c.073 0 .13.029.17.085l.25.325c-.11.137-.235.254-.375.35-.14.097-.292.179-.455.245-.16.064-.329.11-.505.14-.177.03-.357.045-.54.045-.317 0-.612-.058-.885-.175a2.033 2.033 0 0 1-.705-.505 2.399 2.399 0 0 1-.47-.82 3.313 3.313 0 0 1-.17-1.105c0-.376.051-.725.155-1.045.106-.32.26-.595.46-.825.203-.233.451-.415.745-.545.296-.13.636-.195 1.02-.195.356 0 .67.059.94.175.273.114.515.275.725.485l-.235.32ZM282.097 30.99c0-.207-.03-.396-.09-.566a1.207 1.207 0 0 0-.255-.445 1.076 1.076 0 0 0-.405-.29 1.348 1.348 0 0 0-.545-.105c-.427 0-.765.125-1.015.375-.247.247-.4.59-.46 1.03h2.77Zm.72 2.374c-.11.134-.242.25-.395.35a2.497 2.497 0 0 1-.495.24c-.173.064-.353.11-.54.14-.187.034-.372.05-.555.05-.35 0-.673-.058-.97-.175a2.202 2.202 0 0 1-.765-.52 2.437 2.437 0 0 1-.5-.85 3.446 3.446 0 0 1-.18-1.16c0-.353.053-.683.16-.99.11-.306.267-.571.47-.795a2.11 2.11 0 0 1 .745-.53c.293-.13.623-.195.99-.195.303 0 .583.052.84.155.26.1.483.247.67.44.19.19.338.427.445.71.107.28.16.6.16.96 0 .14-.015.234-.045.28-.03.047-.087.07-.17.07h-3.385c.01.32.053.599.13.835.08.237.19.435.33.595.14.157.307.275.5.355.193.077.41.115.65.115.223 0 .415-.025.575-.075a2.907 2.907 0 0 0 .71-.335.391.391 0 0 1 .205-.08c.073 0 .13.029.17.085l.25.325ZM284.885 32.854c.164.22.342.375.535.465.194.09.41.135.65.135.474 0 .837-.168 1.09-.505.254-.336.38-.816.38-1.44 0-.33-.03-.613-.09-.85a1.593 1.593 0 0 0-.25-.58.976.976 0 0 0-.405-.335 1.345 1.345 0 0 0-.545-.105c-.29 0-.545.067-.765.2a2.233 2.233 0 0 0-.6.565v2.45Zm-.045-3.06c.214-.263.46-.475.74-.635.28-.16.6-.24.96-.24.294 0 .559.057.795.17.237.11.439.275.605.495.167.217.295.487.385.81.09.324.135.695.135 1.115 0 .374-.05.722-.15 1.045-.1.32-.245.599-.435.835a2.028 2.028 0 0 1-.69.555c-.27.134-.575.2-.915.2-.31 0-.576-.051-.8-.155a1.918 1.918 0 0 1-.585-.44v2.24h-.895v-6.78h.535c.127 0 .205.062.235.185l.08.6ZM291.531 33.45c.333 0 .597-.077.79-.23a.78.78 0 0 0 .29-.64.903.903 0 0 0-.055-.326.639.639 0 0 0-.18-.26.854.854 0 0 0-.335-.17 1.824 1.824 0 0 0-.505-.06h-1.095v1.685h1.09Zm-1.09-3.84v1.59h.975c.147 0 .282-.02.405-.06a1.04 1.04 0 0 0 .325-.176.823.823 0 0 0 .21-.27.814.814 0 0 0 .025-.62.551.551 0 0 0-.17-.235.853.853 0 0 0-.315-.165 1.534 1.534 0 0 0-.48-.065h-.975Zm1-.6c.313 0 .582.031.805.094.223.064.407.15.55.26a.981.981 0 0 1 .315.38c.067.147.1.304.1.47 0 .11-.015.225-.045.345a1.133 1.133 0 0 1-.465.645 1.526 1.526 0 0 1-.48.205c.387.067.685.202.895.405.21.2.315.465.315.795 0 .247-.05.462-.15.645-.097.18-.232.332-.405.455-.17.124-.37.215-.6.275-.23.06-.477.09-.74.09h-1.95V29.01h1.855ZM298.892 29.01v5.064h-.89v-3.44c0-.066.003-.138.01-.215.007-.076.015-.153.025-.23-.03.067-.06.129-.09.185-.03.057-.062.109-.095.155l-2.445 3.325a.855.855 0 0 1-.14.155.265.265 0 0 1-.18.07h-.54v-5.065h.895v3.44c0 .064-.003.134-.01.21a6.554 6.554 0 0 1-.025.225c.03-.063.06-.121.09-.175.03-.056.06-.108.09-.155l2.445-3.325a.737.737 0 0 1 .14-.15.274.274 0 0 1 .185-.075h.535ZM303.824 29.91a.397.397 0 0 1-.08.084.18.18 0 0 1-.11.03.304.304 0 0 1-.165-.06 2.29 2.29 0 0 0-.225-.14 1.6 1.6 0 0 0-.325-.135 1.467 1.467 0 0 0-.47-.065c-.25 0-.47.045-.66.135-.19.087-.35.214-.48.38a1.791 1.791 0 0 0-.29.605 3.091 3.091 0 0 0-.095.795c0 .307.035.58.105.82.07.237.168.437.295.6.13.16.285.284.465.37.183.084.388.125.615.125.217 0 .395-.025.535-.075.14-.053.255-.111.345-.175.093-.063.17-.12.23-.17a.29.29 0 0 1 .185-.08c.073 0 .13.029.17.085l.25.325c-.11.137-.235.254-.375.35-.14.097-.292.179-.455.245-.16.064-.328.11-.505.14-.177.03-.357.045-.54.045-.317 0-.612-.058-.885-.175a2.033 2.033 0 0 1-.705-.505 2.399 2.399 0 0 1-.47-.82 3.34 3.34 0 0 1-.17-1.105c0-.376.052-.725.155-1.045a2.4 2.4 0 0 1 .46-.825c.203-.233.452-.415.745-.545.297-.13.637-.195 1.02-.195.357 0 .67.059.94.175.273.114.515.275.725.485l-.235.32ZM223.923 45.794c-.41.014-.76.047-1.05.1-.287.05-.522.117-.705.2a.995.995 0 0 0-.395.295.644.644 0 0 0-.12.38c0 .134.022.249.065.345a.677.677 0 0 0 .175.24.8.8 0 0 0 .265.135c.103.027.213.04.33.04.157 0 .3-.015.43-.045a1.909 1.909 0 0 0 .695-.355c.107-.083.21-.178.31-.285v-1.05Zm-2.875-2.07c.28-.27.582-.471.905-.605.323-.133.682-.2 1.075-.2.283 0 .535.047.755.14a1.548 1.548 0 0 1 .895.995c.077.237.115.497.115.78v3.24h-.395a.408.408 0 0 1-.2-.04c-.047-.03-.083-.086-.11-.17l-.1-.48a5.293 5.293 0 0 1-.39.33c-.127.094-.26.174-.4.24-.14.064-.29.112-.45.145a2.31 2.31 0 0 1-.525.055c-.197 0-.382-.026-.555-.08a1.345 1.345 0 0 1-.455-.25 1.21 1.21 0 0 1-.305-.415c-.073-.17-.11-.37-.11-.6 0-.2.055-.391.165-.575.11-.186.288-.351.535-.495.247-.143.568-.26.965-.35a7.218 7.218 0 0 1 1.46-.16v-.395c0-.393-.085-.69-.255-.89-.17-.203-.418-.305-.745-.305-.22 0-.405.029-.555.085a1.959 1.959 0 0 0-.385.185c-.107.067-.2.129-.28.185a.401.401 0 0 1-.23.08.265.265 0 0 1-.155-.045.477.477 0 0 1-.11-.12l-.16-.285ZM230.369 43.01v5.064h-.895v-2.37h-2.43v2.37h-.895V43.01h.895v2.02h2.43v-2.02h.895ZM234.528 45.794c-.41.014-.76.047-1.05.1-.286.05-.521.117-.705.2-.18.084-.311.182-.395.295a.644.644 0 0 0-.12.38c0 .134.022.249.065.345a.69.69 0 0 0 .175.24.8.8 0 0 0 .265.135c.104.027.214.04.33.04.157 0 .3-.015.43-.045a1.909 1.909 0 0 0 .695-.355c.107-.083.21-.178.31-.285v-1.05Zm-2.875-2.07c.28-.27.582-.471.905-.605.324-.133.682-.2 1.075-.2.284 0 .535.047.755.14a1.548 1.548 0 0 1 .895.995c.077.237.115.497.115.78v3.24h-.395a.41.41 0 0 1-.2-.04c-.046-.03-.083-.086-.11-.17l-.1-.48a5.293 5.293 0 0 1-.39.33c-.126.094-.26.174-.4.24-.14.064-.29.112-.45.145a2.298 2.298 0 0 1-.525.055c-.196 0-.381-.026-.555-.08a1.345 1.345 0 0 1-.455-.25 1.223 1.223 0 0 1-.305-.415c-.073-.17-.11-.37-.11-.6 0-.2.055-.391.165-.575.11-.186.289-.351.535-.495.247-.143.569-.26.965-.35a7.226 7.226 0 0 1 1.46-.16v-.395c0-.393-.085-.69-.255-.89-.17-.203-.418-.305-.745-.305-.22 0-.405.029-.555.085a1.986 1.986 0 0 0-.385.185c-.106.067-.2.129-.28.185a.399.399 0 0 1-.23.08.267.267 0 0 1-.155-.045.477.477 0 0 1-.11-.12l-.16-.285ZM241.194 48.074h-.89V43.71h-1.6c-.04.644-.1 1.2-.18 1.67-.08.467-.177.865-.29 1.195-.11.327-.235.594-.375.8a1.91 1.91 0 0 1-.435.475c-.15.114-.307.19-.47.23-.16.04-.32.06-.48.06-.283 0-.425-.045-.425-.135v-.565h.26c.113 0 .228-.02.345-.06a.878.878 0 0 0 .34-.23c.113-.113.222-.271.325-.475.103-.206.197-.473.28-.8.087-.33.16-.728.22-1.195.063-.47.112-1.026.145-1.67h3.23v5.065ZM246.949 43.01v5.064h-.89v-3.44c0-.066.003-.138.01-.215.006-.076.015-.153.025-.23-.03.067-.06.129-.09.185-.03.057-.062.109-.095.155l-2.445 3.325a.893.893 0 0 1-.14.155.269.269 0 0 1-.18.07h-.54v-5.065h.895v3.44c0 .064-.004.134-.01.21a6.554 6.554 0 0 1-.025.225c.03-.063.06-.121.09-.175.03-.056.06-.108.09-.155l2.445-3.325a.71.71 0 0 1 .14-.15.272.272 0 0 1 .185-.075h.535ZM252.566 43.69h-1.945v4.384h-.89V43.69h-1.945v-.68h4.78v.68ZM257.759 43.01v5.064h-.89v-3.44c0-.066.004-.138.01-.215.007-.076.015-.153.025-.23-.03.067-.06.129-.09.185-.03.057-.061.109-.095.155l-2.445 3.325a.82.82 0 0 1-.14.155.265.265 0 0 1-.18.07h-.54v-5.065h.895v3.44c0 .064-.003.134-.01.21a4.745 4.745 0 0 1-.025.225c.03-.063.06-.121.09-.175.03-.056.06-.108.09-.155l2.445-3.325a.766.766 0 0 1 .14-.15.276.276 0 0 1 .185-.075h.535ZM262.241 43.26a.563.563 0 0 1 .185-.18.463.463 0 0 1 .245-.07h.695l-1.315 1.93c-.08.123-.163.224-.25.304a.93.93 0 0 1-.32.18c.16.044.295.112.405.205.11.09.208.207.295.35l1.33 2.095h-.62a.71.71 0 0 1-.37-.08.701.701 0 0 1-.225-.23l-.985-1.575a.77.77 0 0 0-.705-.39h-.545v2.28h-.895v-5.07h.895v2.19h.48a.71.71 0 0 0 .625-.34l1.075-1.6ZM268.687 43.01v5.064h-.89v-3.44c0-.066.003-.138.01-.215.007-.076.015-.153.025-.23-.03.067-.06.129-.09.185-.03.057-.062.109-.095.155l-2.445 3.325a.855.855 0 0 1-.14.155.265.265 0 0 1-.18.07h-.54v-5.065h.895v3.44c0 .064-.003.134-.01.21a6.554 6.554 0 0 1-.025.225c.03-.063.06-.121.09-.175.03-.056.06-.108.09-.155l2.445-3.325a.737.737 0 0 1 .14-.15.274.274 0 0 1 .185-.075h.535ZM276.142 47.424V43.71h-1.605c-.033.52-.08.98-.14 1.38-.06.4-.13.752-.21 1.055a4.44 4.44 0 0 1-.26.765c-.093.21-.191.382-.295.515h2.51Zm1.79-.025v2.145c0 .087-.025.154-.075.2a.24.24 0 0 1-.185.075h-.545v-1.745h-4.26v1.49c0 .064-.02.122-.06.175-.036.054-.098.08-.185.08h-.56v-2.395h.165c.117 0 .232-.02.345-.06a.854.854 0 0 0 .335-.225c.107-.113.207-.271.3-.475a3.97 3.97 0 0 0 .26-.795c.077-.326.144-.723.2-1.19.057-.47.102-1.026.135-1.67h3.205v4.39h.925ZM283.274 48.074h-.89V43.71h-1.6c-.04.644-.1 1.2-.18 1.67-.08.467-.177.865-.29 1.195-.11.327-.235.594-.375.8a1.91 1.91 0 0 1-.435.475c-.15.114-.307.19-.47.23-.16.04-.32.06-.48.06-.283 0-.425-.045-.425-.135v-.565h.26c.113 0 .228-.02.345-.06a.878.878 0 0 0 .34-.23c.113-.113.222-.271.325-.475.103-.206.197-.473.28-.8.087-.33.16-.728.22-1.195.063-.47.112-1.026.145-1.67h3.23v5.065ZM287.349 45.374V43.61h-.85a1.2 1.2 0 0 0-.48.085.87.87 0 0 0-.315.21.735.735 0 0 0-.165.285.985.985 0 0 0-.05.31c0 .274.1.489.3.645.2.154.473.23.82.23h.74Zm.85-2.365v5.065h-.85V45.94h-.39a.932.932 0 0 0-.235.025.56.56 0 0 0-.16.06.414.414 0 0 0-.115.105c-.034.04-.069.087-.105.14l-1.11 1.495a.588.588 0 0 1-.21.235c-.08.05-.199.075-.355.075h-.62l1.47-1.91c.12-.2.278-.333.475-.4a2.078 2.078 0 0 1-.65-.18 1.542 1.542 0 0 1-.435-.305c-.11-.12-.19-.251-.24-.395a1.312 1.312 0 0 1-.075-.435c0-.173.033-.346.1-.52.07-.173.18-.326.33-.46.15-.136.343-.246.58-.33.24-.086.53-.13.87-.13h1.725ZM296.394 48.074h-.895V43.69h-2.43v4.385h-.895V43.01h4.22v5.065ZM299.944 42.93c.37 0 .703.061 1 .184a2.148 2.148 0 0 1 1.24 1.35c.113.32.17.679.17 1.075 0 .4-.057.76-.17 1.08-.11.32-.27.594-.48.82-.21.227-.464.402-.76.525-.297.12-.63.18-1 .18-.374 0-.71-.06-1.01-.18a2.14 2.14 0 0 1-.76-.525c-.21-.226-.372-.5-.485-.82a3.31 3.31 0 0 1-.165-1.08c0-.396.055-.755.165-1.075.113-.323.275-.598.485-.825a2.14 2.14 0 0 1 .76-.525c.3-.123.636-.185 1.01-.185Zm0 4.52c.5 0 .873-.167 1.12-.5.246-.337.37-.806.37-1.406 0-.603-.124-1.073-.37-1.41-.247-.336-.62-.505-1.12-.505-.254 0-.475.044-.665.13a1.249 1.249 0 0 0-.47.375 1.704 1.704 0 0 0-.28.605c-.06.237-.09.505-.09.805 0 .6.123 1.069.37 1.405.25.334.628.5 1.135.5ZM307.008 43.91a.423.423 0 0 1-.08.084.182.182 0 0 1-.11.03.304.304 0 0 1-.165-.06 2.29 2.29 0 0 0-.225-.14 1.6 1.6 0 0 0-.325-.135 1.472 1.472 0 0 0-.47-.065c-.25 0-.47.045-.66.135-.19.087-.35.214-.48.38a1.773 1.773 0 0 0-.29.605 3.048 3.048 0 0 0-.095.795c0 .307.035.58.105.82.07.237.168.437.295.6.13.16.285.284.465.37.183.084.388.125.615.125.216 0 .395-.025.535-.075.14-.053.255-.111.345-.175.093-.063.17-.12.23-.17a.29.29 0 0 1 .185-.08c.073 0 .13.029.17.085l.25.325c-.11.137-.235.254-.375.35-.14.097-.292.179-.455.245-.16.064-.329.11-.505.14-.177.03-.357.045-.54.045-.317 0-.612-.058-.885-.175a2.033 2.033 0 0 1-.705-.505 2.399 2.399 0 0 1-.47-.82 3.313 3.313 0 0 1-.17-1.105c0-.376.051-.725.155-1.045.106-.32.26-.595.46-.825.203-.233.451-.415.745-.545.296-.13.636-.195 1.02-.195.356 0 .67.059.94.175.273.114.515.275.725.485l-.235.32ZM312.468 43.69h-1.945v4.384h-.89V43.69h-1.945v-.68h4.78v.68ZM316.013 45.794c-.41.014-.76.047-1.05.1-.287.05-.522.117-.705.2a.995.995 0 0 0-.395.295.644.644 0 0 0-.12.38c0 .134.021.249.065.345a.666.666 0 0 0 .175.24.79.79 0 0 0 .265.135c.103.027.213.04.33.04.156 0 .3-.015.43-.045.13-.033.251-.08.365-.14.116-.06.226-.131.33-.215a2.78 2.78 0 0 0 .31-.285v-1.05Zm-2.875-2.07c.28-.27.581-.471.905-.605.323-.133.681-.2 1.075-.2.283 0 .535.047.755.14a1.548 1.548 0 0 1 .895.995c.076.237.115.497.115.78v3.24h-.395a.405.405 0 0 1-.2-.04c-.047-.03-.084-.086-.11-.17l-.1-.48a5.743 5.743 0 0 1-.39.33c-.127.094-.26.174-.4.24-.14.064-.29.112-.45.145a2.31 2.31 0 0 1-.525.055c-.197 0-.382-.026-.555-.08a1.335 1.335 0 0 1-.455-.25 1.197 1.197 0 0 1-.305-.415c-.074-.17-.11-.37-.11-.6 0-.2.055-.391.165-.575.11-.186.288-.351.535-.495.246-.143.568-.26.965-.35.396-.093.883-.146 1.46-.16v-.395c0-.393-.085-.69-.255-.89-.17-.203-.419-.305-.745-.305-.22 0-.405.029-.555.085a1.959 1.959 0 0 0-.385.185c-.107.067-.2.129-.28.185a.403.403 0 0 1-.23.08.265.265 0 0 1-.155-.045.46.46 0 0 1-.11-.12l-.16-.285ZM320.183 47.45c.334 0 .597-.077.79-.23a.778.778 0 0 0 .29-.64.903.903 0 0 0-.055-.326.62.62 0 0 0-.18-.26.854.854 0 0 0-.335-.17 1.819 1.819 0 0 0-.505-.06h-1.095v1.685h1.09Zm-1.09-3.84v1.59h.975c.147 0 .282-.02.405-.06a1.04 1.04 0 0 0 .325-.176.823.823 0 0 0 .21-.27.814.814 0 0 0 .025-.62.551.551 0 0 0-.17-.235.853.853 0 0 0-.315-.165 1.534 1.534 0 0 0-.48-.065h-.975Zm1-.6c.314 0 .582.031.805.094.224.064.407.15.55.26a.964.964 0 0 1 .315.38c.067.147.1.304.1.47 0 .11-.015.225-.045.345a1.133 1.133 0 0 1-.465.645 1.506 1.506 0 0 1-.48.205c.387.067.685.202.895.405.21.2.315.465.315.795 0 .247-.05.462-.15.645-.096.18-.231.332-.405.455-.17.124-.37.215-.6.275-.23.06-.476.09-.74.09h-1.95V43.01h1.855ZM330.944 47.4v2.144c0 .087-.025.154-.075.2a.24.24 0 0 1-.185.075h-.55v-1.745h-6.935V43.01h.895v4.39h2.065v-4.39h.895v4.39h2.065v-4.39h.895v4.39h.93ZM336.187 43.01v5.064h-.89v-3.44c0-.066.003-.138.01-.215.007-.076.015-.153.025-.23-.03.067-.06.129-.09.185-.03.057-.062.109-.095.155l-2.445 3.325a.855.855 0 0 1-.14.155.265.265 0 0 1-.18.07h-.54v-5.065h.895v3.44c0 .064-.003.134-.01.21a6.554 6.554 0 0 1-.025.225c.03-.063.06-.121.09-.175.03-.056.06-.108.09-.155l2.445-3.325a.737.737 0 0 1 .14-.15.274.274 0 0 1 .185-.075h.535ZM340.669 43.26a.563.563 0 0 1 .185-.18.463.463 0 0 1 .245-.07h.695l-1.315 1.93c-.08.123-.163.224-.25.304a.93.93 0 0 1-.32.18c.16.044.295.112.405.205.11.09.208.207.295.35l1.33 2.095h-.62a.71.71 0 0 1-.37-.08.701.701 0 0 1-.225-.23l-.985-1.575a.77.77 0 0 0-.705-.39h-.545v2.28h-.895v-5.07h.895v2.19h.48a.71.71 0 0 0 .625-.34l1.075-1.6ZM344.709 42.93c.37 0 .704.061 1 .184.297.124.55.299.76.525.21.227.37.502.48.825.114.32.17.679.17 1.075 0 .4-.056.76-.17 1.08-.11.32-.27.594-.48.82a2.14 2.14 0 0 1-.76.525c-.296.12-.63.18-1 .18a2.7 2.7 0 0 1-1.01-.18 2.148 2.148 0 0 1-.76-.525c-.21-.226-.371-.5-.485-.82a3.31 3.31 0 0 1-.165-1.08c0-.396.055-.755.165-1.075a2.34 2.34 0 0 1 .485-.825c.21-.226.464-.401.76-.525.3-.123.637-.185 1.01-.185Zm0 4.52c.5 0 .874-.167 1.12-.5.247-.337.37-.806.37-1.406 0-.603-.123-1.073-.37-1.41-.246-.336-.62-.505-1.12-.505a1.59 1.59 0 0 0-.665.13 1.265 1.265 0 0 0-.47.375 1.74 1.74 0 0 0-.28.605c-.06.237-.09.505-.09.805 0 .6.124 1.069.37 1.405.25.334.629.5 1.135.5ZM350.193 47.45c.333 0 .597-.077.79-.23a.778.778 0 0 0 .29-.64.903.903 0 0 0-.055-.326.63.63 0 0 0-.18-.26.854.854 0 0 0-.335-.17 1.819 1.819 0 0 0-.505-.06h-1.095v1.685h1.09Zm-1.09-3.84v1.59h.975c.147 0 .282-.02.405-.06a1.04 1.04 0 0 0 .325-.176.823.823 0 0 0 .21-.27.814.814 0 0 0 .025-.62.551.551 0 0 0-.17-.235.853.853 0 0 0-.315-.165 1.534 1.534 0 0 0-.48-.065h-.975Zm1-.6c.313 0 .582.031.805.094.224.064.407.15.55.26a.981.981 0 0 1 .315.38c.067.147.1.304.1.47 0 .11-.015.225-.045.345a1.133 1.133 0 0 1-.465.645 1.516 1.516 0 0 1-.48.205c.387.067.685.202.895.405.21.2.315.465.315.795 0 .247-.05.462-.15.645-.097.18-.232.332-.405.455-.17.124-.37.215-.6.275-.23.06-.477.09-.74.09h-1.95V43.01h1.855ZM225.398 57.01v5.064h-.895v-2.37h-2.43v2.37h-.895V57.01h.895v2.02h2.43v-2.02h.895ZM229.558 59.794c-.41.014-.76.047-1.05.1-.287.05-.522.117-.705.2a.995.995 0 0 0-.395.295.644.644 0 0 0-.12.38c0 .134.021.249.065.345a.666.666 0 0 0 .175.24.79.79 0 0 0 .265.135c.103.027.213.04.33.04.156 0 .3-.015.43-.045.13-.033.251-.08.365-.14.116-.06.226-.131.33-.215a2.78 2.78 0 0 0 .31-.285v-1.05Zm-2.875-2.07c.28-.27.581-.471.905-.605.323-.133.681-.2 1.075-.2.283 0 .535.047.755.14a1.548 1.548 0 0 1 .895.995c.076.237.115.497.115.78v3.24h-.395a.405.405 0 0 1-.2-.04c-.047-.03-.084-.086-.11-.17l-.1-.48a5.743 5.743 0 0 1-.39.33c-.127.094-.26.174-.4.24-.14.064-.29.112-.45.145a2.31 2.31 0 0 1-.525.055c-.197 0-.382-.026-.555-.08a1.335 1.335 0 0 1-.455-.25 1.197 1.197 0 0 1-.305-.415c-.074-.17-.11-.37-.11-.6 0-.2.055-.391.165-.575.11-.186.288-.351.535-.495.246-.143.568-.26.965-.35.396-.093.883-.146 1.46-.16v-.395c0-.393-.085-.69-.255-.89-.17-.203-.419-.305-.745-.305-.22 0-.405.029-.555.085a1.959 1.959 0 0 0-.385.185c-.107.067-.2.129-.28.185a.403.403 0 0 1-.23.08.265.265 0 0 1-.155-.045.46.46 0 0 1-.11-.12l-.16-.285ZM239.987 56.994v5.08h-.805V58.71c0-.093.005-.196.015-.31.013-.116.03-.225.05-.325l-1.76 3.085a.34.34 0 0 1-.105.12.256.256 0 0 1-.15.045h-.1a.28.28 0 0 1-.155-.045.34.34 0 0 1-.105-.12l-1.79-3.095c.017.1.032.21.045.33.013.117.02.222.02.315v3.365h-.805v-5.08h.715a.41.41 0 0 1 .185.045c.06.027.112.079.155.155l1.58 2.64c.077.154.145.315.205.485.057-.176.123-.338.2-.485l1.55-2.64a.342.342 0 0 1 .155-.16.452.452 0 0 1 .185-.04h.715ZM244.138 59.794c-.41.014-.76.047-1.05.1-.287.05-.522.117-.705.2a.995.995 0 0 0-.395.295.644.644 0 0 0-.12.38c0 .134.021.249.065.345a.666.666 0 0 0 .175.24.79.79 0 0 0 .265.135c.103.027.213.04.33.04.156 0 .3-.015.43-.045.13-.033.251-.08.365-.14.116-.06.226-.131.33-.215a2.78 2.78 0 0 0 .31-.285v-1.05Zm-2.875-2.07c.28-.27.581-.471.905-.605.323-.133.681-.2 1.075-.2.283 0 .535.047.755.14a1.548 1.548 0 0 1 .895.995c.076.237.115.497.115.78v3.24h-.395a.405.405 0 0 1-.2-.04c-.047-.03-.084-.086-.11-.17l-.1-.48a5.743 5.743 0 0 1-.39.33c-.127.094-.26.174-.4.24-.14.064-.29.112-.45.145a2.31 2.31 0 0 1-.525.055c-.197 0-.382-.026-.555-.08a1.335 1.335 0 0 1-.455-.25 1.197 1.197 0 0 1-.305-.415c-.074-.17-.11-.37-.11-.6 0-.2.055-.391.165-.575.11-.186.288-.351.535-.495.246-.143.568-.26.965-.35.396-.093.883-.146 1.46-.16v-.395c0-.393-.085-.69-.255-.89-.17-.203-.419-.305-.745-.305-.22 0-.405.029-.555.085a1.959 1.959 0 0 0-.385.185c-.107.067-.2.129-.28.185a.403.403 0 0 1-.23.08.265.265 0 0 1-.155-.045.46.46 0 0 1-.11-.12l-.16-.285ZM247.258 60.854c.164.22.342.375.535.465.194.09.41.135.65.135.474 0 .837-.168 1.09-.505.254-.336.38-.816.38-1.44 0-.33-.03-.613-.09-.85a1.593 1.593 0 0 0-.25-.58.976.976 0 0 0-.405-.335 1.345 1.345 0 0 0-.545-.105c-.29 0-.545.067-.765.2a2.233 2.233 0 0 0-.6.565v2.45Zm-.045-3.06c.214-.263.46-.475.74-.635.28-.16.6-.24.96-.24.294 0 .559.057.795.17.237.11.439.275.605.495.167.217.295.487.385.81.09.324.135.695.135 1.115 0 .374-.05.722-.15 1.045-.1.32-.245.599-.435.835a2.028 2.028 0 0 1-.69.555c-.27.134-.575.2-.915.2-.31 0-.576-.051-.8-.155a1.918 1.918 0 0 1-.585-.44v2.24h-.895v-6.78h.535c.127 0 .205.062.235.185l.08.6ZM255.034 57.26a.563.563 0 0 1 .185-.18.463.463 0 0 1 .245-.07h.695l-1.315 1.93c-.08.123-.163.224-.25.304a.93.93 0 0 1-.32.18c.16.044.295.112.405.205.11.09.208.207.295.35l1.33 2.095h-.62a.71.71 0 0 1-.37-.08.701.701 0 0 1-.225-.23l-.985-1.575a.77.77 0 0 0-.705-.39h-.545v2.28h-.895v-5.07h.895v2.19h.48a.71.71 0 0 0 .625-.34l1.075-1.6ZM260.33 58.99c0-.207-.03-.396-.09-.566a1.207 1.207 0 0 0-.255-.445 1.076 1.076 0 0 0-.405-.29 1.348 1.348 0 0 0-.545-.105c-.427 0-.765.125-1.015.375-.247.247-.4.59-.46 1.03h2.77Zm.72 2.374c-.11.134-.242.25-.395.35a2.551 2.551 0 0 1-.495.24 2.95 2.95 0 0 1-.54.14c-.187.034-.372.05-.555.05-.35 0-.674-.058-.97-.175a2.184 2.184 0 0 1-.765-.52 2.422 2.422 0 0 1-.5-.85 3.446 3.446 0 0 1-.18-1.16c0-.353.053-.683.16-.99.11-.306.266-.571.47-.795a2.1 2.1 0 0 1 .745-.53c.293-.13.623-.195.99-.195.303 0 .583.052.84.155.26.1.483.247.67.44.19.19.338.427.445.71.106.28.16.6.16.96 0 .14-.015.234-.045.28-.03.047-.087.07-.17.07h-3.385c.01.32.053.599.13.835.08.237.19.435.33.595.14.157.306.275.5.355.193.077.41.115.65.115.223 0 .415-.025.575-.075a2.907 2.907 0 0 0 .71-.335.391.391 0 0 1 .205-.08c.073 0 .13.029.17.085l.25.325ZM266.355 57.69h-1.945v4.384h-.89V57.69h-1.945v-.68h4.78v.68ZM271.423 62.074h-.895V57.69h-2.43v4.385h-.895V57.01h4.22v5.065ZM277.278 62.074h-.89V57.71h-1.6c-.04.644-.1 1.2-.18 1.67-.08.467-.177.865-.29 1.195-.11.327-.235.594-.375.8a1.91 1.91 0 0 1-.435.475c-.15.114-.307.19-.47.23-.16.04-.32.06-.48.06-.283 0-.425-.045-.425-.135v-.565h.26c.113 0 .228-.02.345-.06a.878.878 0 0 0 .34-.23c.113-.113.222-.271.325-.475.103-.206.197-.473.28-.8.087-.33.16-.728.22-1.195.063-.47.112-1.026.145-1.67h3.23v5.065ZM282.078 58.99c0-.207-.03-.396-.09-.566a1.207 1.207 0 0 0-.255-.445 1.076 1.076 0 0 0-.405-.29 1.348 1.348 0 0 0-.545-.105c-.427 0-.765.125-1.015.375-.247.247-.4.59-.46 1.03h2.77Zm.72 2.374c-.11.134-.242.25-.395.35a2.551 2.551 0 0 1-.495.24 2.95 2.95 0 0 1-.54.14c-.187.034-.372.05-.555.05-.35 0-.674-.058-.97-.175a2.184 2.184 0 0 1-.765-.52 2.422 2.422 0 0 1-.5-.85 3.446 3.446 0 0 1-.18-1.16c0-.353.053-.683.16-.99.11-.306.266-.571.47-.795a2.1 2.1 0 0 1 .745-.53c.293-.13.623-.195.99-.195.303 0 .583.052.84.155.26.1.483.247.67.44.19.19.338.427.445.71.106.28.16.6.16.96 0 .14-.015.234-.045.28-.03.047-.087.07-.17.07h-3.385c.01.32.053.599.13.835.08.237.19.435.33.595.14.157.306.275.5.355.193.077.41.115.65.115.223 0 .415-.025.575-.075a2.907 2.907 0 0 0 .71-.335.391.391 0 0 1 .205-.08c.073 0 .13.029.17.085l.25.325ZM288.316 57.01v5.064h-.89v-3.44c0-.066.003-.138.01-.215.006-.076.015-.153.025-.23-.03.067-.06.129-.09.185-.03.057-.062.109-.095.155l-2.445 3.325a.893.893 0 0 1-.14.155.269.269 0 0 1-.18.07h-.54v-5.065h.895v3.44c0 .064-.004.134-.01.21a6.554 6.554 0 0 1-.025.225c.03-.063.06-.121.09-.175.03-.056.06-.108.09-.155l2.445-3.325a.71.71 0 0 1 .14-.15.272.272 0 0 1 .185-.075h.535Zm-2.115-1.226c.136 0 .251-.015.345-.045a.5.5 0 0 0 .225-.155c.06-.07.103-.16.13-.27.026-.11.04-.245.04-.405h.52a.16.16 0 0 1 .145.085c.033.057.05.119.05.185a1 1 0 0 1-.1.45.998.998 0 0 1-.29.345 1.347 1.347 0 0 1-.455.215c-.18.05-.384.075-.61.075a2.28 2.28 0 0 1-.61-.075 1.393 1.393 0 0 1-.46-.215.994.994 0 0 1-.285-.345.988.988 0 0 1-.1-.45c0-.066.016-.128.05-.185a.158.158 0 0 1 .145-.085h.52c0 .16.013.295.04.405.026.11.068.2.125.27.06.07.136.122.23.155.093.03.208.045.345.045ZM293.248 57.91a.423.423 0 0 1-.08.084.182.182 0 0 1-.11.03.304.304 0 0 1-.165-.06 2.29 2.29 0 0 0-.225-.14 1.6 1.6 0 0 0-.325-.135 1.472 1.472 0 0 0-.47-.065c-.25 0-.47.045-.66.135-.19.087-.35.214-.48.38a1.773 1.773 0 0 0-.29.605 3.048 3.048 0 0 0-.095.795c0 .307.035.58.105.82.07.237.168.437.295.6.13.16.285.284.465.37.183.084.388.125.615.125.216 0 .395-.025.535-.075.14-.053.255-.111.345-.175.093-.063.17-.12.23-.17a.29.29 0 0 1 .185-.08c.073 0 .13.029.17.085l.25.325c-.11.137-.235.254-.375.35-.14.097-.292.179-.455.245-.16.064-.329.11-.505.14-.177.03-.357.045-.54.045-.317 0-.612-.058-.885-.175a2.033 2.033 0 0 1-.705-.505 2.399 2.399 0 0 1-.47-.82 3.313 3.313 0 0 1-.17-1.105c0-.376.051-.725.155-1.045.106-.32.26-.595.46-.825.203-.233.451-.415.745-.545.296-.13.636-.195 1.02-.195.356 0 .67.059.94.175.273.114.515.275.725.485l-.235.32ZM296.443 61.424c.18 0 .335-.021.465-.065a.932.932 0 0 0 .33-.19.801.801 0 0 0 .195-.29.98.98 0 0 0 .065-.36.986.986 0 0 0-.055-.335.666.666 0 0 0-.185-.28.874.874 0 0 0-.33-.19 1.554 1.554 0 0 0-.5-.07h-1.08v1.78h1.095Zm-.015-2.43c.35 0 .643.042.88.125.24.084.432.195.575.335.147.14.252.302.315.485a1.742 1.742 0 0 1-.025 1.2c-.08.19-.198.355-.355.495-.156.137-.35.245-.58.325-.23.077-.495.115-.795.115h-1.945V57.01h.85v1.985h1.08Zm3.87-1.985v5.065h-.89V57.01h.89Z" fill="#331A2F" fill-opacity=".9"/>
    <path stroke="#331A2F" stroke-opacity=".5" stroke-width=".777" d="M201.433 13v62"/>
    <path d="M66.203 31.169c-.594 0-1.28-.09-2.055-.272l-2.452-.669.669-2.006c1.387.495 2.542.743 3.467.743.495 0 .908-.116 1.238-.347a1.09 1.09 0 0 0 .495-.94c0-.397-.107-.694-.322-.892-.214-.198-.61-.372-1.188-.52l-1.338-.347c-1.849-.479-2.773-1.568-2.773-3.269 0-1.023.388-1.865 1.164-2.526.792-.66 1.824-.99 3.095-.99.512 0 1.115.09 1.808.272l2.452.669-.669 2.006c-1.337-.496-2.352-.743-3.046-.743-.462 0-.85.123-1.164.371-.314.231-.47.537-.47.916 0 .397.107.694.322.892.214.198.61.371 1.188.52l1.313.347c.99.264 1.7.668 2.13 1.213.429.528.643 1.213.643 2.055 0 1.008-.38 1.85-1.139 2.526-.76.66-1.882.991-3.368.991Zm10.592 0c-1.239 0-2.114-.305-2.625-.916-.496-.611-.743-1.544-.743-2.799v-5.918h-1.833v-2.18h1.833V16.46l3.145-.62v3.518h2.724v2.179h-2.724v5.968c0 .974.396 1.461 1.188 1.461.48 0 .991-.149 1.536-.446l.495 1.858a5.851 5.851 0 0 1-2.996.792Zm7.71 0c-1.122 0-2.014-.347-2.674-1.04a3.467 3.467 0 0 1-.99-2.477c0-.71.23-1.279.693-1.708.479-.446 1.222-.793 2.229-1.04l3.987-.99v-1.016c0-.479-.149-.859-.446-1.14-.28-.28-.677-.42-1.189-.42-.578 0-1.882.437-3.912 1.312l-.867-2.006 2.823-1.04c.858-.314 1.486-.47 1.882-.47 1.502 0 2.683.396 3.541 1.188.875.776 1.313 1.8 1.313 3.071v4.26c0 .313.05.784.148 1.411.116.61.264 1.131.446 1.56l-2.7.545c-.33-.363-.676-.867-1.04-1.51-1.105 1.007-2.187 1.51-3.243 1.51Zm1.115-2.204c.644 0 1.354-.371 2.13-1.114v-2.502l-2.477.719c-.792.23-1.188.668-1.188 1.312 0 .495.14.883.42 1.164.281.28.653.421 1.115.421Zm11.816 2.204c-1.238 0-2.113-.305-2.625-.916-.495-.611-.743-1.544-.743-2.799v-5.918h-1.832v-2.18h1.832V16.46l3.145-.62v3.518h2.724v2.179h-2.724v5.968c0 .974.396 1.461 1.189 1.461.479 0 .99-.149 1.535-.446l.496 1.858a5.854 5.854 0 0 1-2.997.792Zm34.976-.223h-3.145v-6.76c0-.991-.148-1.71-.445-2.155-.281-.462-.735-.693-1.362-.693-.628 0-1.305.371-2.031 1.114v8.494h-3.145v-6.76c0-.991-.141-1.71-.421-2.155-.281-.462-.743-.693-1.387-.693-.611 0-1.288.371-2.031 1.114v8.494H115.3V22.65c0-.314-.058-.776-.173-1.387-.099-.627-.24-1.155-.421-1.585l2.674-.544c.347.346.702.85 1.065 1.51 1.04-1.007 2.122-1.51 3.244-1.51 1.668 0 2.799.586 3.393 1.758.363-.479.883-.892 1.56-1.238.677-.347 1.354-.52 2.031-.52 1.255 0 2.187.363 2.798 1.09.628.726.941 1.857.941 3.392v7.33Zm5.71.223c-1.122 0-2.014-.347-2.674-1.04a3.465 3.465 0 0 1-.991-2.477c0-.71.231-1.279.694-1.708.478-.446 1.221-.793 2.228-1.04l3.987-.99v-1.016c0-.479-.148-.859-.445-1.14-.281-.28-.677-.42-1.189-.42-.578 0-1.882.437-3.913 1.312l-.867-2.006 2.824-1.04c.858-.314 1.485-.47 1.882-.47 1.502 0 2.682.396 3.541 1.188.875.776 1.312 1.8 1.312 3.071v4.26c0 .313.05.784.149 1.411.116.61.264 1.131.446 1.56l-2.699.545c-.331-.363-.677-.867-1.041-1.51-1.106 1.007-2.187 1.51-3.244 1.51Zm1.115-2.204c.644 0 1.353-.371 2.129-1.114v-2.502l-2.476.719c-.792.23-1.189.668-1.189 1.312 0 .495.141.883.421 1.164.281.28.652.421 1.115.421Zm11.24 1.981h-3.145V22.65c0-.314-.057-.776-.173-1.387-.099-.627-.239-1.155-.421-1.585l2.675-.544c.511.511.866 1.205 1.064 2.08.331-.66.768-1.172 1.313-1.536a3.267 3.267 0 0 1 1.808-.544c.363 0 .693.057.99.173l-.545 2.7h-.817c-.776 0-1.387.19-1.832.569-.43.363-.735.974-.917 1.832v6.538Zm16.354 0h-3.863l-3.839-5.993v5.993h-3.145V14.404l3.145-.62v10.303l3.913-4.73h3.541l-4.655 5.175 4.903 6.414Zm5.637.223c-1.865 0-3.277-.553-4.234-1.66-.941-1.122-1.412-2.591-1.412-4.407 0-1.816.487-3.26 1.461-4.334.974-1.09 2.328-1.634 4.061-1.634 3.352 0 5.028 1.741 5.028 5.225 0 .363-.042.668-.124.916h-7.182c0 1.238.223 2.163.669 2.774.462.61 1.098.916 1.907.916.908 0 2.096-.33 3.566-.99l.866 2.005-2.625.966c-.445.149-1.106.223-1.981.223Zm-.297-9.831c-.66 0-1.18.23-1.56.693-.363.462-.545 1.04-.545 1.734h4.037c0-1.618-.644-2.427-1.932-2.427Zm11.368 9.831c-1.239 0-2.114-.305-2.626-.916-.495-.611-.742-1.544-.742-2.799v-5.918h-1.833v-2.18h1.833V16.46l3.145-.62v3.518h2.724v2.179h-2.724v5.968c0 .974.396 1.461 1.188 1.461.479 0 .991-.149 1.536-.446l.495 1.858a5.851 5.851 0 0 1-2.996.792Z" fill="#54618E"/>
    <path d="M111.71 30.946h-2.997v-3.814h-6.761l-.668-1.931 7.058-10.104h3.368v9.708h1.585v2.328h-1.585v3.813Zm-2.997-6.141v-6.44l-4.383 6.44h4.383Z" fill="#D653D2"/>
    <mask id="b" style="mask-type:alpha" maskUnits="userSpaceOnUse" x="0" y="0" width="47" height="23">
        <ellipse cx="23.5" cy="11.484" rx="23.5" ry="11.049" fill="url(#a)"/>
    </mask>
    <g mask="url(#b)">
        <ellipse cx="23.5" cy="11.484" rx="23.5" ry="11.049" fill="url(#c)"/>
        <path d="M30.973 14.55V2.269c0-.188.012-.393.035-.614.047-.22.094-.447.141-.68L9.576 14.55h21.397Zm19.97 0v.861c0 .122-.083.221-.247.299-.142.066-.377.1-.706.1H33.934v6.728h-2.961V15.81H7.391c-.353 0-.623-.033-.811-.1-.188-.077-.317-.176-.388-.297l-.317-.78L30.938-.947h2.996V14.55h17.008Z" fill="#fff"/>
    </g>
    <defs>
        <linearGradient id="a" x1="54.05" y1="-6.195" x2="42.289" y2="31.509" gradientUnits="userSpaceOnUse">
            <stop stop-color="#F0A"/>
            <stop offset="1" stop-color="#8912DE"/>
        </linearGradient>
        <linearGradient id="c" x1="54.05" y1="-6.195" x2="42.289" y2="31.509" gradientUnits="userSpaceOnUse">
            <stop stop-color="#F0A"/>
            <stop offset="1" stop-color="#8912DE"/>
        </linearGradient>
    </defs>
</svg>
