<svg xmlns="http://www.w3.org/2000/svg" viewBox="0 0 353.093 80.174" xml:space="preserve"><path fill="#331A2F" fill-opacity=".9" d="M228.193 31.943v7.165h-.97v-3.26h-3.865v3.26h-.97v-7.165h.97v3.195h3.865v-3.195h.97zm4.22 4.885a7.189 7.189 0 0 0-1.05.1c-.287.05-.522.117-.705.2a.994.994 0 0 0-.395.295.644.644 0 0 0-.12.38c0 .133.022.248.065.345.04.092.1.174.175.24a.8.8 0 0 0 .265.135c.103.027.213.04.33.04.157 0 .3-.015.43-.045.254-.07.49-.19.695-.355.107-.083.21-.178.31-.285v-1.05zm-2.875-2.07c.28-.27.582-.472.905-.605s.682-.2 1.075-.2c.283 0 .535.047.755.14.434.179.763.545.895.995.077.237.115.497.115.78v3.24h-.395a.409.409 0 0 1-.2-.04c-.047-.03-.083-.087-.11-.17l-.1-.48a5.295 5.295 0 0 1-.39.33c-.127.093-.26.173-.4.24a2.16 2.16 0 0 1-.45.145 2.316 2.316 0 0 1-.525.055c-.197 0-.382-.027-.555-.08a1.345 1.345 0 0 1-.455-.25 1.211 1.211 0 0 1-.305-.415c-.073-.17-.11-.37-.11-.6 0-.2.055-.392.165-.575.11-.187.288-.352.535-.495.247-.143.568-.26.965-.35.48-.103.97-.156 1.46-.16v-.395c0-.393-.085-.69-.255-.89-.17-.203-.418-.305-.745-.305-.22 0-.405.028-.555.085a1.96 1.96 0 0 0-.385.185c-.107.067-.2.128-.28.185a.401.401 0 0 1-.23.08.265.265 0 0 1-.155-.045.48.48 0 0 1-.11-.12l-.16-.285zm8.591 3.7v-3.715h-1.605c-.034.52-.08.98-.14 1.38s-.13.752-.21 1.055a4.62 4.62 0 0 1-.26.765 2.54 2.54 0 0 1-.295.515h2.51zm1.79-.025v2.145c0 .087-.025.153-.075.2a.243.243 0 0 1-.185.075h-.545v-1.745h-4.26v1.49c0 .063-.02.122-.06.175-.037.053-.099.08-.185.08h-.56v-2.395h.165c.116 0 .231-.02.345-.06a.869.869 0 0 0 .335-.225c.106-.113.206-.272.3-.475.114-.255.2-.522.26-.795.076-.327.143-.723.2-1.19.056-.47.101-1.027.135-1.67h3.205v4.39h.925zm4.204-2.41c0-.207-.03-.395-.09-.565a1.206 1.206 0 0 0-.255-.445 1.075 1.075 0 0 0-.405-.29 1.348 1.348 0 0 0-.545-.105c-.427 0-.765.125-1.015.375-.247.247-.4.59-.46 1.03h2.77zm.72 2.375c-.11.133-.242.25-.395.35a2.563 2.563 0 0 1-.495.24 2.95 2.95 0 0 1-.54.14 3.19 3.19 0 0 1-.555.05c-.35 0-.674-.058-.97-.175a2.185 2.185 0 0 1-.765-.52 2.423 2.423 0 0 1-.5-.85 3.446 3.446 0 0 1-.18-1.16c0-.353.053-.683.16-.99.11-.307.266-.572.47-.795a2.1 2.1 0 0 1 .745-.53c.293-.13.623-.195.99-.195.303 0 .583.052.84.155.26.1.483.247.67.44.19.19.338.427.445.71.106.28.16.6.16.96 0 .14-.015.233-.045.28-.03.047-.087.07-.17.07h-3.385c.01.32.053.598.13.835.08.237.19.435.33.595.14.157.306.275.5.355.193.077.41.115.65.115.223 0 .415-.025.575-.075.25-.08.49-.192.71-.335a.39.39 0 0 1 .205-.08c.073 0 .13.028.17.085l.25.325zm8.184.71h-.62a.747.747 0 0 1-.37-.075.487.487 0 0 1-.195-.235l-.985-1.575a.786.786 0 0 0-.705-.39h-.51v2.28h-.865v-2.28h-.505a.787.787 0 0 0-.705.39l-.985 1.575a.515.515 0 0 1-.205.235.72.72 0 0 1-.365.075h-.615l1.33-2.095c.086-.147.185-.265.295-.355s.245-.158.405-.205a.921.921 0 0 1-.325-.175 1.432 1.432 0 0 1-.245-.305l-1.32-1.93h.7c.086 0 .165.023.235.07.07.043.125.103.165.18l1.075 1.6c.073.11.16.195.265.255a.747.747 0 0 0 .365.085h.435v-2.19h.865v2.19h.425a.71.71 0 0 0 .64-.34l1.075-1.6a.453.453 0 0 1 .405-.25h.7l-1.32 1.93c-.077.123-.16.225-.25.305a.88.88 0 0 1-.32.175c.16.047.295.115.405.205s.208.208.295.355l1.33 2.095zm5.051-5.065v5.065h-.895v-2.37h-2.43v2.37h-.895v-5.065h.895v2.02h2.43v-2.02h.895zm3.359 4.415c.18 0 .335-.022.465-.065a.923.923 0 0 0 .33-.19.802.802 0 0 0 .195-.29.96.96 0 0 0 .065-.36.986.986 0 0 0-.055-.335.666.666 0 0 0-.185-.28.872.872 0 0 0-.33-.19 1.554 1.554 0 0 0-.5-.07h-1.08v1.78h1.095zm-.015-2.43c.35 0 .644.042.88.125.24.083.432.195.575.335.147.14.252.302.315.485.064.183.095.373.095.57 0 .227-.04.437-.12.63-.08.19-.198.355-.355.495-.156.137-.35.245-.58.325-.23.077-.495.115-.795.115h-1.945v-5.065h.85v1.985h1.08zm3.87-1.985v5.065h-.89v-5.065h.89zm5.762 0v5.065h-.89v-3.44c0-.067.003-.138.01-.215.007-.077.015-.153.025-.23-.03.067-.06.128-.09.185-.03.057-.062.108-.095.155l-2.445 3.325a.855.855 0 0 1-.14.155.265.265 0 0 1-.18.07h-.54v-5.065h.895v3.44c0 .063-.003.133-.01.21a5.75 5.75 0 0 1-.025.225c.03-.063.06-.122.09-.175.03-.057.06-.108.09-.155l2.445-3.325a.731.731 0 0 1 .14-.15.274.274 0 0 1 .185-.075h.535zm-2.115-1.225c.137 0 .252-.015.345-.045a.501.501 0 0 0 .225-.155c.06-.07.103-.16.13-.27s.04-.245.04-.405h.52c.063 0 .112.028.145.085s.05.118.05.185a.988.988 0 0 1-.1.45.987.987 0 0 1-.29.345c-.137.1-.291.173-.455.215a2.28 2.28 0 0 1-.61.075 2.28 2.28 0 0 1-.61-.075 1.403 1.403 0 0 1-.46-.215 1.016 1.016 0 0 1-.285-.345.988.988 0 0 1-.1-.45c0-.067.017-.128.05-.185a.159.159 0 0 1 .145-.085h.52c0 .16.013.295.04.405s.068.2.125.27a.53.53 0 0 0 .23.155c.093.03.208.045.345.045zm9.606 2.125a.426.426 0 0 1-.08.085.182.182 0 0 1-.11.03.304.304 0 0 1-.165-.06 2.267 2.267 0 0 0-.225-.14 1.6 1.6 0 0 0-.795-.2c-.25 0-.47.045-.66.135-.19.087-.35.213-.48.38a1.772 1.772 0 0 0-.29.605c-.067.26-.098.527-.095.795 0 .307.035.58.105.82.07.237.168.437.295.6.13.16.285.283.465.37.183.083.388.125.615.125.216 0 .395-.025.535-.075.14-.053.255-.112.345-.175.093-.063.17-.12.23-.17a.29.29 0 0 1 .185-.08c.073 0 .13.028.17.085l.25.325c-.11.137-.235.253-.375.35s-.292.178-.455.245c-.16.063-.329.11-.505.14-.177.03-.357.045-.54.045a2.23 2.23 0 0 1-.885-.175 2.033 2.033 0 0 1-.705-.505 2.4 2.4 0 0 1-.47-.82 3.314 3.314 0 0 1-.17-1.105c0-.377.051-.725.155-1.045.106-.32.26-.595.46-.825a2.1 2.1 0 0 1 .745-.545c.296-.13.636-.195 1.02-.195.356 0 .67.058.94.175.273.113.515.275.725.485l-.235.32zm4.552 1.08c0-.207-.03-.395-.09-.565a1.206 1.206 0 0 0-.255-.445 1.075 1.075 0 0 0-.405-.29 1.348 1.348 0 0 0-.545-.105c-.427 0-.765.125-1.015.375-.247.247-.4.59-.46 1.03h2.77zm.72 2.375c-.11.133-.242.25-.395.35a2.508 2.508 0 0 1-.495.24c-.173.063-.353.11-.54.14-.183.033-.369.05-.555.05a2.63 2.63 0 0 1-.97-.175 2.204 2.204 0 0 1-.765-.52 2.438 2.438 0 0 1-.5-.85 3.446 3.446 0 0 1-.18-1.16c0-.353.053-.683.16-.99.11-.307.267-.572.47-.795.207-.229.46-.41.745-.53.293-.13.623-.195.99-.195.303 0 .583.052.84.155.26.1.483.247.67.44.19.19.338.427.445.71.107.28.16.6.16.96 0 .14-.015.233-.045.28-.03.047-.087.07-.17.07h-3.385c.01.32.053.598.13.835.08.237.19.435.33.595.14.157.307.275.5.355.193.077.41.115.65.115.223 0 .415-.025.575-.075.25-.08.49-.192.71-.335a.39.39 0 0 1 .205-.08c.073 0 .13.028.17.085l.25.325zm2.068-.51c.164.22.342.375.535.465.194.09.41.135.65.135.474 0 .837-.168 1.09-.505.254-.337.38-.817.38-1.44a3.5 3.5 0 0 0-.09-.85 1.593 1.593 0 0 0-.25-.58.975.975 0 0 0-.405-.335 1.345 1.345 0 0 0-.545-.105c-.29 0-.545.067-.765.2-.233.15-.437.341-.6.565v2.45zm-.045-3.06c.214-.263.46-.475.74-.635s.6-.24.96-.24c.294 0 .559.057.795.17.237.11.439.275.605.495.167.217.295.487.385.81s.135.695.135 1.115c0 .373-.05.722-.15 1.045-.1.32-.245.598-.435.835a2.028 2.028 0 0 1-.69.555c-.27.133-.575.2-.915.2a1.9 1.9 0 0 1-.8-.155 1.92 1.92 0 0 1-.585-.44v2.24h-.895v-6.78h.535c.127 0 .205.062.235.185l.08.6zm6.691 3.655c.333 0 .597-.077.79-.23a.78.78 0 0 0 .29-.64.903.903 0 0 0-.055-.325.639.639 0 0 0-.18-.26.853.853 0 0 0-.335-.17 1.824 1.824 0 0 0-.505-.06h-1.095v1.685h1.09zm-1.09-3.84v1.59h.975c.147 0 .282-.02.405-.06a1.04 1.04 0 0 0 .325-.175.823.823 0 0 0 .21-.27.815.815 0 0 0 .025-.62.55.55 0 0 0-.17-.235.853.853 0 0 0-.315-.165 1.53 1.53 0 0 0-.48-.065h-.975zm1-.6c.313 0 .582.032.805.095s.407.15.55.26a.98.98 0 0 1 .315.38c.067.147.1.303.1.47 0 .11-.015.225-.045.345a1.133 1.133 0 0 1-.465.645 1.53 1.53 0 0 1-.48.205c.387.067.685.202.895.405.21.2.315.465.315.795 0 .247-.05.462-.15.645-.097.18-.232.332-.405.455-.17.123-.37.215-.6.275s-.477.09-.74.09h-1.95v-5.065h1.855zm7.451 0v5.065h-.89v-3.44c0-.067.003-.138.01-.215.007-.077.015-.153.025-.23-.03.067-.06.128-.09.185-.03.057-.062.108-.095.155l-2.445 3.325a.855.855 0 0 1-.14.155.265.265 0 0 1-.18.07h-.54v-5.065h.895v3.44c0 .063-.003.133-.01.21a5.75 5.75 0 0 1-.025.225c.03-.063.06-.122.09-.175.03-.057.06-.108.09-.155l2.445-3.325a.731.731 0 0 1 .14-.15.274.274 0 0 1 .185-.075h.535zm4.932.9a.4.4 0 0 1-.08.085.18.18 0 0 1-.11.03.304.304 0 0 1-.165-.06 2.267 2.267 0 0 0-.225-.14 1.6 1.6 0 0 0-.795-.2c-.25 0-.47.045-.66.135-.19.087-.35.213-.48.38a1.79 1.79 0 0 0-.29.605 3.09 3.09 0 0 0-.095.795c0 .307.035.58.105.82.07.237.168.437.295.6.13.16.285.283.465.37.183.083.388.125.615.125.217 0 .395-.025.535-.075.14-.053.255-.112.345-.175.093-.063.17-.12.23-.17a.29.29 0 0 1 .185-.08c.073 0 .13.028.17.085l.25.325c-.11.137-.235.253-.375.35s-.292.178-.455.245c-.16.063-.328.11-.505.14s-.357.045-.54.045a2.23 2.23 0 0 1-.885-.175 2.033 2.033 0 0 1-.705-.505 2.4 2.4 0 0 1-.47-.82 3.34 3.34 0 0 1-.17-1.105c0-.377.052-.725.155-1.045a2.4 2.4 0 0 1 .46-.825c.205-.234.46-.42.745-.545.297-.13.637-.195 1.02-.195.357 0 .67.058.94.175.273.113.515.275.725.485l-.235.32zm-79.901 15.885a7.189 7.189 0 0 0-1.05.1c-.287.05-.522.117-.705.2a.994.994 0 0 0-.395.295.644.644 0 0 0-.12.38c0 .133.022.248.065.345.04.092.1.174.175.24a.8.8 0 0 0 .265.135c.103.027.213.04.33.04.157 0 .3-.015.43-.045.254-.07.49-.19.695-.355.107-.083.21-.178.31-.285v-1.05zm-2.875-2.07c.28-.27.582-.472.905-.605s.682-.2 1.075-.2c.283 0 .535.047.755.14.434.179.763.545.895.995.077.237.115.497.115.78v3.24h-.395a.409.409 0 0 1-.2-.04c-.047-.03-.083-.087-.11-.17l-.1-.48a5.295 5.295 0 0 1-.39.33c-.127.093-.26.173-.4.24a2.16 2.16 0 0 1-.45.145 2.316 2.316 0 0 1-.525.055c-.197 0-.382-.027-.555-.08a1.345 1.345 0 0 1-.455-.25 1.211 1.211 0 0 1-.305-.415c-.073-.17-.11-.37-.11-.6 0-.2.055-.392.165-.575.11-.187.288-.352.535-.495.247-.143.568-.26.965-.35.48-.103.97-.156 1.46-.16v-.395c0-.393-.085-.69-.255-.89-.17-.203-.418-.305-.745-.305-.22 0-.405.028-.555.085a1.96 1.96 0 0 0-.385.185c-.107.067-.2.128-.28.185a.401.401 0 0 1-.23.08.265.265 0 0 1-.155-.045.48.48 0 0 1-.11-.12l-.16-.285zm9.321-.715v5.065h-.895v-2.37h-2.43v2.37h-.895v-5.065h.895v2.02h2.43v-2.02h.895zm4.159 2.785a7.189 7.189 0 0 0-1.05.1 2.99 2.99 0 0 0-.705.2 1 1 0 0 0-.395.295.644.644 0 0 0-.12.38c0 .133.022.248.065.345.04.092.1.174.175.24a.8.8 0 0 0 .265.135c.104.027.214.04.33.04.157 0 .3-.015.43-.045.254-.07.49-.19.695-.355.107-.083.21-.178.31-.285v-1.05zm-2.875-2.07c.28-.27.582-.472.905-.605.324-.133.682-.2 1.075-.2.284 0 .535.047.755.14.434.179.763.545.895.995.077.237.115.497.115.78v3.24h-.395a.412.412 0 0 1-.2-.04c-.046-.03-.083-.087-.11-.17l-.1-.48a5.295 5.295 0 0 1-.39.33c-.126.093-.26.173-.4.24a2.16 2.16 0 0 1-.45.145 2.304 2.304 0 0 1-.525.055c-.196 0-.381-.027-.555-.08a1.345 1.345 0 0 1-.455-.25 1.224 1.224 0 0 1-.305-.415c-.073-.17-.11-.37-.11-.6 0-.2.055-.392.165-.575.11-.187.289-.352.535-.495.247-.143.569-.26.965-.35a7.22 7.22 0 0 1 1.46-.16v-.395c0-.393-.085-.69-.255-.89-.17-.203-.418-.305-.745-.305-.22 0-.405.028-.555.085-.135.048-.264.11-.385.185-.095.06-.188.12-.28.185a.399.399 0 0 1-.23.08.267.267 0 0 1-.155-.045.48.48 0 0 1-.11-.12l-.16-.285zm9.541 4.35h-.89v-4.365h-1.6c-.04.643-.1 1.2-.18 1.67-.08.467-.177.865-.29 1.195-.11.327-.235.593-.375.8a1.913 1.913 0 0 1-.435.475c-.15.113-.307.19-.47.23-.16.04-.32.06-.48.06-.283 0-.425-.045-.425-.135v-.565h.26c.113 0 .228-.02.345-.06a.878.878 0 0 0 .34-.23c.113-.113.222-.272.325-.475.12-.256.215-.524.28-.8.087-.33.16-.728.22-1.195.063-.47.112-1.027.145-1.67h3.23v5.065zm5.755-5.065v5.065h-.89v-3.44c0-.067.003-.138.01-.215.006-.077.015-.153.025-.23-.03.067-.06.128-.09.185-.03.057-.062.108-.095.155l-2.445 3.325a.893.893 0 0 1-.14.155.27.27 0 0 1-.18.07h-.54v-5.065h.895v3.44c0 .063-.004.133-.01.21a5.75 5.75 0 0 1-.025.225c.03-.063.06-.122.09-.175.03-.057.06-.108.09-.155l2.445-3.325a.705.705 0 0 1 .14-.15.272.272 0 0 1 .185-.075h.535zm5.617.68h-1.945v4.385h-.89v-4.385h-1.945v-.68h4.78v.68zm5.193-.68v5.065h-.89v-3.44c0-.067.004-.138.01-.215.007-.077.015-.153.025-.23-.03.067-.06.128-.09.185-.03.057-.061.108-.095.155l-2.445 3.325a.82.82 0 0 1-.14.155.265.265 0 0 1-.18.07h-.54v-5.065h.895v3.44c0 .063-.003.133-.01.21a4.77 4.77 0 0 1-.025.225c.03-.063.06-.122.09-.175.03-.057.06-.108.09-.155l2.445-3.325a.76.76 0 0 1 .14-.15.276.276 0 0 1 .185-.075h.535zm4.482.25a.56.56 0 0 1 .185-.18.463.463 0 0 1 .245-.07h.695l-1.315 1.93c-.08.123-.163.225-.25.305a.933.933 0 0 1-.32.18c.16.043.295.112.405.205.11.09.208.207.295.35l1.33 2.095h-.62a.71.71 0 0 1-.37-.08.702.702 0 0 1-.225-.23l-.985-1.575a.77.77 0 0 0-.705-.39h-.545v2.28h-.895v-5.07h.895v2.19h.48a.71.71 0 0 0 .625-.34l1.075-1.6zm6.446-.25v5.065h-.89v-3.44c0-.067.003-.138.01-.215.007-.077.015-.153.025-.23-.03.067-.06.128-.09.185-.03.057-.062.108-.095.155l-2.445 3.325a.855.855 0 0 1-.14.155.265.265 0 0 1-.18.07h-.54v-5.065h.895v3.44c0 .063-.003.133-.01.21a5.75 5.75 0 0 1-.025.225c.03-.063.06-.122.09-.175.03-.057.06-.108.09-.155l2.445-3.325a.731.731 0 0 1 .14-.15.274.274 0 0 1 .185-.075h.535zm7.455 4.415v-3.715h-1.605c-.033.52-.08.98-.14 1.38-.06.4-.13.752-.21 1.055a4.44 4.44 0 0 1-.26.765 2.459 2.459 0 0 1-.295.515h2.51zm1.79-.025v2.145c0 .087-.025.153-.075.2a.24.24 0 0 1-.185.075h-.545v-1.745h-4.26v1.49c0 .063-.02.122-.06.175-.036.053-.098.08-.185.08h-.56v-2.395h.165c.117 0 .232-.02.345-.06a.854.854 0 0 0 .335-.225c.107-.113.207-.272.3-.475.114-.255.202-.522.26-.795.077-.327.144-.723.2-1.19.057-.47.102-1.027.135-1.67h3.205v4.39h.925zm5.342.675h-.89v-4.365h-1.6c-.04.643-.1 1.2-.18 1.67-.08.467-.177.865-.29 1.195-.11.327-.235.593-.375.8a1.913 1.913 0 0 1-.435.475c-.15.113-.307.19-.47.23-.16.04-.32.06-.48.06-.283 0-.425-.045-.425-.135v-.565h.26c.113 0 .228-.02.345-.06a.878.878 0 0 0 .34-.23c.113-.113.222-.272.325-.475.12-.256.215-.524.28-.8.087-.33.16-.728.22-1.195.063-.47.112-1.027.145-1.67h3.23v5.065zm4.075-2.7v-1.765h-.85a1.2 1.2 0 0 0-.48.085.87.87 0 0 0-.315.21.735.735 0 0 0-.165.285.985.985 0 0 0-.05.31c0 .273.1.488.3.645.2.153.473.23.82.23h.74zm.85-2.365v5.065h-.85v-2.135h-.39a.932.932 0 0 0-.235.025.56.56 0 0 0-.16.06.41.41 0 0 0-.115.105c-.034.04-.069.087-.105.14l-1.11 1.495a.589.589 0 0 1-.21.235c-.08.05-.199.075-.355.075h-.62l1.47-1.91c.12-.2.278-.333.475-.4a2.084 2.084 0 0 1-.65-.18 1.544 1.544 0 0 1-.435-.305c-.11-.12-.19-.252-.24-.395a1.313 1.313 0 0 1-.075-.435c0-.173.033-.347.1-.52.07-.173.18-.327.33-.46.15-.137.343-.247.58-.33.24-.087.53-.13.87-.13h1.725zm8.195 5.065h-.895v-4.385h-2.43v4.385h-.895v-5.065h4.22v5.065zm3.55-5.145c.37 0 .703.062 1 .185.594.242 1.05.737 1.24 1.35.113.32.17.678.17 1.075 0 .4-.057.76-.17 1.08a2.15 2.15 0 0 1-1.24 1.345c-.297.12-.63.18-1 .18-.374 0-.71-.06-1.01-.18a2.142 2.142 0 0 1-.76-.525c-.21-.227-.372-.5-.485-.82a3.31 3.31 0 0 1-.165-1.08c0-.397.055-.755.165-1.075.113-.323.275-.598.485-.825a2.14 2.14 0 0 1 .76-.525 2.63 2.63 0 0 1 1.01-.185zm0 4.52c.5 0 .873-.167 1.12-.5.246-.337.37-.805.37-1.405 0-.603-.124-1.073-.37-1.41-.247-.337-.62-.505-1.12-.505-.254 0-.475.043-.665.13a1.247 1.247 0 0 0-.47.375 1.704 1.704 0 0 0-.28.605c-.06.237-.09.505-.09.805 0 .6.123 1.068.37 1.405.25.333.628.5 1.135.5zm7.064-3.54a.426.426 0 0 1-.08.085.182.182 0 0 1-.11.03.304.304 0 0 1-.165-.06 2.267 2.267 0 0 0-.225-.14 1.6 1.6 0 0 0-.795-.2c-.25 0-.47.045-.66.135-.19.087-.35.213-.48.38a1.772 1.772 0 0 0-.29.605c-.067.26-.098.527-.095.795 0 .307.035.58.105.82.07.237.168.437.295.6.13.16.285.283.465.37.183.083.388.125.615.125.216 0 .395-.025.535-.075.14-.053.255-.112.345-.175.093-.063.17-.12.23-.17a.29.29 0 0 1 .185-.08c.073 0 .13.028.17.085l.25.325c-.11.137-.235.253-.375.35s-.292.178-.455.245c-.16.063-.329.11-.505.14-.177.03-.357.045-.54.045a2.23 2.23 0 0 1-.885-.175 2.033 2.033 0 0 1-.705-.505 2.4 2.4 0 0 1-.47-.82 3.314 3.314 0 0 1-.17-1.105c0-.377.051-.725.155-1.045.106-.32.26-.595.46-.825a2.1 2.1 0 0 1 .745-.545c.296-.13.636-.195 1.02-.195.356 0 .67.058.94.175.273.113.515.275.725.485l-.235.32zm5.46-.22h-1.945v4.385h-.89v-4.385h-1.945v-.68h4.78v.68zm3.545 2.105a7.19 7.19 0 0 0-1.05.1c-.287.05-.522.117-.705.2a.994.994 0 0 0-.395.295.644.644 0 0 0-.12.38.83.83 0 0 0 .065.345c.04.092.1.174.175.24a.79.79 0 0 0 .265.135c.103.027.213.04.33.04.156 0 .3-.015.43-.045.13-.033.251-.08.365-.14.116-.06.226-.132.33-.215.106-.083.21-.178.31-.285v-1.05zm-2.875-2.07c.28-.27.581-.472.905-.605a2.79 2.79 0 0 1 1.075-.2c.283 0 .535.047.755.14.434.179.763.545.895.995.076.237.115.497.115.78v3.24h-.395a.406.406 0 0 1-.2-.04c-.047-.03-.084-.087-.11-.17l-.1-.48a5.743 5.743 0 0 1-.39.33 2.51 2.51 0 0 1-.4.24 2.16 2.16 0 0 1-.45.145 2.316 2.316 0 0 1-.525.055c-.197 0-.382-.027-.555-.08a1.335 1.335 0 0 1-.455-.25 1.198 1.198 0 0 1-.305-.415c-.074-.17-.11-.37-.11-.6 0-.2.055-.392.165-.575.11-.187.288-.352.535-.495.246-.143.568-.26.965-.35a7.21 7.21 0 0 1 1.46-.16v-.395c0-.393-.085-.69-.255-.89-.17-.203-.419-.305-.745-.305-.22 0-.405.028-.555.085a1.96 1.96 0 0 0-.385.185c-.107.067-.2.128-.28.185a.403.403 0 0 1-.23.08.265.265 0 0 1-.155-.045.463.463 0 0 1-.11-.12l-.16-.285zm7.045 3.725c.334 0 .597-.077.79-.23a.778.778 0 0 0 .29-.64.903.903 0 0 0-.055-.325.62.62 0 0 0-.18-.26.853.853 0 0 0-.335-.17 1.819 1.819 0 0 0-.505-.06h-1.095v1.685h1.09zm-1.09-3.84v1.59h.975c.147 0 .282-.02.405-.06a1.04 1.04 0 0 0 .325-.175.823.823 0 0 0 .21-.27.815.815 0 0 0 .025-.62.55.55 0 0 0-.17-.235.853.853 0 0 0-.315-.165 1.53 1.53 0 0 0-.48-.065h-.975zm1-.6c.314 0 .582.032.805.095.224.063.407.15.55.26a.964.964 0 0 1 .315.38c.067.147.1.303.1.47 0 .11-.015.225-.045.345a1.133 1.133 0 0 1-.465.645c-.147.096-.31.165-.48.205.387.067.685.202.895.405.21.2.315.465.315.795 0 .247-.05.462-.15.645-.096.18-.231.332-.405.455-.17.123-.37.215-.6.275s-.476.09-.74.09h-1.95v-5.065h1.855zm10.851 4.39v2.145c0 .087-.025.153-.075.2a.24.24 0 0 1-.185.075h-.55v-1.745h-6.935v-5.065h.895v4.39h2.065v-4.39h.895v4.39h2.065v-4.39h.895v4.39h.93zm5.243-4.39v5.065h-.89v-3.44c0-.067.003-.138.01-.215.007-.077.015-.153.025-.23-.03.067-.06.128-.09.185-.03.057-.062.108-.095.155l-2.445 3.325a.855.855 0 0 1-.14.155.265.265 0 0 1-.18.07h-.54v-5.065h.895v3.44c0 .063-.003.133-.01.21a5.75 5.75 0 0 1-.025.225c.03-.063.06-.122.09-.175.03-.057.06-.108.09-.155l2.445-3.325a.731.731 0 0 1 .14-.15.274.274 0 0 1 .185-.075h.535zm4.482.25a.56.56 0 0 1 .185-.18.463.463 0 0 1 .245-.07h.695l-1.315 1.93c-.08.123-.163.225-.25.305a.933.933 0 0 1-.32.18c.16.043.295.112.405.205.11.09.208.207.295.35l1.33 2.095h-.62a.71.71 0 0 1-.37-.08.702.702 0 0 1-.225-.23l-.985-1.575a.77.77 0 0 0-.705-.39h-.545v2.28h-.895v-5.07h.895v2.19h.48a.71.71 0 0 0 .625-.34l1.075-1.6zm4.04-.33c.37 0 .704.062 1 .185.297.123.55.298.76.525.21.227.37.502.48.825.114.32.17.678.17 1.075 0 .4-.056.76-.17 1.08-.11.32-.27.593-.48.82-.21.227-.463.402-.76.525-.296.12-.63.18-1 .18a2.7 2.7 0 0 1-1.01-.18 2.15 2.15 0 0 1-.76-.525 2.35 2.35 0 0 1-.485-.82 3.31 3.31 0 0 1-.165-1.08c0-.397.055-.755.165-1.075.114-.323.275-.598.485-.825s.464-.402.76-.525c.3-.123.637-.185 1.01-.185zm0 4.52c.5 0 .874-.167 1.12-.5.247-.337.37-.805.37-1.405 0-.603-.123-1.073-.37-1.41-.246-.337-.62-.505-1.12-.505a1.59 1.59 0 0 0-.665.13 1.263 1.263 0 0 0-.47.375 1.74 1.74 0 0 0-.28.605c-.06.237-.09.505-.09.805 0 .6.124 1.068.37 1.405.25.333.629.5 1.135.5zm5.484 0c.333 0 .597-.077.79-.23a.778.778 0 0 0 .29-.64.903.903 0 0 0-.055-.325.63.63 0 0 0-.18-.26.853.853 0 0 0-.335-.17 1.819 1.819 0 0 0-.505-.06h-1.095v1.685h1.09zm-1.09-3.84v1.59h.975c.147 0 .282-.02.405-.06a1.04 1.04 0 0 0 .325-.175.823.823 0 0 0 .21-.27.815.815 0 0 0 .025-.62.55.55 0 0 0-.17-.235.853.853 0 0 0-.315-.165 1.53 1.53 0 0 0-.48-.065h-.975zm1-.6c.313 0 .582.032.805.095.224.063.407.15.55.26a.98.98 0 0 1 .315.38c.067.147.1.303.1.47 0 .11-.015.225-.045.345a1.133 1.133 0 0 1-.465.645c-.147.096-.31.165-.48.205.387.067.685.202.895.405.21.2.315.465.315.795 0 .247-.05.462-.15.645-.097.18-.232.332-.405.455-.17.123-.37.215-.6.275s-.477.09-.74.09h-1.95v-5.065h1.855zm-124.705 14v5.065h-.895v-2.37h-2.43v2.37h-.895v-5.065h.895v2.02h2.43v-2.02h.895zm4.16 2.785a7.189 7.189 0 0 0-1.05.1c-.287.05-.522.117-.705.2a.994.994 0 0 0-.395.295.644.644 0 0 0-.12.38.83.83 0 0 0 .065.345c.04.092.1.174.175.24a.79.79 0 0 0 .265.135c.103.027.213.04.33.04.156 0 .3-.015.43-.045.13-.033.251-.08.365-.14.116-.06.226-.132.33-.215.106-.083.21-.178.31-.285v-1.05zm-2.875-2.07c.28-.27.581-.472.905-.605.323-.133.681-.2 1.075-.2.283 0 .535.047.755.14.434.179.763.545.895.995.076.237.115.497.115.78v3.24h-.395a.406.406 0 0 1-.2-.04c-.047-.03-.084-.087-.11-.17l-.1-.48a5.746 5.746 0 0 1-.39.33c-.127.093-.26.173-.4.24a2.16 2.16 0 0 1-.45.145 2.316 2.316 0 0 1-.525.055c-.197 0-.382-.027-.555-.08a1.335 1.335 0 0 1-.455-.25 1.198 1.198 0 0 1-.305-.415c-.074-.17-.11-.37-.11-.6 0-.2.055-.392.165-.575.11-.187.288-.352.535-.495.246-.143.568-.26.965-.35a7.21 7.21 0 0 1 1.46-.16v-.395c0-.393-.085-.69-.255-.89-.17-.203-.419-.305-.745-.305-.22 0-.405.028-.555.085a1.96 1.96 0 0 0-.385.185c-.107.067-.2.128-.28.185a.403.403 0 0 1-.23.08.265.265 0 0 1-.155-.045.463.463 0 0 1-.11-.12l-.16-.285zm13.304-.73v5.08h-.805v-3.365c0-.093.005-.197.015-.31.012-.109.029-.217.05-.325l-1.76 3.085a.34.34 0 0 1-.105.12.256.256 0 0 1-.15.045h-.1a.28.28 0 0 1-.155-.045.34.34 0 0 1-.105-.12l-1.79-3.095c.017.1.032.21.045.33.013.117.02.222.02.315v3.365h-.805v-5.08h.715a.41.41 0 0 1 .185.045c.06.027.112.078.155.155l1.58 2.64c.077.153.145.315.205.485.053-.167.12-.33.2-.485l1.55-2.64a.342.342 0 0 1 .155-.16.452.452 0 0 1 .185-.04h.715zm4.151 2.8a7.189 7.189 0 0 0-1.05.1c-.287.05-.522.117-.705.2a.994.994 0 0 0-.395.295.644.644 0 0 0-.12.38.83.83 0 0 0 .065.345c.04.092.1.174.175.24a.79.79 0 0 0 .265.135c.103.027.213.04.33.04.156 0 .3-.015.43-.045.13-.033.251-.08.365-.14.116-.06.226-.132.33-.215.106-.083.21-.178.31-.285v-1.05zm-2.875-2.07c.28-.27.581-.472.905-.605.323-.133.681-.2 1.075-.2.283 0 .535.047.755.14.434.179.763.545.895.995.076.237.115.497.115.78v3.24h-.395a.406.406 0 0 1-.2-.04c-.047-.03-.084-.087-.11-.17l-.1-.48a5.746 5.746 0 0 1-.39.33c-.127.093-.26.173-.4.24a2.16 2.16 0 0 1-.45.145 2.316 2.316 0 0 1-.525.055c-.197 0-.382-.027-.555-.08a1.335 1.335 0 0 1-.455-.25 1.198 1.198 0 0 1-.305-.415c-.074-.17-.11-.37-.11-.6 0-.2.055-.392.165-.575.11-.187.288-.352.535-.495.246-.143.568-.26.965-.35a7.21 7.21 0 0 1 1.46-.16v-.395c0-.393-.085-.69-.255-.89-.17-.203-.419-.305-.745-.305-.22 0-.405.028-.555.085a1.96 1.96 0 0 0-.385.185c-.107.067-.2.128-.28.185a.403.403 0 0 1-.23.08.265.265 0 0 1-.155-.045.463.463 0 0 1-.11-.12l-.16-.285zm5.995 3.13c.164.22.342.375.535.465.194.09.41.135.65.135.474 0 .837-.168 1.09-.505.254-.337.38-.817.38-1.44a3.5 3.5 0 0 0-.09-.85 1.593 1.593 0 0 0-.25-.58.976.976 0 0 0-.405-.335 1.345 1.345 0 0 0-.545-.105c-.29 0-.545.067-.765.2-.233.15-.437.341-.6.565v2.45zm-.045-3.06c.214-.263.46-.475.74-.635s.6-.24.96-.24c.294 0 .56.057.795.17.237.11.44.275.605.495.167.217.295.487.385.81s.135.695.135 1.115c0 .373-.05.722-.15 1.045-.1.32-.245.598-.435.835a2.028 2.028 0 0 1-.69.555c-.27.133-.575.2-.915.2a1.9 1.9 0 0 1-.8-.155 1.92 1.92 0 0 1-.585-.44v2.24h-.895v-6.78h.535c.127 0 .205.062.235.185l.08.6zm7.821-.535a.56.56 0 0 1 .185-.18.463.463 0 0 1 .245-.07h.695l-1.315 1.93c-.08.123-.163.225-.25.305a.932.932 0 0 1-.32.18c.16.043.295.112.405.205.11.09.208.207.295.35l1.33 2.095h-.62a.71.71 0 0 1-.37-.08.7.7 0 0 1-.225-.23l-.985-1.575a.77.77 0 0 0-.705-.39h-.545v2.28h-.895v-5.07h.895v2.19h.48a.71.71 0 0 0 .625-.34l1.075-1.6zm5.296 1.73c0-.207-.03-.395-.09-.565a1.206 1.206 0 0 0-.255-.445 1.075 1.075 0 0 0-.405-.29 1.348 1.348 0 0 0-.545-.105c-.427 0-.765.125-1.015.375-.247.247-.4.59-.46 1.03h2.77zm.72 2.375c-.11.133-.242.25-.395.35a2.563 2.563 0 0 1-.495.24 2.95 2.95 0 0 1-.54.14c-.183.033-.369.05-.555.05-.35 0-.674-.058-.97-.175a2.185 2.185 0 0 1-.765-.52 2.423 2.423 0 0 1-.5-.85 3.447 3.447 0 0 1-.18-1.16c0-.353.053-.683.16-.99a2.32 2.32 0 0 1 .47-.795 2.1 2.1 0 0 1 .745-.53c.293-.13.623-.195.99-.195.303 0 .583.052.84.155.26.1.483.247.67.44.19.19.338.427.445.71.106.28.16.6.16.96 0 .14-.015.233-.045.28s-.087.07-.17.07h-3.385c.01.32.053.598.13.835.08.237.19.435.33.595.14.157.306.275.5.355.193.077.41.115.65.115.223 0 .415-.025.575-.075.25-.08.49-.192.71-.335a.39.39 0 0 1 .205-.08c.073 0 .13.028.17.085l.25.325zm5.305-3.675h-1.945v4.385h-.89v-4.385h-1.945v-.68h4.78v.68zm5.068 4.385h-.895v-4.385h-2.43v4.385h-.895v-5.065h4.22v5.065zm5.855 0h-.89v-4.365h-1.6c-.04.643-.1 1.2-.18 1.67-.08.467-.177.865-.29 1.195-.11.327-.235.593-.375.8a1.913 1.913 0 0 1-.435.475c-.15.113-.307.19-.47.23-.16.04-.32.06-.48.06-.283 0-.425-.045-.425-.135v-.565h.26c.113 0 .228-.02.345-.06a.878.878 0 0 0 .34-.23c.113-.113.222-.272.325-.475.12-.256.215-.524.28-.8.087-.33.16-.728.22-1.195.063-.47.112-1.027.145-1.67h3.23v5.065zm4.8-3.085c0-.207-.03-.395-.09-.565a1.206 1.206 0 0 0-.255-.445 1.075 1.075 0 0 0-.405-.29 1.348 1.348 0 0 0-.545-.105c-.427 0-.765.125-1.015.375-.247.247-.4.59-.46 1.03h2.77zm.72 2.375c-.11.133-.242.25-.395.35a2.563 2.563 0 0 1-.495.24 2.95 2.95 0 0 1-.54.14c-.183.033-.369.05-.555.05-.35 0-.674-.058-.97-.175a2.185 2.185 0 0 1-.765-.52 2.423 2.423 0 0 1-.5-.85 3.447 3.447 0 0 1-.18-1.16c0-.353.053-.683.16-.99a2.32 2.32 0 0 1 .47-.795 2.1 2.1 0 0 1 .745-.53c.293-.13.623-.195.99-.195.303 0 .583.052.84.155.26.1.483.247.67.44.19.19.338.427.445.71.106.28.16.6.16.96 0 .14-.015.233-.045.28s-.087.07-.17.07h-3.385c.01.32.053.598.13.835.08.237.19.435.33.595.14.157.306.275.5.355.193.077.41.115.65.115.223 0 .415-.025.575-.075.25-.08.49-.192.71-.335a.39.39 0 0 1 .205-.08c.073 0 .13.028.17.085l.25.325zm5.518-4.355v5.065h-.89v-3.44c0-.067.003-.138.01-.215.006-.077.015-.153.025-.23-.03.067-.06.128-.09.185s-.062.108-.095.155l-2.445 3.325a.892.892 0 0 1-.14.155.27.27 0 0 1-.18.07h-.54v-5.065h.895v3.44c0 .063-.004.133-.01.21a5.75 5.75 0 0 1-.025.225c.03-.063.06-.122.09-.175.03-.057.06-.108.09-.155l2.445-3.325a.708.708 0 0 1 .14-.15.272.272 0 0 1 .185-.075h.535zm-2.115-1.225c.136 0 .251-.015.345-.045a.5.5 0 0 0 .225-.155c.06-.07.103-.16.13-.27.026-.11.04-.245.04-.405h.52a.16.16 0 0 1 .145.085c.033.057.05.118.05.185a.999.999 0 0 1-.1.45.998.998 0 0 1-.29.345c-.137.1-.291.173-.455.215-.18.05-.384.075-.61.075a2.28 2.28 0 0 1-.61-.075 1.393 1.393 0 0 1-.46-.215.994.994 0 0 1-.285-.345.988.988 0 0 1-.1-.45c0-.067.016-.128.05-.185a.158.158 0 0 1 .145-.085h.52c0 .16.013.295.04.405.026.11.068.2.125.27.06.07.136.122.23.155.093.03.208.045.345.045zm7.047 2.125a.424.424 0 0 1-.08.085.182.182 0 0 1-.11.03.304.304 0 0 1-.165-.06 2.265 2.265 0 0 0-.225-.14 1.6 1.6 0 0 0-.795-.2c-.25 0-.47.045-.66.135-.19.087-.35.213-.48.38a1.772 1.772 0 0 0-.29.605c-.067.26-.098.527-.095.795 0 .307.035.58.105.82.07.237.168.437.295.6.13.16.285.283.465.37.183.083.388.125.615.125.216 0 .395-.025.535-.075.14-.053.255-.112.345-.175.093-.063.17-.12.23-.17a.29.29 0 0 1 .185-.08c.073 0 .13.028.17.085l.25.325c-.11.137-.235.253-.375.35s-.292.178-.455.245c-.16.063-.329.11-.505.14-.177.03-.357.045-.54.045a2.23 2.23 0 0 1-.885-.175 2.033 2.033 0 0 1-.705-.505 2.4 2.4 0 0 1-.47-.82 3.314 3.314 0 0 1-.17-1.105c0-.377.051-.725.155-1.045.106-.32.26-.595.46-.825a2.1 2.1 0 0 1 .745-.545c.296-.13.636-.195 1.02-.195.356 0 .67.058.94.175.273.113.515.275.725.485l-.235.32zm3.195 3.515c.18 0 .335-.022.465-.065a.932.932 0 0 0 .33-.19.802.802 0 0 0 .195-.29.98.98 0 0 0 .065-.36.986.986 0 0 0-.055-.335.666.666 0 0 0-.185-.28.872.872 0 0 0-.33-.19 1.554 1.554 0 0 0-.5-.07h-1.08v1.78h1.095zm-.015-2.43c.35 0 .643.042.88.125.24.083.432.195.575.335.147.14.252.302.315.485.134.39.125.816-.025 1.2-.08.19-.198.355-.355.495-.156.137-.35.245-.58.325-.23.077-.495.115-.795.115h-1.945v-5.065h.85v1.985h1.08zm3.87-1.985v5.065h-.89v-5.065h.89z"/><path fill="none" stroke="#331A2F" stroke-width=".777" stroke-opacity=".5" d="M202.434 18.006v62.168"/><path fill="#54618E" d="M66.203 55.74c-.594 0-1.28-.09-2.055-.272l-2.452-.669.669-2.006c1.387.496 2.542.743 3.467.743.495 0 .908-.115 1.238-.346a1.09 1.09 0 0 0 .495-.941c0-.397-.107-.694-.322-.892-.214-.198-.61-.371-1.188-.52l-1.338-.347c-1.849-.479-2.773-1.568-2.773-3.269 0-1.023.388-1.865 1.164-2.526.792-.66 1.824-.99 3.095-.99.512 0 1.115.09 1.808.272l2.452.669-.669 2.006c-1.337-.496-2.352-.743-3.046-.743-.462 0-.85.124-1.164.371-.314.231-.47.537-.47.916 0 .397.107.694.322.892.214.198.61.371 1.188.52l1.313.347c.99.264 1.7.668 2.13 1.213.429.529.643 1.214.643 2.056 0 1.007-.38 1.849-1.139 2.526-.76.66-1.882.99-3.368.99zm10.592 0c-1.239 0-2.114-.305-2.625-.916-.496-.61-.743-1.544-.743-2.798v-5.92h-1.833v-2.178h1.833V41.03l3.145-.619v3.517h2.724v2.178h-2.724v5.968c0 .974.396 1.461 1.188 1.461.48 0 .991-.148 1.536-.446l.495 1.858a5.851 5.851 0 0 1-2.996.792v.001zm7.71 0c-1.122 0-2.014-.346-2.674-1.04a3.467 3.467 0 0 1-.99-2.476c0-.71.23-1.28.693-1.709.479-.446 1.222-.792 2.229-1.04l3.987-.99v-1.016c0-.479-.149-.858-.446-1.14-.28-.28-.677-.42-1.189-.42-.578 0-1.882.437-3.912 1.312l-.867-2.006 2.823-1.04c.858-.313 1.486-.47 1.882-.47 1.502 0 2.683.396 3.541 1.189.875.775 1.313 1.799 1.313 3.07v4.26c0 .313.05.784.148 1.411.116.611.264 1.131.446 1.56l-2.7.545c-.33-.363-.676-.867-1.04-1.51-1.105 1.007-2.187 1.51-3.243 1.51h-.001zm1.115-2.204c.644 0 1.354-.371 2.13-1.114v-2.501l-2.477.718c-.792.23-1.188.668-1.188 1.312 0 .496.14.884.42 1.164.281.28.653.421 1.115.421zm11.816 2.204c-1.238 0-2.113-.305-2.625-.916-.495-.61-.743-1.544-.743-2.798v-5.92h-1.832v-2.178h1.832V41.03l3.145-.619v3.517h2.724v2.178h-2.724v5.968c0 .974.396 1.461 1.189 1.461.479 0 .99-.148 1.535-.446l.496 1.858a5.854 5.854 0 0 1-2.997.793zm34.976-.223h-3.145v-6.76c0-.99-.148-1.709-.445-2.155-.281-.462-.735-.693-1.362-.693-.628 0-1.305.371-2.031 1.114v8.494h-3.145v-6.76c0-.99-.141-1.709-.421-2.155-.281-.462-.743-.693-1.387-.693-.611 0-1.288.371-2.031 1.114v8.494H115.3v-8.296c0-.313-.058-.776-.173-1.387-.099-.627-.24-1.155-.421-1.584l2.674-.545c.347.346.702.85 1.065 1.51 1.04-1.007 2.122-1.51 3.244-1.51 1.668 0 2.799.586 3.393 1.758.363-.479.883-.892 1.56-1.238.677-.347 1.354-.52 2.031-.52 1.255 0 2.187.363 2.798 1.09.628.726.941 1.857.941 3.392v7.33zm5.71.223c-1.122 0-2.014-.346-2.674-1.04a3.465 3.465 0 0 1-.991-2.476c0-.71.231-1.28.694-1.709.478-.446 1.221-.792 2.228-1.04l3.987-.99v-1.016c0-.479-.148-.858-.445-1.14-.281-.28-.677-.42-1.189-.42-.578 0-1.882.437-3.913 1.312l-.867-2.006 2.824-1.04c.858-.313 1.485-.47 1.882-.47 1.502 0 2.682.396 3.541 1.189.875.775 1.312 1.799 1.312 3.07v4.26c0 .313.05.784.149 1.411.116.611.264 1.131.446 1.56l-2.699.545c-.331-.363-.677-.867-1.041-1.51-1.106 1.007-2.187 1.51-3.244 1.51zm1.115-2.204c.644 0 1.353-.371 2.129-1.114v-2.501l-2.476.718c-.792.23-1.189.668-1.189 1.312 0 .496.141.884.421 1.164.281.28.652.421 1.115.421zm11.24 1.981h-3.145v-8.296c0-.313-.057-.776-.173-1.387-.099-.627-.239-1.155-.421-1.584l2.675-.545c.511.512.866 1.205 1.064 2.08.331-.66.768-1.172 1.313-1.535a3.267 3.267 0 0 1 1.808-.545c.363 0 .693.058.99.173l-.545 2.7h-.817c-.776 0-1.387.19-1.832.569-.43.363-.735.974-.917 1.833v6.537zm16.354 0h-3.863l-3.839-5.993v5.993h-3.145V38.976l3.145-.62v10.303l3.913-4.73h3.541l-4.655 5.175 4.903 6.414v-.001zm5.637.223c-1.865 0-3.277-.553-4.234-1.659-.941-1.123-1.412-2.592-1.412-4.408s.487-3.26 1.461-4.334c.974-1.09 2.328-1.634 4.061-1.634 3.352 0 5.028 1.742 5.028 5.225 0 .363-.042.669-.124.916h-7.182c0 1.238.223 2.163.669 2.774.462.61 1.098.916 1.907.916.908 0 2.096-.33 3.566-.99l.866 2.005-2.625.966c-.445.149-1.106.223-1.981.223zm-.297-9.831c-.66 0-1.18.23-1.56.693-.363.463-.545 1.04-.545 1.734h4.037c0-1.618-.644-2.427-1.932-2.427zm11.368 9.831c-1.239 0-2.114-.305-2.626-.916-.495-.61-.742-1.544-.742-2.798v-5.92h-1.833v-2.178h1.833V41.03l3.145-.619v3.517h2.724v2.178h-2.724v5.968c0 .974.396 1.461 1.188 1.461.479 0 .991-.148 1.536-.446l.495 1.858a5.851 5.851 0 0 1-2.996.792v.001z"/><path fill="#D653D2" d="M111.71 55.517h-2.997v-3.813h-6.761l-.668-1.932 7.058-10.104h3.368v9.708h1.585v2.328h-1.585v3.813zm-2.997-6.141v-6.44l-4.383 6.439h4.383v.001z"/><linearGradient id="a" gradientUnits="userSpaceOnUse" x1="29.134" y1="-108.375" x2="20.527" y2="-141.028" gradientTransform="matrix(1 0 0 -1 0 -120.523)"><stop offset="0" style="stop-color:#f0a"/><stop offset="1" style="stop-color:#8912de"/></linearGradient><ellipse fill="url(#a)" cx="23.474" cy="9.326" rx="23.474" ry="9.326"/><path fill="#FFF" d="M33.898 11.914V.97c-.9-.178-1.833-.332-2.794-.463-.043.178-.086.353-.129.523a4.274 4.274 0 0 0-.035.518v10.366H9.566L31.039.498c-.889-.12-1.8-.222-2.732-.3L5.869 11.985l.317.658c.07.102.2.186.387.251.188.056.458.084.81.084H30.94v5.19a48.202 48.202 0 0 0 2.957-.485v-4.705H45.08c.368-.344.681-.7.945-1.063H33.898z"/></svg>