<svg xmlns="http://www.w3.org/2000/svg" viewBox="0 0 352.093 74.565"><path fill="#331A2F" fill-opacity=".9" d="M227.193 26.475v7.165h-.97v-3.26h-3.865v3.26h-.97v-7.165h.97v3.195h3.865v-3.195h.97zM231.413 31.36c-.41.013-.76.046-1.05.1-.287.05-.522.116-.705.2a.994.994 0 0 0-.395.295.644.644 0 0 0-.12.38c0 .133.022.248.065.345a.678.678 0 0 0 .175.24.8.8 0 0 0 .265.135c.103.026.213.04.33.04.157 0 .3-.015.43-.045a1.908 1.908 0 0 0 .695-.355c.107-.084.21-.179.31-.285v-1.05zm-2.875-2.07c.28-.27.582-.472.905-.605.323-.134.682-.2 1.075-.2.283 0 .535.046.755.14s.405.223.555.39c.15.166.263.368.34.605.077.236.115.496.115.78v3.24h-.395a.408.408 0 0 1-.2-.04c-.047-.03-.083-.087-.11-.17l-.1-.48a5.293 5.293 0 0 1-.39.33c-.127.093-.26.173-.4.24-.14.063-.29.111-.45.145a2.31 2.31 0 0 1-.525.055c-.197 0-.382-.027-.555-.08a1.345 1.345 0 0 1-.455-.25 1.21 1.21 0 0 1-.305-.415c-.073-.17-.11-.37-.11-.6 0-.2.055-.392.165-.575.11-.187.288-.352.535-.495.247-.144.568-.26.965-.35a7.218 7.218 0 0 1 1.46-.16V30.4c0-.394-.085-.69-.255-.89-.17-.204-.418-.305-.745-.305-.22 0-.405.028-.555.085a1.958 1.958 0 0 0-.385.185c-.107.066-.2.128-.28.185a.401.401 0 0 1-.23.08.265.265 0 0 1-.155-.045.477.477 0 0 1-.11-.12l-.16-.285zM237.129 32.99v-3.715h-1.605c-.034.52-.08.98-.14 1.38-.06.4-.13.751-.21 1.055a4.62 4.62 0 0 1-.26.765c-.094.21-.192.381-.295.515h2.51zm1.79-.025v2.145c0 .086-.025.153-.075.2a.243.243 0 0 1-.185.075h-.545V33.64h-4.26v1.49c0 .063-.02.121-.06.175-.037.053-.099.08-.185.08h-.56V32.99h.165c.116 0 .231-.02.345-.06a.869.869 0 0 0 .335-.225c.106-.114.206-.272.3-.475.096-.204.183-.469.26-.795.076-.327.143-.724.2-1.19.056-.47.101-1.027.135-1.67h3.205v4.39h.925zM243.123 30.555c0-.207-.03-.395-.09-.565a1.207 1.207 0 0 0-.255-.445 1.076 1.076 0 0 0-.405-.29 1.348 1.348 0 0 0-.545-.105c-.427 0-.765.125-1.015.375-.247.246-.4.59-.46 1.03h2.77zm.72 2.375c-.11.133-.242.25-.395.35a2.551 2.551 0 0 1-.495.24 2.95 2.95 0 0 1-.54.14 3.16 3.16 0 0 1-.555.05c-.35 0-.674-.059-.97-.175a2.184 2.184 0 0 1-.765-.52c-.214-.23-.38-.514-.5-.85s-.18-.724-.18-1.16c0-.354.053-.684.16-.99.11-.307.266-.572.47-.795a2.1 2.1 0 0 1 .745-.53c.293-.13.623-.195.99-.195.303 0 .583.051.84.155.26.1.483.246.67.44.19.19.338.426.445.71.106.28.16.6.16.96 0 .14-.015.233-.045.28s-.087.07-.17.07h-3.385c.01.32.053.598.13.835.08.236.19.435.33.595.14.156.306.275.5.355.193.076.41.115.65.115.223 0 .415-.025.575-.075a2.906 2.906 0 0 0 .71-.335.391.391 0 0 1 .205-.08c.073 0 .13.028.17.085l.25.325zM252.027 33.64h-.62a.747.747 0 0 1-.37-.075.486.486 0 0 1-.195-.235l-.985-1.575a.786.786 0 0 0-.705-.39h-.51v2.28h-.865v-2.28h-.505a.788.788 0 0 0-.705.39l-.985 1.575a.514.514 0 0 1-.205.235.72.72 0 0 1-.365.075h-.615l1.33-2.095c.086-.147.185-.265.295-.355s.245-.159.405-.205a.92.92 0 0 1-.325-.175 1.432 1.432 0 0 1-.245-.305l-1.32-1.93h.7c.086 0 .165.023.235.07.07.043.125.103.165.18l1.075 1.6c.073.11.161.195.265.255a.746.746 0 0 0 .365.085h.435v-2.19h.865v2.19h.425a.71.71 0 0 0 .64-.34l1.075-1.6a.453.453 0 0 1 .405-.25h.7l-1.32 1.93c-.077.123-.16.225-.25.305a.88.88 0 0 1-.32.175c.16.046.295.115.405.205.11.09.208.208.295.355l1.33 2.095zM257.078 28.575v5.065h-.895v-2.37h-2.43v2.37h-.895v-5.065h.895v2.02h2.43v-2.02h.895zM260.437 32.99c.18 0 .335-.022.465-.065a.801.801 0 0 0 .525-.48.96.96 0 0 0 .065-.36.987.987 0 0 0-.055-.335.666.666 0 0 0-.185-.28.874.874 0 0 0-.33-.19 1.554 1.554 0 0 0-.5-.07h-1.08v1.78h1.095zm-.015-2.43c.35 0 .644.041.88.125.24.083.432.195.575.335.147.14.252.301.315.485.064.183.095.373.095.57 0 .226-.04.436-.12.63-.08.19-.198.355-.355.495-.156.136-.35.245-.58.325-.23.076-.495.115-.795.115h-1.945v-5.065h.85v1.985h1.08zm3.87-1.985v5.065h-.89v-5.065h.89zM270.054 28.575v5.065h-.89V30.2c0-.067.003-.139.01-.215.007-.077.015-.154.025-.23-.03.066-.06.128-.09.185-.03.056-.062.108-.095.155l-2.445 3.325a.854.854 0 0 1-.14.155.265.265 0 0 1-.18.07h-.54V28.58h.895v3.44c0 .063-.003.133-.01.21a6.504 6.504 0 0 1-.025.225c.03-.064.06-.122.09-.175.03-.057.06-.109.09-.155l2.445-3.325a.736.736 0 0 1 .14-.15.274.274 0 0 1 .185-.075h.535zm-2.115-1.225c.137 0 .252-.015.345-.045a.5.5 0 0 0 .225-.155c.06-.07.103-.16.13-.27.027-.11.04-.245.04-.405h.52c.063 0 .112.028.145.085.033.056.05.118.05.185a.988.988 0 0 1-.1.45.987.987 0 0 1-.29.345 1.338 1.338 0 0 1-.455.215c-.18.05-.383.075-.61.075s-.43-.025-.61-.075a1.403 1.403 0 0 1-.46-.215 1.016 1.016 0 0 1-.285-.345.988.988 0 0 1-.1-.45c0-.067.017-.129.05-.185s.082-.085.145-.085h.52c0 .16.013.295.04.405.027.11.068.2.125.27.06.07.137.121.23.155.093.03.208.045.345.045zM277.545 29.475a.423.423 0 0 1-.08.085.182.182 0 0 1-.11.03.304.304 0 0 1-.165-.06 2.29 2.29 0 0 0-.225-.14 1.6 1.6 0 0 0-.795-.2c-.25 0-.47.045-.66.135-.19.086-.35.213-.48.38a1.773 1.773 0 0 0-.29.605 3.048 3.048 0 0 0-.095.795c0 .306.035.58.105.82.07.236.168.436.295.6.13.16.285.283.465.37.183.083.388.125.615.125.216 0 .395-.025.535-.075.14-.054.255-.112.345-.175.093-.064.17-.12.23-.17a.29.29 0 0 1 .185-.08c.073 0 .13.028.17.085l.25.325c-.11.136-.235.253-.375.35-.14.096-.292.178-.455.245-.16.063-.329.11-.505.14-.177.03-.357.045-.54.045-.317 0-.612-.059-.885-.175a2.033 2.033 0 0 1-.705-.505 2.399 2.399 0 0 1-.47-.82 3.313 3.313 0 0 1-.17-1.105c0-.377.051-.725.155-1.045.106-.32.26-.595.46-.825.203-.234.451-.415.745-.545.296-.13.636-.195 1.02-.195.356 0 .67.058.94.175.273.113.515.275.725.485l-.235.32zM282.097 30.555c0-.207-.03-.395-.09-.565a1.207 1.207 0 0 0-.255-.445 1.077 1.077 0 0 0-.405-.29 1.348 1.348 0 0 0-.545-.105c-.427 0-.765.125-1.015.375-.247.246-.4.59-.46 1.03h2.77zm.72 2.375c-.11.133-.242.25-.395.35a2.496 2.496 0 0 1-.495.24c-.173.063-.353.11-.54.14a3.16 3.16 0 0 1-.555.05c-.35 0-.673-.059-.97-.175a2.202 2.202 0 0 1-.765-.52 2.438 2.438 0 0 1-.5-.85 3.446 3.446 0 0 1-.18-1.16c0-.354.053-.684.16-.99.11-.307.267-.572.47-.795a2.11 2.11 0 0 1 .745-.53c.293-.13.623-.195.99-.195.303 0 .583.051.84.155.26.1.483.246.67.44.19.19.338.426.445.71.107.28.16.6.16.96 0 .14-.015.233-.045.28s-.087.07-.17.07h-3.385c.01.32.053.598.13.835.08.236.19.435.33.595.14.156.307.275.5.355.193.076.41.115.65.115.223 0 .415-.025.575-.075a2.908 2.908 0 0 0 .71-.335.391.391 0 0 1 .205-.08c.073 0 .13.028.17.085l.25.325zM284.885 32.42c.164.22.342.375.535.465.194.09.41.135.65.135.474 0 .837-.169 1.09-.505.254-.337.38-.817.38-1.44 0-.33-.03-.614-.09-.85a1.593 1.593 0 0 0-.25-.58.977.977 0 0 0-.405-.335 1.345 1.345 0 0 0-.545-.105c-.29 0-.545.066-.765.2a2.234 2.234 0 0 0-.6.565v2.45zm-.045-3.06c.214-.264.46-.475.74-.635s.6-.24.96-.24c.294 0 .559.056.795.17.237.11.439.275.605.495.167.216.295.486.385.81.09.323.135.695.135 1.115 0 .373-.05.721-.15 1.045-.1.32-.245.598-.435.835a2.028 2.028 0 0 1-.69.555c-.27.133-.575.2-.915.2-.31 0-.576-.052-.8-.155a1.918 1.918 0 0 1-.585-.44v2.24h-.895v-6.78h.535c.127 0 .205.061.235.185l.08.6zM291.531 33.015c.333 0 .597-.077.79-.23a.78.78 0 0 0 .29-.64.904.904 0 0 0-.055-.325c-.037-.1-.097-.187-.18-.26s-.195-.13-.335-.17a1.824 1.824 0 0 0-.505-.06h-1.095v1.685h1.09zm-1.09-3.84v1.59h.975c.147 0 .282-.02.405-.06a1.04 1.04 0 0 0 .325-.175.823.823 0 0 0 .21-.27.814.814 0 0 0 .025-.62.552.552 0 0 0-.17-.235.853.853 0 0 0-.315-.165 1.534 1.534 0 0 0-.48-.065h-.975zm1-.6c.313 0 .582.031.805.095s.407.15.55.26a.981.981 0 0 1 .315.38c.067.146.1.303.1.47 0 .11-.015.225-.045.345a1.133 1.133 0 0 1-.465.645 1.526 1.526 0 0 1-.48.205c.387.066.685.201.895.405.21.2.315.465.315.795 0 .246-.05.461-.15.645-.097.18-.232.331-.405.455-.17.123-.37.215-.6.275-.23.06-.477.09-.74.09h-1.95v-5.065h1.855zM298.892 28.575v5.065h-.89V30.2c0-.067.003-.139.01-.215.007-.077.015-.154.025-.23-.03.066-.06.128-.09.185-.03.056-.062.108-.095.155l-2.445 3.325a.855.855 0 0 1-.14.155.265.265 0 0 1-.18.07h-.54V28.58h.895v3.44c0 .063-.003.133-.01.21a6.655 6.655 0 0 1-.025.225c.03-.064.06-.122.09-.175.03-.057.06-.109.09-.155l2.445-3.325a.736.736 0 0 1 .14-.15.274.274 0 0 1 .185-.075h.535zM303.824 29.475a.397.397 0 0 1-.08.085.18.18 0 0 1-.11.03.304.304 0 0 1-.165-.06 2.287 2.287 0 0 0-.225-.14 1.6 1.6 0 0 0-.325-.135 1.468 1.468 0 0 0-.47-.065c-.25 0-.47.045-.66.135-.19.086-.35.213-.48.38a1.791 1.791 0 0 0-.29.605 3.09 3.09 0 0 0-.095.795c0 .306.035.58.105.82.07.236.168.436.295.6.13.16.285.283.465.37.183.083.388.125.615.125.217 0 .395-.025.535-.075.14-.054.255-.112.345-.175.093-.064.17-.12.23-.17a.29.29 0 0 1 .185-.08c.073 0 .13.028.17.085l.25.325c-.11.136-.235.253-.375.35-.14.096-.292.178-.455.245-.16.063-.328.11-.505.14s-.357.045-.54.045c-.317 0-.612-.059-.885-.175a2.033 2.033 0 0 1-.705-.505 2.4 2.4 0 0 1-.47-.82 3.34 3.34 0 0 1-.17-1.105c0-.377.052-.725.155-1.045a2.4 2.4 0 0 1 .46-.825c.203-.234.452-.415.745-.545.297-.13.637-.195 1.02-.195.357 0 .67.058.94.175.273.113.515.275.725.485l-.235.32zM223.923 45.36c-.41.013-.76.046-1.05.1-.287.05-.522.116-.705.2a.995.995 0 0 0-.395.295.644.644 0 0 0-.12.38c0 .133.022.248.065.345s.102.176.175.24a.8.8 0 0 0 .265.135c.103.026.213.04.33.04.157 0 .3-.015.43-.045a1.91 1.91 0 0 0 .695-.355c.107-.084.21-.179.31-.285v-1.05zm-2.875-2.07c.28-.27.582-.472.905-.605s.682-.2 1.075-.2c.283 0 .535.046.755.14s.405.223.555.39c.15.166.263.368.34.605.077.236.115.496.115.78v3.24h-.395a.408.408 0 0 1-.2-.04c-.047-.03-.083-.087-.11-.17l-.1-.48a5.295 5.295 0 0 1-.39.33c-.127.093-.26.173-.4.24-.14.063-.29.111-.45.145a2.31 2.31 0 0 1-.525.055c-.197 0-.382-.027-.555-.08a1.345 1.345 0 0 1-.455-.25 1.21 1.21 0 0 1-.305-.415c-.073-.17-.11-.37-.11-.6 0-.2.055-.392.165-.575.11-.187.288-.352.535-.495s.568-.26.965-.35a7.218 7.218 0 0 1 1.46-.16V44.4c0-.394-.085-.69-.255-.89-.17-.204-.418-.305-.745-.305-.22 0-.405.028-.555.085a1.959 1.959 0 0 0-.385.185c-.107.066-.2.128-.28.185a.401.401 0 0 1-.23.08.265.265 0 0 1-.155-.045.478.478 0 0 1-.11-.12l-.16-.285zM230.369 42.575v5.065h-.895v-2.37h-2.43v2.37h-.895v-5.065h.895v2.02h2.43v-2.02h.895zM234.528 45.36c-.41.013-.76.046-1.05.1-.286.05-.521.116-.705.2-.18.083-.311.181-.395.295a.644.644 0 0 0-.12.38c0 .133.022.248.065.345a.69.69 0 0 0 .175.24.8.8 0 0 0 .265.135c.104.026.214.04.33.04.157 0 .3-.015.43-.045a1.908 1.908 0 0 0 .695-.355c.107-.084.21-.179.31-.285v-1.05zm-2.875-2.07c.28-.27.582-.472.905-.605.324-.134.682-.2 1.075-.2.284 0 .535.046.755.14s.405.223.555.39c.15.166.264.368.34.605.077.236.115.496.115.78v3.24h-.395a.41.41 0 0 1-.2-.04c-.046-.03-.083-.087-.11-.17l-.1-.48a5.293 5.293 0 0 1-.39.33c-.126.093-.26.173-.4.24-.14.063-.29.111-.45.145a2.298 2.298 0 0 1-.525.055c-.196 0-.381-.027-.555-.08a1.345 1.345 0 0 1-.455-.25 1.223 1.223 0 0 1-.305-.415c-.073-.17-.11-.37-.11-.6 0-.2.055-.392.165-.575.11-.187.289-.352.535-.495.247-.144.569-.26.965-.35a7.226 7.226 0 0 1 1.46-.16V44.4c0-.394-.085-.69-.255-.89-.17-.204-.418-.305-.745-.305-.22 0-.405.028-.555.085a1.986 1.986 0 0 0-.385.185c-.106.066-.2.128-.28.185a.399.399 0 0 1-.23.08.267.267 0 0 1-.155-.045.477.477 0 0 1-.11-.12l-.16-.285zM241.194 47.64h-.89v-4.365h-1.6c-.04.643-.1 1.2-.18 1.67-.08.466-.177.865-.29 1.195-.11.326-.235.593-.375.8a1.91 1.91 0 0 1-.435.475c-.15.113-.307.19-.47.23-.16.04-.32.06-.48.06-.283 0-.425-.045-.425-.135v-.565h.26c.113 0 .228-.02.345-.06a.878.878 0 0 0 .34-.23c.113-.114.222-.272.325-.475.103-.207.197-.474.28-.8.087-.33.16-.729.22-1.195.063-.47.112-1.027.145-1.67h3.23v5.065zM246.949 42.575v5.065h-.89V44.2c0-.067.003-.139.01-.215.006-.077.015-.154.025-.23-.03.066-.06.128-.09.185-.03.056-.062.108-.095.155l-2.445 3.325a.893.893 0 0 1-.14.155.269.269 0 0 1-.18.07h-.54V42.58h.895v3.44c0 .063-.004.133-.01.21a6.579 6.579 0 0 1-.025.225c.03-.064.06-.122.09-.175.03-.057.06-.109.09-.155l2.445-3.325a.71.71 0 0 1 .14-.15.272.272 0 0 1 .185-.075h.535zM252.566 43.255h-1.945v4.385h-.89v-4.385h-1.945v-.68h4.78v.68zM257.759 42.575v5.065h-.89V44.2c0-.067.004-.139.01-.215.007-.077.015-.154.025-.23-.03.066-.06.128-.09.185-.03.056-.061.108-.095.155l-2.445 3.325a.82.82 0 0 1-.14.155.265.265 0 0 1-.18.07h-.54V42.58h.895v3.44c0 .063-.003.133-.01.21a4.758 4.758 0 0 1-.025.225c.03-.064.06-.122.09-.175.03-.057.06-.109.09-.155l2.445-3.325a.766.766 0 0 1 .14-.15.276.276 0 0 1 .185-.075h.535zM262.241 42.825c.047-.074.108-.134.185-.18s.158-.07.245-.07h.695l-1.315 1.93c-.08.123-.163.225-.25.305a.93.93 0 0 1-.32.18c.16.043.295.111.405.205.11.09.208.206.295.35l1.33 2.095h-.62c-.16 0-.283-.027-.37-.08s-.162-.13-.225-.23l-.985-1.575a.77.77 0 0 0-.705-.39h-.545v2.28h-.895v-5.07h.895v2.19h.48a.71.71 0 0 0 .625-.34l1.075-1.6zM268.687 42.575v5.065h-.89V44.2c0-.067.003-.139.01-.215.007-.077.015-.154.025-.23-.03.066-.06.128-.09.185-.03.056-.062.108-.095.155l-2.445 3.325a.855.855 0 0 1-.14.155.265.265 0 0 1-.18.07h-.54V42.58h.895v3.44c0 .063-.003.133-.01.21a6.504 6.504 0 0 1-.025.225c.03-.064.06-.122.09-.175.03-.057.06-.109.09-.155l2.445-3.325a.737.737 0 0 1 .14-.15.274.274 0 0 1 .185-.075h.535zM276.142 46.99v-3.715h-1.605c-.033.52-.08.98-.14 1.38-.06.4-.13.751-.21 1.055-.076.3-.163.555-.26.765-.093.21-.191.381-.295.515h2.51zm1.79-.025v2.145c0 .086-.025.153-.075.2a.24.24 0 0 1-.185.075h-.545V47.64h-4.26v1.49c0 .063-.02.121-.06.175-.036.053-.098.08-.185.08h-.56V46.99h.165c.117 0 .232-.02.345-.06a.855.855 0 0 0 .335-.225c.107-.114.207-.272.3-.475.097-.204.184-.469.26-.795.077-.327.144-.724.2-1.19.057-.47.102-1.027.135-1.67h3.205v4.39h.925zM283.274 47.64h-.89v-4.365h-1.6c-.04.643-.1 1.2-.18 1.67-.08.466-.177.865-.29 1.195-.11.326-.235.593-.375.8a1.91 1.91 0 0 1-.435.475c-.15.113-.307.19-.47.23-.16.04-.32.06-.48.06-.283 0-.425-.045-.425-.135v-.565h.26c.113 0 .228-.02.345-.06s.23-.117.34-.23c.113-.114.222-.272.325-.475.103-.207.197-.474.28-.8.087-.33.16-.729.22-1.195.063-.47.112-1.027.145-1.67h3.23v5.065zM287.349 44.94v-1.765h-.85a1.2 1.2 0 0 0-.48.085.869.869 0 0 0-.315.21.735.735 0 0 0-.165.285.985.985 0 0 0-.05.31c0 .273.1.488.3.645.2.153.473.23.82.23h.74zm.85-2.365v5.065h-.85v-2.135h-.39a.932.932 0 0 0-.235.025.56.56 0 0 0-.16.06.414.414 0 0 0-.115.105 1.6 1.6 0 0 0-.105.14l-1.11 1.495a.588.588 0 0 1-.21.235c-.08.05-.199.075-.355.075h-.62l1.47-1.91c.12-.2.278-.334.475-.4a2.078 2.078 0 0 1-.65-.18 1.543 1.543 0 0 1-.435-.305c-.11-.12-.19-.252-.24-.395a1.312 1.312 0 0 1-.075-.435c0-.174.033-.347.1-.52.07-.174.18-.327.33-.46.15-.137.343-.247.58-.33.24-.087.53-.13.87-.13h1.725zM296.394 47.64h-.895v-4.385h-2.43v4.385h-.895v-5.065h4.22v5.065zM299.944 42.495c.37 0 .703.061 1 .185a2.148 2.148 0 0 1 1.24 1.35c.113.32.17.678.17 1.075 0 .4-.057.76-.17 1.08-.11.32-.27.593-.48.82-.21.226-.464.401-.76.525-.297.12-.63.18-1 .18-.374 0-.71-.06-1.01-.18a2.139 2.139 0 0 1-.76-.525c-.21-.227-.372-.5-.485-.82a3.31 3.31 0 0 1-.165-1.08c0-.397.055-.755.165-1.075.113-.324.275-.599.485-.825.21-.227.463-.402.76-.525.3-.124.636-.185 1.01-.185zm0 4.52c.5 0 .873-.167 1.12-.5.246-.337.37-.805.37-1.405 0-.604-.124-1.074-.37-1.41-.247-.337-.62-.505-1.12-.505-.254 0-.475.043-.665.13a1.25 1.25 0 0 0-.47.375 1.705 1.705 0 0 0-.28.605c-.06.236-.09.505-.09.805 0 .6.123 1.068.37 1.405.25.333.628.5 1.135.5zM307.008 43.475a.423.423 0 0 1-.08.085.182.182 0 0 1-.11.03.304.304 0 0 1-.165-.06 2.294 2.294 0 0 0-.225-.14 1.6 1.6 0 0 0-.325-.135 1.472 1.472 0 0 0-.47-.065c-.25 0-.47.045-.66.135-.19.086-.35.213-.48.38a1.773 1.773 0 0 0-.29.605 3.048 3.048 0 0 0-.095.795c0 .306.035.58.105.82.07.236.168.436.295.6.13.16.285.283.465.37.183.083.388.125.615.125.216 0 .395-.025.535-.075.14-.054.255-.112.345-.175.093-.064.17-.12.23-.17a.29.29 0 0 1 .185-.08c.073 0 .13.028.17.085l.25.325c-.11.136-.235.253-.375.35-.14.096-.292.178-.455.245-.16.063-.329.11-.505.14-.177.03-.357.045-.54.045-.317 0-.612-.059-.885-.175a2.033 2.033 0 0 1-.705-.505 2.398 2.398 0 0 1-.47-.82 3.313 3.313 0 0 1-.17-1.105c0-.377.051-.725.155-1.045.106-.32.26-.595.46-.825.203-.234.451-.415.745-.545.296-.13.636-.195 1.02-.195.356 0 .67.058.94.175.273.113.515.275.725.485l-.235.32zM312.468 43.255h-1.945v4.385h-.89v-4.385h-1.945v-.68h4.78v.68zM316.013 45.36c-.41.013-.76.046-1.05.1-.287.05-.522.116-.705.2a.995.995 0 0 0-.395.295.643.643 0 0 0-.12.38c0 .133.021.248.065.345a.665.665 0 0 0 .175.24.79.79 0 0 0 .265.135c.103.026.213.04.33.04.156 0 .3-.015.43-.045.13-.034.251-.08.365-.14.116-.06.226-.132.33-.215.106-.084.21-.179.31-.285v-1.05zm-2.875-2.07c.28-.27.581-.472.905-.605.323-.134.681-.2 1.075-.2.283 0 .535.046.755.14a1.548 1.548 0 0 1 .895.995c.076.236.115.496.115.78v3.24h-.395a.405.405 0 0 1-.2-.04c-.047-.03-.084-.087-.11-.17l-.1-.48a5.743 5.743 0 0 1-.39.33c-.127.093-.26.173-.4.24-.14.063-.29.111-.45.145a2.31 2.31 0 0 1-.525.055c-.197 0-.382-.027-.555-.08a1.336 1.336 0 0 1-.455-.25 1.198 1.198 0 0 1-.305-.415c-.074-.17-.11-.37-.11-.6 0-.2.055-.392.165-.575.11-.187.288-.352.535-.495.246-.144.568-.26.965-.35.396-.094.883-.147 1.46-.16V44.4c0-.394-.085-.69-.255-.89-.17-.204-.419-.305-.745-.305-.22 0-.405.028-.555.085a1.96 1.96 0 0 0-.385.185c-.107.066-.2.128-.28.185a.403.403 0 0 1-.23.08.265.265 0 0 1-.155-.045.46.46 0 0 1-.11-.12l-.16-.285zM320.183 47.015c.334 0 .597-.077.79-.23a.778.778 0 0 0 .29-.64.904.904 0 0 0-.055-.325.62.62 0 0 0-.18-.26.854.854 0 0 0-.335-.17 1.819 1.819 0 0 0-.505-.06h-1.095v1.685h1.09zm-1.09-3.84v1.59h.975c.147 0 .282-.02.405-.06a1.04 1.04 0 0 0 .325-.175.823.823 0 0 0 .21-.27.814.814 0 0 0 .025-.62.551.551 0 0 0-.17-.235.853.853 0 0 0-.315-.165 1.534 1.534 0 0 0-.48-.065h-.975zm1-.6c.314 0 .582.031.805.095.224.063.407.15.55.26a.964.964 0 0 1 .315.38c.067.146.1.303.1.47 0 .11-.015.225-.045.345s-.083.235-.16.345c-.073.11-.175.21-.305.3a1.506 1.506 0 0 1-.48.205c.387.066.685.201.895.405.21.2.315.465.315.795 0 .246-.05.461-.15.645-.096.18-.231.331-.405.455-.17.123-.37.215-.6.275-.23.06-.476.09-.74.09h-1.95v-5.065h1.855zM330.944 46.965v2.145c0 .086-.025.153-.075.2a.24.24 0 0 1-.185.075h-.55V47.64h-6.935v-5.065h.895v4.39h2.065v-4.39h.895v4.39h2.065v-4.39h.895v4.39h.93zM336.187 42.575v5.065h-.89V44.2c0-.067.003-.139.01-.215.007-.077.015-.154.025-.23-.03.066-.06.128-.09.185-.03.056-.062.108-.095.155l-2.445 3.325a.855.855 0 0 1-.14.155.265.265 0 0 1-.18.07h-.54V42.58h.895v3.44c0 .063-.003.133-.01.21a6.504 6.504 0 0 1-.025.225c.03-.064.06-.122.09-.175.03-.057.06-.109.09-.155l2.445-3.325a.737.737 0 0 1 .14-.15.274.274 0 0 1 .185-.075h.535zM340.669 42.825c.047-.074.108-.134.185-.18s.158-.07.245-.07h.695l-1.315 1.93a1.58 1.58 0 0 1-.25.305.93.93 0 0 1-.32.18c.16.043.295.111.405.205.11.09.208.206.295.35l1.33 2.095h-.62c-.16 0-.283-.027-.37-.08s-.162-.13-.225-.23l-.985-1.575a.77.77 0 0 0-.705-.39h-.545v2.28h-.895v-5.07h.895v2.19h.48a.71.71 0 0 0 .625-.34l1.075-1.6zM344.709 42.495c.37 0 .704.061 1 .185.297.123.55.298.76.525s.37.501.48.825c.114.32.17.678.17 1.075 0 .4-.056.76-.17 1.08-.11.32-.27.593-.48.82s-.463.401-.76.525c-.296.12-.63.18-1 .18a2.7 2.7 0 0 1-1.01-.18c-.296-.124-.55-.299-.76-.525s-.371-.5-.485-.82a3.31 3.31 0 0 1-.165-1.08c0-.397.055-.755.165-1.075.114-.324.275-.599.485-.825s.464-.402.76-.525c.3-.124.637-.185 1.01-.185zm0 4.52c.5 0 .874-.167 1.12-.5.247-.337.37-.805.37-1.405 0-.604-.123-1.074-.37-1.41-.246-.337-.62-.505-1.12-.505a1.59 1.59 0 0 0-.665.13 1.265 1.265 0 0 0-.47.375 1.739 1.739 0 0 0-.28.605c-.06.236-.09.505-.09.805 0 .6.124 1.068.37 1.405.25.333.629.5 1.135.5zM350.193 47.015c.333 0 .597-.077.79-.23a.778.778 0 0 0 .29-.64.903.903 0 0 0-.055-.325c-.036-.1-.097-.187-.18-.26s-.195-.13-.335-.17a1.819 1.819 0 0 0-.505-.06h-1.095v1.685h1.09zm-1.09-3.84v1.59h.975c.147 0 .282-.02.405-.06a1.04 1.04 0 0 0 .325-.175.823.823 0 0 0 .21-.27.814.814 0 0 0 .025-.62.551.551 0 0 0-.17-.235.853.853 0 0 0-.315-.165 1.534 1.534 0 0 0-.48-.065h-.975zm1-.6c.313 0 .582.031.805.095.224.063.407.15.55.26a.981.981 0 0 1 .315.38c.067.146.1.303.1.47 0 .11-.015.225-.045.345s-.083.235-.16.345c-.073.11-.175.21-.305.3a1.516 1.516 0 0 1-.48.205c.387.066.685.201.895.405.21.2.315.465.315.795 0 .246-.05.461-.15.645-.097.18-.232.331-.405.455-.17.123-.37.215-.6.275-.23.06-.477.09-.74.09h-1.95v-5.065h1.855zM225.398 56.575v5.065h-.895v-2.37h-2.43v2.37h-.895v-5.065h.895v2.02h2.43v-2.02h.895zM229.558 59.36c-.41.013-.76.046-1.05.1-.287.05-.522.116-.705.2a.995.995 0 0 0-.395.295.644.644 0 0 0-.12.38c0 .133.021.248.065.345a.666.666 0 0 0 .175.24.79.79 0 0 0 .265.135c.103.026.213.04.33.04.156 0 .3-.015.43-.045.13-.034.251-.08.365-.14.116-.06.226-.132.33-.215a2.78 2.78 0 0 0 .31-.285v-1.05zm-2.875-2.07c.28-.27.581-.472.905-.605.323-.134.681-.2 1.075-.2.283 0 .535.046.755.14s.405.223.555.39c.15.166.263.368.34.605.076.236.115.496.115.78v3.24h-.395a.405.405 0 0 1-.2-.04c-.047-.03-.084-.087-.11-.17l-.1-.48a5.745 5.745 0 0 1-.39.33c-.127.093-.26.173-.4.24-.14.063-.29.111-.45.145a2.31 2.31 0 0 1-.525.055c-.197 0-.382-.027-.555-.08a1.335 1.335 0 0 1-.455-.25 1.197 1.197 0 0 1-.305-.415c-.074-.17-.11-.37-.11-.6 0-.2.055-.392.165-.575.11-.187.288-.352.535-.495.246-.144.568-.26.965-.35.396-.094.883-.147 1.46-.16V58.4c0-.394-.085-.69-.255-.89-.17-.204-.419-.305-.745-.305-.22 0-.405.028-.555.085a1.959 1.959 0 0 0-.385.185c-.107.066-.2.128-.28.185a.403.403 0 0 1-.23.08.265.265 0 0 1-.155-.045.46.46 0 0 1-.11-.12l-.16-.285zM239.987 56.56v5.08h-.805v-3.365c0-.094.005-.197.015-.31.013-.117.03-.225.05-.325l-1.76 3.085a.34.34 0 0 1-.105.12.256.256 0 0 1-.15.045h-.1a.28.28 0 0 1-.155-.045.34.34 0 0 1-.105-.12l-1.79-3.095c.017.1.032.21.045.33.013.116.02.221.02.315v3.365h-.805v-5.08h.715a.41.41 0 0 1 .185.045c.06.026.112.078.155.155l1.58 2.64c.077.153.145.315.205.485.057-.177.123-.339.2-.485l1.55-2.64a.342.342 0 0 1 .155-.16.452.452 0 0 1 .185-.04h.715zM244.138 59.36c-.41.013-.76.046-1.05.1-.287.05-.522.116-.705.2a.995.995 0 0 0-.395.295.644.644 0 0 0-.12.38c0 .133.021.248.065.345a.666.666 0 0 0 .175.24.79.79 0 0 0 .265.135c.103.026.213.04.33.04.156 0 .3-.015.43-.045.13-.034.251-.08.365-.14.116-.06.226-.132.33-.215a2.78 2.78 0 0 0 .31-.285v-1.05zm-2.875-2.07c.28-.27.581-.472.905-.605.323-.134.681-.2 1.075-.2.283 0 .535.046.755.14s.405.223.555.39c.15.166.263.368.34.605.076.236.115.496.115.78v3.24h-.395a.405.405 0 0 1-.2-.04c-.047-.03-.084-.087-.11-.17l-.1-.48a5.745 5.745 0 0 1-.39.33c-.127.093-.26.173-.4.24-.14.063-.29.111-.45.145a2.31 2.31 0 0 1-.525.055c-.197 0-.382-.027-.555-.08a1.335 1.335 0 0 1-.455-.25 1.197 1.197 0 0 1-.305-.415c-.074-.17-.11-.37-.11-.6 0-.2.055-.392.165-.575.11-.187.288-.352.535-.495.246-.144.568-.26.965-.35.396-.094.883-.147 1.46-.16V58.4c0-.394-.085-.69-.255-.89-.17-.204-.419-.305-.745-.305-.22 0-.405.028-.555.085a1.959 1.959 0 0 0-.385.185c-.107.066-.2.128-.28.185a.403.403 0 0 1-.23.08.265.265 0 0 1-.155-.045.46.46 0 0 1-.11-.12l-.16-.285zM247.258 60.42c.164.22.342.375.535.465.194.09.41.135.65.135.474 0 .837-.169 1.09-.505.254-.337.38-.817.38-1.44 0-.33-.03-.614-.09-.85a1.593 1.593 0 0 0-.25-.58c-.11-.154-.245-.265-.405-.335s-.341-.105-.545-.105c-.29 0-.545.066-.765.2a2.234 2.234 0 0 0-.6.565v2.45zm-.045-3.06c.214-.264.46-.475.74-.635.28-.16.6-.24.96-.24.294 0 .559.056.795.17.237.11.439.275.605.495.167.216.295.486.385.81.09.323.135.695.135 1.115 0 .373-.05.721-.15 1.045-.1.32-.245.598-.435.835a2.028 2.028 0 0 1-.69.555c-.27.133-.575.2-.915.2-.31 0-.576-.052-.8-.155a1.918 1.918 0 0 1-.585-.44v2.24h-.895v-6.78h.535c.127 0 .205.061.235.185l.08.6zM255.034 56.825a.563.563 0 0 1 .185-.18.463.463 0 0 1 .245-.07h.695l-1.315 1.93c-.08.123-.163.225-.25.305a.93.93 0 0 1-.32.18c.16.043.295.111.405.205.11.09.208.206.295.35l1.33 2.095h-.62a.71.71 0 0 1-.37-.08.701.701 0 0 1-.225-.23l-.985-1.575a.77.77 0 0 0-.705-.39h-.545v2.28h-.895v-5.07h.895v2.19h.48a.71.71 0 0 0 .625-.34l1.075-1.6zM260.33 58.555c0-.207-.03-.395-.09-.565a1.207 1.207 0 0 0-.255-.445 1.076 1.076 0 0 0-.405-.29 1.348 1.348 0 0 0-.545-.105c-.427 0-.765.125-1.015.375-.247.246-.4.59-.46 1.03h2.77zm.72 2.375c-.11.133-.242.25-.395.35a2.551 2.551 0 0 1-.495.24 2.95 2.95 0 0 1-.54.14 3.16 3.16 0 0 1-.555.05c-.35 0-.674-.059-.97-.175a2.184 2.184 0 0 1-.765-.52 2.422 2.422 0 0 1-.5-.85 3.446 3.446 0 0 1-.18-1.16c0-.354.053-.684.16-.99.11-.307.266-.572.47-.795a2.1 2.1 0 0 1 .745-.53c.293-.13.623-.195.99-.195.303 0 .583.051.84.155.26.1.483.246.67.44.19.19.338.426.445.71.106.28.16.6.16.96 0 .14-.015.233-.045.28s-.087.07-.17.07h-3.385c.01.32.053.598.13.835.08.236.19.435.33.595.14.156.306.275.5.355.193.076.41.115.65.115.223 0 .415-.025.575-.075a2.908 2.908 0 0 0 .71-.335.391.391 0 0 1 .205-.08c.073 0 .13.028.17.085l.25.325zM266.355 57.255h-1.945v4.385h-.89v-4.385h-1.945v-.68h4.78v.68zM271.423 61.64h-.895v-4.385h-2.43v4.385h-.895v-5.065h4.22v5.065zM277.278 61.64h-.89v-4.365h-1.6c-.04.643-.1 1.2-.18 1.67-.08.466-.177.865-.29 1.195-.11.326-.235.593-.375.8a1.91 1.91 0 0 1-.435.475c-.15.113-.307.19-.47.23-.16.04-.32.06-.48.06-.283 0-.425-.045-.425-.135v-.565h.26c.113 0 .228-.02.345-.06s.23-.117.34-.23c.113-.114.222-.272.325-.475.103-.207.197-.474.28-.8.087-.33.16-.729.22-1.195.063-.47.112-1.027.145-1.67h3.23v5.065zM282.078 58.555c0-.207-.03-.395-.09-.565a1.207 1.207 0 0 0-.255-.445 1.077 1.077 0 0 0-.405-.29 1.348 1.348 0 0 0-.545-.105c-.427 0-.765.125-1.015.375-.247.246-.4.59-.46 1.03h2.77zm.72 2.375c-.11.133-.242.25-.395.35a2.551 2.551 0 0 1-.495.24 2.95 2.95 0 0 1-.54.14c-.187.033-.372.05-.555.05-.35 0-.674-.059-.97-.175a2.184 2.184 0 0 1-.765-.52c-.214-.23-.38-.514-.5-.85s-.18-.724-.18-1.16c0-.354.053-.684.16-.99.11-.307.266-.572.47-.795a2.1 2.1 0 0 1 .745-.53c.293-.13.623-.195.99-.195.303 0 .583.051.84.155.26.1.483.246.67.44.19.19.338.426.445.71.106.28.16.6.16.96 0 .14-.015.233-.045.28s-.087.07-.17.07h-3.385c.01.32.053.598.13.835.08.236.19.435.33.595.14.156.306.275.5.355.193.076.41.115.65.115.223 0 .415-.025.575-.075a2.908 2.908 0 0 0 .71-.335.391.391 0 0 1 .205-.08c.073 0 .13.028.17.085l.25.325zM288.316 56.575v5.065h-.89V58.2a4.454 4.454 0 0 1 .035-.445c-.03.066-.06.128-.09.185-.03.056-.062.108-.095.155l-2.445 3.325a.893.893 0 0 1-.14.155.269.269 0 0 1-.18.07h-.54V56.58h.895v3.44c0 .063-.004.133-.01.21a6.504 6.504 0 0 1-.025.225c.03-.064.06-.122.09-.175.03-.057.06-.109.09-.155l2.445-3.325a.71.71 0 0 1 .14-.15.272.272 0 0 1 .185-.075h.535zm-2.115-1.225c.136 0 .251-.015.345-.045a.5.5 0 0 0 .225-.155c.06-.07.103-.16.13-.27.026-.11.04-.245.04-.405h.52a.16.16 0 0 1 .145.085c.033.056.05.118.05.185a1 1 0 0 1-.1.45.998.998 0 0 1-.29.345c-.124.093-.275.165-.455.215s-.384.075-.61.075c-.227 0-.43-.025-.61-.075s-.334-.122-.46-.215a.993.993 0 0 1-.285-.345.988.988 0 0 1-.1-.45c0-.067.016-.129.05-.185a.158.158 0 0 1 .145-.085h.52c0 .16.013.295.04.405.026.11.068.2.125.27.06.07.136.121.23.155.093.03.208.045.345.045zM293.248 57.475a.422.422 0 0 1-.08.085.182.182 0 0 1-.11.03.304.304 0 0 1-.165-.06 2.29 2.29 0 0 0-.225-.14 1.6 1.6 0 0 0-.325-.135 1.472 1.472 0 0 0-.47-.065c-.25 0-.47.045-.66.135-.19.086-.35.213-.48.38a1.773 1.773 0 0 0-.29.605 3.048 3.048 0 0 0-.095.795c0 .306.035.58.105.82.07.236.168.436.295.6.13.16.285.283.465.37.183.083.388.125.615.125.216 0 .395-.025.535-.075.14-.054.255-.112.345-.175.093-.064.17-.12.23-.17a.29.29 0 0 1 .185-.08c.073 0 .13.028.17.085l.25.325c-.11.136-.235.253-.375.35-.14.096-.292.178-.455.245-.16.063-.329.11-.505.14-.177.03-.357.045-.54.045-.317 0-.612-.059-.885-.175a2.033 2.033 0 0 1-.705-.505 2.399 2.399 0 0 1-.47-.82 3.313 3.313 0 0 1-.17-1.105c0-.377.051-.725.155-1.045.106-.32.26-.595.46-.825.203-.234.451-.415.745-.545.296-.13.636-.195 1.02-.195.356 0 .67.058.94.175.273.113.515.275.725.485l-.235.32zM296.443 60.99c.18 0 .335-.022.465-.065a.932.932 0 0 0 .33-.19c.087-.084.152-.18.195-.29s.065-.23.065-.36a.986.986 0 0 0-.055-.335.666.666 0 0 0-.185-.28.874.874 0 0 0-.33-.19 1.554 1.554 0 0 0-.5-.07h-1.08v1.78h1.095zm-.015-2.43c.35 0 .643.041.88.125.24.083.432.195.575.335.147.14.252.301.315.485a1.745 1.745 0 0 1-.025 1.2c-.08.19-.198.355-.355.495-.156.136-.35.245-.58.325-.23.076-.495.115-.795.115h-1.945v-5.065h.85v1.985h1.08zm3.87-1.985v5.065h-.89v-5.065h.89z"/><path fill="none" stroke="#331A2F" stroke-width=".777" stroke-opacity=".5" d="M201.433 12.565v62"/><path fill="#54618E" d="M66.203 30.734c-.594 0-1.28-.09-2.055-.272l-2.452-.669.669-2.006c1.387.496 2.542.743 3.467.743.495 0 .908-.115 1.238-.346a1.09 1.09 0 0 0 .495-.941c0-.397-.107-.694-.322-.892-.214-.198-.61-.371-1.188-.52l-1.338-.347c-1.849-.478-2.773-1.568-2.773-3.269 0-1.023.388-1.865 1.164-2.525.792-.66 1.824-.991 3.095-.991.512 0 1.115.09 1.808.272l2.452.669-.669 2.006c-1.337-.495-2.352-.743-3.046-.743-.462 0-.85.124-1.164.372-.314.23-.47.536-.47.916 0 .396.107.693.321.891.215.198.611.372 1.19.52l1.312.347c.99.264 1.7.669 2.13 1.214.429.528.643 1.213.643 2.055 0 1.007-.38 1.849-1.139 2.526-.76.66-1.882.99-3.368.99zm10.592 0c-1.239 0-2.114-.305-2.625-.916-.496-.61-.743-1.544-.743-2.798V21.1h-1.833v-2.18h1.833v-2.897l3.145-.619v3.517h2.724v2.18h-2.724v5.967c0 .974.396 1.461 1.188 1.461.48 0 .991-.148 1.536-.445l.495 1.857a5.851 5.851 0 0 1-2.996.792zm7.71 0c-1.122 0-2.014-.346-2.674-1.04a3.467 3.467 0 0 1-.99-2.476c0-.71.23-1.28.693-1.709.479-.446 1.222-.792 2.229-1.04l3.987-.99v-1.016c0-.479-.149-.858-.446-1.139-.28-.28-.677-.421-1.189-.421-.577 0-1.882.438-3.912 1.313l-.867-2.006 2.823-1.04c.858-.314 1.486-.471 1.882-.471 1.502 0 2.683.396 3.541 1.189.875.776 1.313 1.8 1.313 3.07v4.26c0 .314.05.784.148 1.412.116.61.265 1.13.446 1.56l-2.7.544c-.33-.363-.676-.866-1.04-1.51-1.105 1.007-2.187 1.51-3.243 1.51zm1.115-2.204c.644 0 1.354-.371 2.13-1.114v-2.501l-2.477.718c-.792.231-1.188.669-1.188 1.313 0 .495.14.883.42 1.163.281.281.653.421 1.115.421zm11.816 2.204c-1.238 0-2.113-.305-2.625-.916-.495-.61-.743-1.544-.743-2.798V21.1h-1.832v-2.18h1.832v-2.897l3.145-.619v3.517h2.724v2.18h-2.724v5.967c0 .974.396 1.461 1.189 1.461.479 0 .99-.148 1.535-.445l.496 1.857a5.854 5.854 0 0 1-2.997.792zm34.976-.222h-3.145V23.75c0-.99-.148-1.709-.445-2.155-.281-.462-.735-.693-1.362-.693-.628 0-1.305.372-2.031 1.114v8.495h-3.145V23.75c0-.99-.141-1.709-.421-2.155-.281-.462-.743-.693-1.387-.693-.611 0-1.288.372-2.031 1.114v8.495H115.3v-8.296c0-.314-.058-.776-.173-1.387-.099-.628-.24-1.156-.421-1.585l2.674-.545c.347.347.702.85 1.065 1.51 1.04-1.006 2.122-1.51 3.244-1.51 1.668 0 2.799.586 3.393 1.758.363-.479.883-.891 1.56-1.238s1.354-.52 2.031-.52c1.255 0 2.187.363 2.798 1.09.628.726.941 1.857.941 3.392v7.33zm5.71.222c-1.122 0-2.014-.346-2.674-1.04a3.465 3.465 0 0 1-.991-2.476c0-.71.231-1.28.694-1.709.478-.446 1.221-.792 2.228-1.04l3.987-.99v-1.016c0-.479-.148-.858-.445-1.139-.281-.28-.677-.421-1.189-.421-.578 0-1.882.438-3.913 1.313l-.867-2.006 2.824-1.04c.858-.314 1.485-.471 1.882-.471 1.502 0 2.682.396 3.541 1.189.875.776 1.312 1.8 1.312 3.07v4.26c0 .314.05.784.149 1.412.116.61.264 1.13.446 1.56l-2.699.544c-.331-.363-.677-.866-1.041-1.51-1.106 1.007-2.187 1.51-3.244 1.51zm1.115-2.204c.644 0 1.353-.371 2.129-1.114v-2.501l-2.476.718c-.792.231-1.189.669-1.189 1.313 0 .495.141.883.421 1.163.281.281.652.421 1.115.421zm11.24 1.982h-3.145v-8.296c0-.314-.057-.776-.173-1.387-.099-.628-.239-1.156-.421-1.585l2.675-.545c.511.512.866 1.205 1.064 2.08.331-.66.768-1.172 1.313-1.535a3.267 3.267 0 0 1 1.808-.545c.363 0 .693.058.99.173l-.545 2.7h-.817c-.776 0-1.387.19-1.832.57-.43.362-.735.973-.917 1.832v6.538zm16.354 0h-3.863l-3.839-5.993v5.993h-3.145V13.969l3.145-.62v10.303l3.913-4.73h3.541l-4.655 5.176 4.903 6.414zm5.637.222c-1.865 0-3.277-.553-4.234-1.659-.941-1.122-1.412-2.592-1.412-4.408 0-1.816.487-3.26 1.461-4.334.974-1.09 2.328-1.634 4.061-1.634 3.352 0 5.028 1.742 5.028 5.225 0 .364-.042.669-.124.917h-7.182c0 1.238.223 2.162.669 2.773.462.611 1.098.916 1.907.916.908 0 2.096-.33 3.566-.99l.866 2.006-2.625.966c-.445.148-1.106.222-1.981.222zm-.297-9.831c-.66 0-1.18.231-1.56.693-.363.463-.545 1.04-.545 1.734h4.037c0-1.618-.644-2.427-1.932-2.427zm11.368 9.831c-1.239 0-2.114-.305-2.626-.916-.495-.61-.742-1.544-.742-2.798V21.1h-1.833v-2.18h1.833v-2.897l3.145-.619v3.517h2.724v2.18h-2.724v5.967c0 .974.396 1.461 1.188 1.461.479 0 .991-.148 1.536-.445l.495 1.857a5.851 5.851 0 0 1-2.996.792z"/><path fill="#D653D2" d="M111.71 30.512h-2.997v-3.814h-6.761l-.668-1.932 7.058-10.104h3.368v9.708h1.585v2.328h-1.585v3.814zm-2.997-6.142v-6.439l-4.383 6.439h4.383z"/><linearGradient id="a" gradientUnits="userSpaceOnUse" x1="31.235" y1="88.342" x2="19.473" y2="50.638" gradientTransform="matrix(1 0 0 -1 0 74.595)"><stop offset="0" stop-color="#f0a"/><stop offset="1" stop-color="#8912de"/></linearGradient><ellipse fill="url(#a)" cx="23.5" cy="11.049" rx="23.5" ry="11.049"/><path fill="#FFF" d="M46.076 14.115H33.934V1.149a41.25 41.25 0 0 0-2.797-.55c-.043.212-.086.42-.129.622a5.827 5.827 0 0 0-.035.613v12.281H9.576L31.072.59a45.538 45.538 0 0 0-2.735-.355L5.875 14.198l.317.779c.07.121.2.22.388.298.188.067.458.1.81.1h23.583v6.15c1.02-.162 2.009-.354 2.961-.576v-5.574h11.195c.37-.408.683-.829.947-1.26z"/></svg>