<svg width="110" height="110" viewBox="0 0 110 110" fill="none" xmlns="http://www.w3.org/2000/svg"><g filter="url(#a)"><rect x="25" y="21" width="60" height="60" rx="15" fill="#CF51CE"/></g><path d="M54.575 69.946c-.705-.163-1.355-.38-1.79-.976-.27-.38-.487-.867-.704-1.301-.108-.217-.162-.325-.38-.38a16.111 16.111 0 0 1-4.12-1.409 16.103 16.103 0 0 1-5.312-4.228c-.162-.217-.325-.217-.542-.163-1.355.488-2.818-.108-3.523-1.355-.705-1.3-.434-2.873.759-3.74.217-.163.27-.325.162-.597a16.27 16.27 0 0 1 0-9.649c.055-.217.055-.38-.162-.542-1.193-.867-1.518-2.44-.813-3.74.704-1.301 2.168-1.843 3.577-1.355.272.108.38 0 .543-.163a16.103 16.103 0 0 1 5.312-4.228c1.247-.65 2.602-1.084 3.957-1.355.325-.055.542-.163.65-.597.217-1.3 1.464-2.168 2.82-2.168 1.355 0 2.547.976 2.818 2.277.055.325.217.433.488.488a15.541 15.541 0 0 1 6.072 2.602c1.246.867 2.33 1.843 3.252 2.981.163.217.325.271.596.163 1.301-.488 2.82.108 3.524 1.3.704 1.302.433 2.874-.705 3.741-.217.163-.271.325-.217.596a16.27 16.27 0 0 1 0 9.65c-.054.216-.054.379.163.541 1.084.814 1.463 2.331.921 3.578-.596 1.301-2.005 2.06-3.306 1.68-.597-.162-.868 0-1.247.434-2.385 2.71-5.42 4.446-8.944 5.204-.326.055-.542.217-.597.597-.325 1.138-1.084 1.789-2.168 2.114-.108 0-.163.054-.271.054-.325-.054-.542-.054-.813-.054Zm.38-27.267c-4.554 0-8.295 3.74-8.295 8.294 0 4.553 3.74 8.294 8.294 8.294s8.294-3.74 8.294-8.294-3.74-8.294-8.294-8.294Zm-2.82-6.83c-3.74.705-6.776 2.548-9.16 5.475.65.813.867 1.68.65 2.656 0 .108.108.217.162.271l2.114 1.138c.326.163.65.38.976.542 1.952-2.872 4.608-4.445 8.077-4.445 3.47 0 6.072 1.627 8.023 4.446.922-.488 1.789-.976 2.656-1.464.434-.217.705-.434.597-1.03-.163-.813.162-1.518.704-2.168-2.385-2.928-5.42-4.77-9.16-5.475-.38 1.138-1.14 1.788-2.278 2.06v2.385h-1.192v-2.386c-1.03-.27-1.79-.921-2.169-2.005Zm-9.16 24.773c2.439 2.927 5.42 4.77 9.16 5.475.38-1.084 1.139-1.789 2.277-2.06v-2.385h1.193v2.385c1.138.271 1.843.976 2.222 2.06 3.74-.759 6.776-2.548 9.162-5.475-.705-1.084-.76-1.41-.651-2.656a.414.414 0 0 0-.108-.271c-1.03-.597-2.115-1.139-3.199-1.735-1.951 2.873-4.607 4.445-8.077 4.445-3.47 0-6.125-1.626-8.077-4.445-1.084.596-2.114 1.138-3.144 1.735-.054.054-.162.162-.108.27.217 1.03-.054 1.898-.65 2.657Zm3.36-5.692c-1.138-2.656-1.138-5.312 0-7.968-1.138-.597-2.222-1.247-3.36-1.844-.76.813-1.627 1.139-2.711 1.03-.976 3.199-.976 6.343 0 9.541 1.084-.108 1.951.271 2.71 1.03 1.139-.542 2.223-1.138 3.361-1.789Zm20.6 1.843c.704-.705 1.517-1.138 2.547-1.084.054 0 .217-.163.271-.217.542-1.735.759-3.47.65-5.312-.054-1.355-.27-2.656-.758-3.957-1.03.108-1.898-.217-2.602-.922-.055-.054-.217-.054-.326 0a38.5 38.5 0 0 1-1.409.759c-.542.325-1.138.596-1.68.922 1.138 2.656 1.138 5.312 0 7.968a64.761 64.761 0 0 0 3.306 1.843Zm-11.98-20.057c.975 0 1.788-.813 1.788-1.735 0-.975-.759-1.788-1.735-1.788-.975 0-1.788.813-1.788 1.788-.055.922.758 1.735 1.734 1.735Zm-12.469 6.56c0-.976-.813-1.79-1.788-1.79-.976 0-1.79.814-1.79 1.79 0 .975.814 1.734 1.79 1.734 1.03 0 1.788-.813 1.788-1.735Zm28.46 0c0-.976-.814-1.79-1.735-1.79-.976 0-1.789.76-1.789 1.735 0 .976.813 1.789 1.789 1.789.921.054 1.735-.759 1.735-1.735ZM42.486 58.67c0-.975-.813-1.788-1.788-1.788-.976 0-1.79.813-1.79 1.788 0 .976.814 1.79 1.79 1.79a1.77 1.77 0 0 0 1.788-1.79Zm28.46 0c0-.975-.814-1.788-1.735-1.788-.976 0-1.789.759-1.789 1.734 0 .976.813 1.79 1.789 1.79.921.053 1.735-.76 1.735-1.736Zm-15.992 6.56c-.976 0-1.789.813-1.789 1.734 0 .976.813 1.79 1.79 1.79.975 0 1.788-.814 1.788-1.79 0-.975-.813-1.734-1.789-1.734Z" fill="#fff"/><path d="M53.056 50.267c-1.138-1.03-1.3-2.276-.975-3.632.325-1.409 1.734-2.33 3.09-2.222 1.572.163 2.602 1.355 2.71 2.927.054 1.084-.163 2.06-1.084 2.873.163.109.325.271.488.38a68.16 68.16 0 0 0 2.656 1.572c.217.108.325.27.271.542v1.572c.054.704-.325 1.192-.922 1.41a7.578 7.578 0 0 1-1.843.433c-1.951.163-3.957.217-5.908-.108-.326-.055-.65-.163-.976-.272-.65-.27-1.03-.758-.976-1.463v-1.626c0-.217.054-.326.217-.434.921-.542 1.789-1.084 2.71-1.626.217-.055.38-.163.542-.326Zm1.573 4.88c1.084-.055 1.843-.055 2.602-.11.487-.053 1.03-.162 1.517-.27.271-.055.326-.217.326-.488.162-.868-.163-1.464-1.03-1.789-.109-.054-.217-.108-.271-.163-.65-.433-1.301-.921-1.952-1.355-.054-.054-.217-.054-.325-.054h-1.247c-.108 0-.271 0-.325.054-.705.76-1.626 1.193-2.494 1.68-.542.326-.813.651-.705 1.302.055.758.055.758.76.975h.108c1.192.054 2.277.163 3.035.217Zm-1.464-7.482v.488c.054.922.813 1.572 1.68 1.627.868.054 1.68-.543 1.79-1.41.053-.488.053-.976-.055-1.41-.271-1.083-1.572-1.626-2.548-1.083-.596.379-.867 1.03-.867 1.788ZM55.55 35.523h-1.138v-1.138h1.139v1.138ZM41.293 43.816h-1.139v-1.138h1.139v1.138ZM69.753 42.678v1.138h-1.139v-1.138h1.139ZM41.293 59.266h-1.139v-1.138h1.139v1.138ZM69.753 58.128v1.138h-1.139v-1.138h1.139ZM55.55 66.422v1.138h-1.138v-1.138h1.139Z" fill="#fff"/><defs><filter id="a" x="0" y="0" width="110" height="110" filterUnits="userSpaceOnUse" color-interpolation-filters="sRGB"><feFlood flood-opacity="0" result="BackgroundImageFix"/><feColorMatrix in="SourceAlpha" values="0 0 0 0 0 0 0 0 0 0 0 0 0 0 0 0 0 0 127 0" result="hardAlpha"/><feOffset dy="4"/><feGaussianBlur stdDeviation="12.5"/><feComposite in2="hardAlpha" operator="out"/><feColorMatrix values="0 0 0 0 0.917647 0 0 0 0 0.364706 0 0 0 0 0.733333 0 0 0 0.25 0"/><feBlend in2="BackgroundImageFix" result="effect1_dropShadow_1511_14263"/><feBlend in="SourceGraphic" in2="effect1_dropShadow_1511_14263" result="shape"/></filter></defs></svg>