<svg xmlns="http://www.w3.org/2000/svg" viewBox="0 0 139.443 40.256"><path fill="#54618E" d="M49.49 40.256c-.444 0-.957-.067-1.537-.203l-1.832-.5.5-1.5c1.036.37 1.9.556 2.591.556.37 0 .679-.087.926-.26a.815.815 0 0 0 .37-.703c0-.296-.08-.518-.24-.666-.161-.148-.457-.278-.89-.389l-.999-.26c-1.382-.357-2.073-1.172-2.073-2.443 0-.765.29-1.394.87-1.888.592-.494 1.364-.74 2.314-.74.383 0 .833.067 1.351.203l1.833.5-.5 1.5c-1-.37-1.758-.556-2.277-.556-.345 0-.635.093-.87.278a.81.81 0 0 0-.352.685c0 .296.08.518.241.666.16.148.457.278.889.389l.98.26c.741.196 1.272.499 1.593.906.32.395.481.907.481 1.537 0 .753-.284 1.382-.851 1.888-.568.494-1.407.74-2.518.74zm7.917 0c-.925 0-1.58-.228-1.962-.685-.37-.456-.555-1.153-.555-2.091v-4.425h-1.37v-1.629h1.37V29.26l2.35-.463v2.63h2.037v1.628h-2.036v4.462c0 .728.296 1.092.888 1.092.358 0 .74-.111 1.148-.333l.37 1.388a4.374 4.374 0 0 1-2.24.592zm5.765 0c-.84 0-1.506-.259-2-.777a2.592 2.592 0 0 1-.74-1.851c0-.531.173-.957.518-1.278.358-.333.914-.592 1.666-.777l2.98-.74v-.76c0-.358-.11-.641-.332-.851-.21-.21-.506-.315-.889-.315-.432 0-1.407.327-2.925.981l-.648-1.5 2.11-.777c.642-.234 1.111-.352 1.408-.352 1.123 0 2.005.297 2.647.889.654.58.98 1.345.98 2.296v3.184c0 .234.038.586.112 1.055.086.457.197.845.333 1.166l-2.018.407c-.246-.271-.506-.648-.777-1.129-.827.753-1.635 1.13-2.425 1.13zm.833-1.647c.481 0 1.012-.278 1.592-.833v-1.87l-1.851.537c-.593.173-.889.5-.889.981 0 .37.105.66.315.87.21.21.487.315.833.315zm8.833 1.647c-.926 0-1.58-.228-1.962-.685-.37-.456-.556-1.153-.556-2.091v-4.425h-1.37v-1.629h1.37V29.26l2.351-.463v2.63h2.037v1.628H72.67v4.462c0 .728.296 1.092.889 1.092.358 0 .74-.111 1.148-.333l.37 1.388a4.374 4.374 0 0 1-2.24.592zm26.146-.166h-2.351v-5.054c0-.74-.111-1.277-.333-1.61-.21-.346-.55-.519-1.018-.519s-.975.278-1.518.833v6.35h-2.352v-5.054c0-.74-.104-1.277-.314-1.61-.21-.346-.556-.519-1.037-.519-.457 0-.963.278-1.518.833v6.35h-2.351v-6.202c0-.234-.043-.58-.13-1.037a5.117 5.117 0 0 0-.314-1.184l2-.408c.258.26.524.636.795 1.13.778-.753 1.586-1.13 2.425-1.13 1.247 0 2.092.439 2.536 1.315.272-.358.66-.667 1.167-.926a3.304 3.304 0 0 1 1.518-.389c.938 0 1.635.272 2.092.815.469.543.703 1.388.703 2.536v5.48zm4.269.166c-.84 0-1.506-.259-2-.777a2.594 2.594 0 0 1-.74-1.851c0-.531.172-.957.518-1.278.358-.333.913-.592 1.666-.777l2.981-.74v-.76c0-.358-.111-.641-.334-.851-.209-.21-.506-.315-.888-.315-.432 0-1.407.327-2.925.981l-.648-1.5 2.11-.777c.642-.234 1.111-.352 1.407-.352 1.123 0 2.006.297 2.648.889.654.58.981 1.345.981 2.296v3.184c0 .234.037.586.111 1.055.086.457.197.845.333 1.166l-2.018.407c-.247-.271-.506-.648-.777-1.129-.827.753-1.636 1.13-2.425 1.13zm.833-1.647c.481 0 1.012-.278 1.592-.833v-1.87l-1.852.537c-.592.173-.888.5-.888.981 0 .37.105.66.315.87.209.21.487.315.833.315zm8.402 1.48h-2.351v-6.2c0-.235-.043-.58-.129-1.038a5.102 5.102 0 0 0-.315-1.184l1.999-.408c.383.383.648.901.796 1.555.247-.493.574-.876.982-1.147a2.44 2.44 0 0 1 1.351-.408c.272 0 .518.044.741.13l-.408 2.018h-.611c-.58 0-1.036.142-1.37.426-.32.271-.549.728-.685 1.37v4.887zm12.226 0h-2.888l-2.87-4.48v4.48h-2.351V27.725l2.351-.463v7.7l2.925-3.535h2.647l-3.48 3.87 3.666 4.794zm4.214.167c-1.395 0-2.45-.413-3.166-1.24-.703-.84-1.055-1.938-1.055-3.295 0-1.358.364-2.437 1.092-3.24.728-.814 1.74-1.222 3.036-1.222 2.505 0 3.758 1.302 3.758 3.907 0 .271-.031.5-.092.685h-5.369c0 .925.167 1.616.5 2.073.345.456.82.685 1.425.685.679 0 1.568-.247 2.666-.74l.648 1.499-1.962.722c-.334.11-.827.166-1.481.166zm-.223-7.349c-.493 0-.882.173-1.166.518-.271.346-.407.778-.407 1.296h3.017c0-1.21-.481-1.814-1.444-1.814zm8.498 7.35c-.926 0-1.58-.229-1.962-.686-.37-.456-.556-1.153-.556-2.091v-4.425h-1.37v-1.629h1.37V29.26l2.351-.463v2.63h2.037v1.628h-2.037v4.462c0 .728.297 1.092.889 1.092.358 0 .741-.111 1.148-.333l.37 1.388a4.373 4.373 0 0 1-2.24.592z"/><path fill="#D653D2" d="M83.508 40.09h-2.24v-2.851h-5.054l-.5-1.444 5.276-7.553h2.518v7.257h1.185v1.74h-1.185v2.85zm-2.24-4.591v-4.813l-3.277 4.813h3.277z"/><linearGradient id="a" gradientUnits="userSpaceOnUse" x1="24.135" y1="56.84" x2="14.119" y2="26.979" gradientTransform="matrix(1 0 0 -1 0 46.074)"><stop offset="0" stop-color="#f0a"/><stop offset="1" stop-color="#8912de"/></linearGradient><ellipse fill="url(#a)" cx="17.548" cy="8.872" rx="17.548" ry="8.872"/><path fill="#FFF" d="M34.397 11.334h-9.058V.931c-.673-.17-1.37-.318-2.09-.443-.031.168-.063.333-.095.493a5.054 5.054 0 0 0-.026.492v9.861H7.151L23.196.478A31.552 31.552 0 0 0 21.159.19L4.387 11.4l.237.626c.052.098.149.178.29.24.14.053.341.08.605.08h17.61v4.932c.762-.13 1.498-.286 2.21-.465v-4.467h8.359a6.74 6.74 0 0 0 .699-1.012z"/></svg>