<svg width="20" height="20" viewBox="0 0 20 20" fill="none" xmlns="http://www.w3.org/2000/svg"><path d="M1.571 13.198c-.508.193-.769.764-.527 1.251a10 10 0 1 0 .65-10.016c-.304.451-.12 1.052.36 1.309.48.257 1.072.072 1.385-.373a8.03 8.03 0 1 1-.542 8.377c-.254-.481-.817-.741-1.326-.548Z" fill="#fff"/><path d="M1.25 9.217a.783.783 0 0 0 0 1.566V9.217Zm13.053 1.336a.783.783 0 0 0 0-1.106l-4.98-4.98a.783.783 0 1 0-1.107 1.106L12.643 10l-4.427 4.427a.783.783 0 0 0 1.107 1.107l4.98-4.98Zm-13.053.23h12.5V9.217H1.25v1.566Z" fill="#fff"/></svg>