<svg width="110" height="110" viewBox="0 0 110 110" fill="none" xmlns="http://www.w3.org/2000/svg">
    <g filter="url(#a)">
        <rect x="25" y="21" width="60" height="60" rx="15" fill="#CF51CE"/>
    </g>
    <g clip-path="url(#b)" fill="#fff">
        <path d="m63.609 43.519-3.266 3.265c1.306 1.722 1.781 3.682 1.306 5.82-.415 1.662-1.365 3.027-2.79 3.977-2.79 1.96-6.531 1.544-8.847-.95-2.375-2.553-2.494-6.294-.237-8.965 2.018-2.435 5.937-3.622 9.44-1.07 1.069-1.068 2.138-2.137 3.206-3.265-1.9-1.603-4.096-2.553-6.709-2.731v2.078c0 .594-.297.95-.772.95-.475 0-.772-.356-.772-.95v-5.106c-1.484.06-2.91.356-4.275.89-4.75 1.9-7.778 5.344-9.025 10.332 0 .119-.06.178-.06.297-.118.415-.474.653-.89.593-.415-.118-.653-.475-.593-.95.415-2.137 1.246-4.096 2.493-5.818 2.969-3.978 6.828-6.294 11.757-6.77.178 0 .415-.059.653-.059V33.07c0-.713.237-1.069.771-1.069.475 0 .772.356.772 1.01v5.106c2.97.237 5.582 1.306 7.779 3.206.356-.356.653-.713 1.068-1.128-.772-.535-1.484-1.128-2.315-1.603-1.307-.772-2.672-1.366-4.157-1.663-.118 0-.237-.06-.297-.06a.762.762 0 0 1-.534-.95c.119-.415.475-.652.95-.534 1.9.357 3.622 1.07 5.225 2.138.772.534 1.485 1.069 2.375 1.722.06-.238.238-.416.238-.594v-2.434c0-.297.118-.654.356-.832.95-1.009 1.96-2.018 2.969-3.028.297-.297.593-.415.95-.237.356.118.475.475.475.831v2.316h2.315c.416 0 .713.118.89.475.12.415 0 .712-.296.95-1.01.95-1.96 1.959-2.91 2.909a1.31 1.31 0 0 1-.89.356c-.772.06-1.603 0-2.375 0-.178 0-.416.178-.653.238 1.306 1.484 2.256 2.968 2.969 4.69.712 1.722 1.068 3.444 1.187 5.344h2.078c.594 0 .95.297.95.772 0 .475-.356.772-.95.772H68.121c-.356 1.306-.534 2.612-1.009 3.8-1.544 3.978-4.394 6.59-8.49 7.837-.12 0-.179.06-.297.06-.476.118-.832-.119-.95-.535-.12-.415.118-.771.593-.95.297-.118.594-.178.831-.297 4.513-1.721 7.066-5.046 7.6-9.796v-.178h-2.018c-.594 0-.95-.297-.95-.772 0-.475.356-.772.95-.772h5.106c-.237-3.385-1.425-6.353-3.622-8.847l-1.069 1.069c.06.059.12.178.238.297 1.128 1.365 1.96 2.909 2.434 4.63.238.713.06 1.129-.415 1.307-.475.119-.832-.178-1.01-.831-.594-1.544-1.365-2.969-2.434-4.275Zm-5.522 3.265c-1.781-1.484-4.869-1.603-6.947.535-2.019 2.137-2.019 5.284.06 7.362 2.078 2.078 5.284 2.138 7.362.119 2.138-2.019 2.138-5.106.594-7.006l-.831.831c-.238.178-.179.356-.06.594.416.831.594 1.662.356 2.553-.475 2.078-2.612 3.384-4.63 2.85-2.079-.535-3.326-2.731-2.732-4.75.653-2.078 2.85-3.325 4.81-2.494.83.356 1.305.119 1.721-.475.178 0 .238-.06.297-.119Zm-1.069 3.207c-.534.534-1.01 1.068-1.484 1.543-.297.297-.713.297-1.01 0-.296-.297-.356-.653-.118-1.009l.356-.356 1.247-1.247c-1.128-.475-2.256-.119-2.85.772a2.254 2.254 0 0 0 .297 2.85c.772.772 1.9.89 2.85.297.831-.594 1.187-1.722.712-2.85Zm10.569-11.578h1.84c.12 0 .297 0 .357-.06l1.603-1.603h-1.306c-.535 0-.832-.297-.832-.831v-1.366l-1.543 1.544a.453.453 0 0 0-.119.297c-.06.712 0 1.306 0 2.019Z"/>
        <path d="M38.969 51.772H36.89c-.593 0-.95-.297-.95-.772 0-.475.357-.713.891-.772h5.106c.238-1.01.357-1.96.653-2.91.238-.771.594-1.543.891-2.256.238-.475.653-.653 1.069-.415.415.237.534.653.237 1.128-.712 1.425-1.187 2.91-1.247 4.512h1.9c.713 0 1.07.238 1.129.772 0 .535-.357.772-1.129.772h-4.928c.06 1.247.238 2.434.653 3.563 1.782 5.165 5.285 8.43 10.57 9.737.177.06.415.119.593.238.297.237.416.534.237.89-.178.356-.475.535-.89.475-1.84-.415-3.622-1.069-5.225-2.078-4.275-2.969-6.769-7.006-7.363-12.231 0-.178-.06-.356-.06-.534 0 0 0-.06-.058-.12Z"/>
        <path d="M55.772 66.972v2.078c0 .594-.297.95-.772.95-.475 0-.772-.356-.772-.95v-5.106c-.772-.119-1.484-.238-2.197-.416-4.81-1.246-7.956-4.215-9.44-8.965-.06-.178-.12-.297-.12-.475 0-.416.179-.653.535-.772.356-.119.713 0 .89.356l.179.535c1.306 4.512 5.522 7.956 10.153 8.134v-2.019c0-.594.297-.95.712-.95.475 0 .772.356.772.95v5.166c.95-.178 1.9-.297 2.79-.475 1.604-.357 3.03-1.01 4.395-1.9.118-.06.237-.178.356-.238.356-.118.653-.06.89.238.238.297.179.653-.059.89a3.298 3.298 0 0 1-.475.357c-2.315 1.484-4.869 2.315-7.6 2.553 0 0-.119.06-.237.06ZM67.944 59.965c-.772 0-1.069-.593-.772-1.247a56.83 56.83 0 0 0 1.544-3.325c.178-.474.297-1.009.415-1.484.119-.475.475-.712.89-.653.416.119.654.475.595 1.01a13.906 13.906 0 0 1-2.138 5.224 1.784 1.784 0 0 1-.534.475ZM48.172 41.678c-.178-.178-.475-.356-.594-.653-.178-.356.06-.653.356-.89 1.128-.713 2.375-1.307 3.681-1.604.416-.119.713 0 .891.356.238.416.06.95-.416 1.128-1.246.357-2.375.832-3.443 1.544-.06 0-.178 0-.475.119ZM46.807 42.806c0 .416-.357.713-.772.713-.416 0-.713-.357-.713-.772 0-.416.356-.713.772-.713.356 0 .713.356.713.772ZM66.638 61.569a.786.786 0 0 1-.772.772c-.416 0-.772-.297-.772-.713 0-.415.297-.772.712-.772.475 0 .832.297.832.713Z"/>
    </g>
    <defs>
        <clipPath id="b">
            <path fill="#fff" transform="translate(36 32)" d="M0 0h38v38H0z"/>
        </clipPath>
        <filter id="a" x="0" y="0" width="110" height="110" filterUnits="userSpaceOnUse" color-interpolation-filters="sRGB">
            <feFlood flood-opacity="0" result="BackgroundImageFix"/>
            <feColorMatrix in="SourceAlpha" values="0 0 0 0 0 0 0 0 0 0 0 0 0 0 0 0 0 0 127 0" result="hardAlpha"/>
            <feOffset dy="4"/>
            <feGaussianBlur stdDeviation="12.5"/>
            <feComposite in2="hardAlpha" operator="out"/>
            <feColorMatrix values="0 0 0 0 0.917647 0 0 0 0 0.364706 0 0 0 0 0.733333 0 0 0 0.25 0"/>
            <feBlend in2="BackgroundImageFix" result="effect1_dropShadow_1511_14219"/>
            <feBlend in="SourceGraphic" in2="effect1_dropShadow_1511_14219" result="shape"/>
        </filter>
    </defs>
</svg>
