<svg width="110" height="110" viewBox="0 0 110 110" fill="none" xmlns="http://www.w3.org/2000/svg">
    <g filter="url(#a)">
        <rect x="25" y="21" width="60" height="60" rx="15" fill="#CF51CE"/>
    </g>
    <path d="M46.564 69.33c-.689-.306-.995-.766-.918-1.53v-1.225h-5.893c-.919 0-1.378-.46-1.378-1.378v-1.148c0-.383.23-.612.536-.612.306 0 .535.23.535.612v1.148c0 .153.077.23.23.23h5.97v-3.521c-1.455-.918-1.914-1.53-2.143-3.214-.919 0-1.837-.077-2.679 0-.765.076-1.301.918-1.377 1.76v1.071c0 .383-.23.613-.536.613-.306 0-.536-.23-.536-.613V60.3c.077-.919.536-1.684 1.301-2.22.077-.076.153-.076.23-.153-.306-.995-.69-1.913-.919-2.832-1.224-4.898-.459-9.413 2.373-13.622.153-.23.23-.383.076-.69a1.983 1.983 0 0 1 .383-2.295c.612-.613 1.454-.842 2.296-.46.153.154.306.077.46-.076.918-.612 1.76-1.224 2.678-1.837.383-.23.689-.153.842.153.153.306 0 .536-.306.766-.842.612-1.684 1.148-2.526 1.76-.153.077-.153.23-.076.383.306.765.153 1.53-.383 2.066-.536.612-1.225.842-2.067.612-.23-.076-.306 0-.459.153-1.53 2.22-2.449 4.669-2.678 7.424-.307 2.755.153 5.357 1.224 7.883.077.23.23.306.536.306h3.138c.076-.306 0-.46-.153-.612-.919-.766-1.531-1.684-1.684-2.832 0-.23-.077-.306-.306-.383-1.378-.382-1.837-2.066-.842-3.137.076-.077.153-.306.153-.46V46.83c0-1.684 1.071-2.908 2.602-3.215.23-.076.536-.076.765-.076h3.444c.766 0 1.531.23 2.143.765.077.077.23.077.306.077.69-.306 1.378-.383 2.143-.383h1.072c.306 0 .536.23.612.536 0 .306-.23.536-.612.536h-1.607a2.602 2.602 0 0 0-2.602 2.449c-.077 1.148 0 2.296 0 3.444v.153c.306.076.306-.077.382-.306a6.04 6.04 0 0 1 .919-2.296c.306-.383.459-.46.918-.306 1.454.459 2.832.841 4.362.995.383 0 .842 0 1.225-.077.23-.077.536-.23.689-.383.306-.306.688-.306.918.077.383.612.689 1.3.765 1.99 0 .153.077.382.307.306v-2.526c0-.383-.077-.612-.536-.612-.306-.077-.46-.306-.46-.612 0-.613-.229-1.072-.612-1.531a2.17 2.17 0 0 0-1.683-.765h-.613a.523.523 0 0 1-.535-.536c0-.306.23-.536.535-.536.842-.076 1.684.077 2.373.46.765-.766 1.684-.995 2.679-.919h3.367c1.454 0 2.602.918 2.985 2.296 0 .076.076.23.23.306.459.306.688.766.688 1.301v2.602c0 .153.077.383.23.46.995 1.071.536 2.678-.842 3.137-.23.077-.23.154-.306.306-.23 1.148-.766 2.144-1.684 2.909-.153.076-.153.306-.306.459l.076.077h3.215c.306 0 .383-.077.536-.307 1.071-2.525 1.454-5.127 1.224-7.806-.23-2.679-1.148-5.128-2.602-7.347-.153-.23-.306-.306-.536-.23-.765.23-1.454 0-1.99-.612-.535-.612-.688-1.301-.382-2.066-.077 0-.153-.154-.306-.307-2.22-1.76-4.745-2.908-7.577-3.367-.306-.077-.46 0-.612.306-.766 1.378-2.756 1.301-3.52 0-.154-.23-.307-.306-.537-.23l-2.755.69a.845.845 0 0 1-.612 0c-.153-.077-.306-.307-.23-.46.077-.153.23-.46.383-.46.918-.305 1.76-.458 2.679-.688h.153c.459 0 .688-.153.842-.612.382-.919 1.071-1.301 1.99-1.301.841.076 1.53.459 1.836 1.3.153.307.306.384.612.46 3.062.46 5.74 1.607 8.113 3.597.23.153.383.23.689.077a2.013 2.013 0 0 1 2.22.535c.535.613.688 1.531.305 2.296-.076.153-.153.306 0 .536 3.444 5.128 3.904 10.562 1.608 16.302 0 .076-.077.153-.077.23.153.076.23.152.383.305.765.613 1.148 1.378 1.148 2.373v4.669c0 .918-.46 1.377-1.378 1.377h-5.893v1.225c.077.765-.23 1.224-.918 1.53-5.893-.076-11.633-.076-17.45-.076Zm12.551-8.725c-.23 2.449-2.066 3.75-3.826 3.75-.919 0-1.684-.23-2.373-.842-.995-.765-1.454-1.76-1.53-2.985h-2.45c-1.377 0-2.219.842-2.219 2.22v5.051c0 .306.077.46.46.46H63.477c.153 0 .383.076.383-.23v-5.434c0-.995-.842-1.913-1.76-1.913-1.072-.154-1.99-.077-2.986-.077Zm-.23-10.485c-2.448.842-4.591-.077-6.81-.612-.077.076-.154.153-.154.306-.382.535-.535 1.148-.535 1.76 0 1.301-.077 2.602.076 3.827.23 1.99 2.067 3.444 4.056 3.29 1.99-.153 3.597-1.76 3.597-3.75v-3.444c0-.459-.153-.918-.23-1.377Zm-14.923-1.148c-.077.46-.23.842-.306 1.224a27.03 27.03 0 0 0 0 3.52c.153 2.067 1.99 3.445 3.98 3.139.994-.153 1.836-.765 2.372-1.607-.077 0-.153-.077-.153-.077-1.301-.536-1.76-1.76-1.072-2.985 0-.076.077-.076.077-.153v-2.22c-1.684 0-3.214-.382-4.898-.841Zm27.016 16.531v-5.128c0-.765-.612-1.53-1.377-1.607-.919-.076-1.76 0-2.68 0-.229 1.684-.688 2.373-2.142 3.215v3.52h6.2ZM60.493 55.171c0 .077.077.153.077.153.765 1.148 2.296 1.76 3.597 1.454 1.454-.382 2.525-1.53 2.602-2.984.076-1.072.076-2.22 0-3.291 0-.383-.153-.842-.153-1.225-1.76.842-3.368.306-5.051 0v2.296c0 .23.076.383.153.536.535 1.071.153 2.372-.995 2.831-.077.153-.153.23-.23.23Zm-.689-9.95.69 1.608c.076.23.152.306.305.46.23.229.46.458.689.764l.306.307c.536.153.995.306 1.53.306.766.076 1.455.076 2.22 0 .23 0 .383-.306.536-.46.153-.153.306-.382.46-.382.152 0 .382.153.535.306.23.306.383.612.536.995v-1.607c0-.077-.153-.23-.23-.306-.383-.077-.536-.306-.536-.69-.076-.994-.841-1.76-1.836-1.76h-3.904c-.535-.076-.995.154-1.3.46Zm-16.99 3.75c.153-.229.306-.458.383-.688.306-.46.459-.536.994-.383.766.23 1.531.383 2.296.613.766.153 1.608.306 2.45.153-.077-1.301.076-2.526.995-3.444-.383-.306-.766-.46-1.225-.46H44.88c-1.148 0-1.99.766-2.066 1.914-.077.689 0 1.53 0 2.296Zm14.005 10.563c-1.224.306-1.607.382-3.214 0 .23.918-.306 1.148-1.071.994.076 1.531 1.3 2.756 2.831 2.756 1.531-.077 2.756-1.301 2.68-2.68-.307-.076-.69-.076-.843-.229-.306-.153-.306-.535-.383-.842ZM46.03 60.91c.382-.383.765-.689 1.147-.995.613-.383 1.225-.46 1.99-.46.153 0 .306-.076.306-.152.077-.153.077-.383.153-.689-.688.077-1.148-.077-1.071-.918a5.111 5.111 0 0 1-2.832.076c-.076.306-.153.612-.306.765-.153.154-.536.154-.765.23-.077.842.535 1.76 1.377 2.143Zm15.918-3.138c-.153.765-.153.765-.995.919-.076.688 0 .765.69.765.841 0 1.606.23 2.219.842.23.153.382.383.612.612.918-.383 1.607-1.454 1.454-2.22-.842-.076-.918 0-.995-.918-1.071.306-1.99.23-2.985 0ZM43.273 40.936c.536 0 .995-.46.995-.995 0-.536-.46-.995-.918-.995-.536 0-.995.383-.995.918a.93.93 0 0 0 .918 1.072Zm11.94-5.358c.535 0 .994-.459.994-.994 0-.536-.459-.919-.995-.995-.535 0-.995.459-.995.995.077.612.46.994.995.994Zm12.015 5.358c.536 0 .995-.46.995-.995 0-.536-.383-.919-.918-.995-.536 0-.995.383-.995.918a.93.93 0 0 0 .918 1.072Zm-14.77 18.52c.076-.458-.077-.764-.383-.764-.46-.077-.919 0-1.455 0 0 .306-.076.535-.076.765h1.913Zm7.346-.764h-1.148c-.535 0-.765.23-.612.765h1.913c-.076-.306-.076-.536-.153-.765Zm1.072-1.148c0-.69-.689-.766-.919-1.225l-.612 1.225h1.53Zm-9.796 0c-.23-.383-.383-.766-.613-1.148-.23.23-.382.382-.612.535-.23.153-.46.306-.306.613h1.53Zm-.842-3.444v-1.76c-.46.076-.69.382-.69.765 0 .459.23.842.69.995Zm9.949-1.76v1.76c.46-.077.689-.46.689-.842.076-.46-.23-.766-.689-.919Zm-17.603-1.072c-.382.153-.535.46-.535.765 0 .306.153.536.535.689v-1.454Zm25.333 1.454c.382-.153.536-.383.536-.765 0-.306-.154-.536-.536-.69v1.455Z" fill="#fff"/>
    <defs>
        <filter id="a" x="0" y="0" width="110" height="110" filterUnits="userSpaceOnUse" color-interpolation-filters="sRGB">
            <feFlood flood-opacity="0" result="BackgroundImageFix"/>
            <feColorMatrix in="SourceAlpha" values="0 0 0 0 0 0 0 0 0 0 0 0 0 0 0 0 0 0 127 0" result="hardAlpha"/>
            <feOffset dy="4"/>
            <feGaussianBlur stdDeviation="12.5"/>
            <feComposite in2="hardAlpha" operator="out"/>
            <feColorMatrix values="0 0 0 0 0.917647 0 0 0 0 0.364706 0 0 0 0 0.733333 0 0 0 0.25 0"/>
            <feBlend in2="BackgroundImageFix" result="effect1_dropShadow_1511_14255"/>
            <feBlend in="SourceGraphic" in2="effect1_dropShadow_1511_14255" result="shape"/>
        </filter>
    </defs>
</svg>
